<svg width="36" height="36" viewBox="0 0 36 36" fill="none" xmlns="http://www.w3.org/2000/svg">
<path fill-rule="evenodd" clip-rule="evenodd" d="M3 9C3 7.4087 3.63214 5.88258 4.75736 4.75736C5.88258 3.63214 7.4087 3 9 3H27C28.5913 3 30.1174 3.63214 31.2426 4.75736C32.3679 5.88258 33 7.4087 33 9V27C33 28.5913 32.3679 30.1174 31.2426 31.2426C30.1174 32.3679 28.5913 33 27 33H9C7.4087 33 5.88258 32.3679 4.75736 31.2426C3.63214 30.1174 3 28.5913 3 27V9ZM9 6C8.20435 6 7.44129 6.31607 6.87868 6.87868C6.31607 7.44129 6 8.20435 6 9V27C6 27.7957 6.31607 28.5587 6.87868 29.1213C7.44129 29.6839 8.20435 30 9 30H18V19.5H16.5C16.1022 19.5 15.7206 19.342 15.4393 19.0607C15.158 18.7794 15 18.3978 15 18C15 17.6022 15.158 17.2206 15.4393 16.9393C15.7206 16.658 16.1022 16.5 16.5 16.5H18V14.25C18 12.8576 18.5531 11.5223 19.5377 10.5377C20.5223 9.55312 21.8576 9 23.25 9H24.15C24.5478 9 24.9294 9.15804 25.2107 9.43934C25.492 9.72065 25.65 10.1022 25.65 10.5C25.65 10.8978 25.492 11.2794 25.2107 11.5607C24.9294 11.842 24.5478 12 24.15 12H23.25C22.9545 12 22.6619 12.0582 22.389 12.1713C22.116 12.2843 21.8679 12.4501 21.659 12.659C21.4501 12.8679 21.2843 13.116 21.1713 13.389C21.0582 13.6619 21 13.9545 21 14.25V16.5H24.15C24.5478 16.5 24.9294 16.658 25.2107 16.9393C25.492 17.2206 25.65 17.6022 25.65 18C25.65 18.3978 25.492 18.7794 25.2107 19.0607C24.9294 19.342 24.5478 19.5 24.15 19.5H21V30H27C27.7956 30 28.5587 29.6839 29.1213 29.1213C29.6839 28.5587 30 27.7957 30 27V9C30 8.20435 29.6839 7.44129 29.1213 6.87868C28.5587 6.31607 27.7956 6 27 6H9Z" fill="black"/>
</svg>
