<svg width="225" height="90" viewBox="0 0 225 90" fill="none" xmlns="http://www.w3.org/2000/svg">
<path d="M15.3788 55.8857C16.5243 56.2094 51.1028 79.6684 53.9648 81.189C55.0128 81.7461 56.0985 82.0849 57.3979 82.0234C58.634 81.9669 59.8666 81.8979 61.1044 81.8603C63.5749 81.785 106.484 79.9118 117.346 77.3723C128.207 74.8329 147.428 66.321 147.428 55.8857" stroke="black" stroke-width="7" stroke-linecap="round" stroke-linejoin="round"/>
<path d="M4 82.6478C4.52416 82.6389 5.07121 82.6038 5.55466 82.619C10.7453 82.7799 16.0378 82.7131 21.2743 82.7736C32.5818 82.9046 43.8995 82.8522 55.2045 82.7537" stroke="black" stroke-width="7" stroke-linecap="round" stroke-linejoin="round"/>
<path d="M147.183 57.4263C153.854 61.0401 186.02 85.4557 187.006 86.0539C187.473 86.3356 189.081 86.3009 189.741 86.0163C190.218 85.8097 190.819 85.6435 191.188 85.4051C197.849 81.1078 214.52 65.6835 221.145 61.3746" stroke="black" stroke-width="7" stroke-linecap="round" stroke-linejoin="round"/>
<path d="M204.077 86.2484C200.036 85.9488 153.225 86.1416 152.536 86.0744C149.781 85.8062 148.024 85.2389 147.325 84.3806C147.093 84.0952 146.934 83.7998 146.862 83.5066C146.163 80.5411 145.883 70.1256 143.39 67.2681" stroke="black" stroke-width="7" stroke-linecap="round" stroke-linejoin="round"/>
<path d="M181.48 11.5526C186.222 7.96872 189.824 6.18283 196.498 4.72812C224.676 -1.414 229.348 33.0569 208.055 42.3389C180.627 54.2943 160.305 27.5177 179.617 15.2385" stroke="black" stroke-width="7" stroke-linecap="round" stroke-linejoin="round"/>
<path opacity="0.503384" d="M186.06 9.04061C156.981 -1.26973 140.229 4.23693 135.804 25.5606C129.167 57.5461 130.115 56.0432 114.943 63.1699" stroke="black" stroke-width="7" stroke-linecap="round" stroke-linejoin="round"/>
</svg>
