<svg width="140" height="37" viewBox="0 0 140 37" fill="none" xmlns="http://www.w3.org/2000/svg">
<path fill-rule="evenodd" clip-rule="evenodd" d="M9 4C7.4087 4 5.88258 4.63214 4.75736 5.75736C3.63214 6.88258 3 8.4087 3 10V28C3 29.5913 3.63214 31.1174 4.75736 32.2426C5.88258 33.3679 7.4087 34 9 34H27C28.5913 34 30.1174 33.3679 31.2426 32.2426C32.3679 31.1174 33 29.5913 33 28V10C33 8.4087 32.3679 6.88258 31.2426 5.75736C30.1174 4.63214 28.5913 4 27 4H9ZM6 10C6 9.20435 6.31607 8.44129 6.87868 7.87868C7.44129 7.31607 8.20435 7 9 7H27C27.7956 7 28.5587 7.31607 29.1213 7.87868C29.6839 8.44129 30 9.20435 30 10V28C30 28.7956 29.6839 29.5587 29.1213 30.1213C28.5587 30.6839 27.7956 31 27 31H9C8.20435 31 7.44129 30.6839 6.87868 30.1213C6.31607 29.5587 6 28.7956 6 28V10ZM13.5 17.5C13.5 17.1022 13.342 16.7206 13.0607 16.4393C12.7794 16.158 12.3978 16 12 16C11.6022 16 11.2206 16.158 10.9393 16.4393C10.658 16.7206 10.5 17.1022 10.5 17.5V26.5C10.5 26.8978 10.658 27.2794 10.9393 27.5607C11.2206 27.842 11.6022 28 12 28C12.3978 28 12.7794 27.842 13.0607 27.5607C13.342 27.2794 13.5 26.8978 13.5 26.5V17.5ZM14.25 12.25C14.25 12.8467 14.0129 13.419 13.591 13.841C13.169 14.2629 12.5967 14.5 12 14.5C11.4033 14.5 10.831 14.2629 10.409 13.841C9.98705 13.419 9.75 12.8467 9.75 12.25C9.75 11.6533 9.98705 11.081 10.409 10.659C10.831 10.2371 11.4033 10 12 10C12.5967 10 13.169 10.2371 13.591 10.659C14.0129 11.081 14.25 11.6533 14.25 12.25ZM18 16C18.51 16 18.96 16.255 19.23 16.642C20.0031 16.2207 20.8695 15.9999 21.75 16C24.99 16 27 18.889 27 21.3565V26.5C27 26.8978 26.842 27.2794 26.5607 27.5607C26.2794 27.842 25.8978 28 25.5 28C25.1022 28 24.7206 27.842 24.4393 27.5607C24.158 27.2794 24 26.8978 24 26.5V21.355C24 20.203 23.01 18.9985 21.75 18.9985C20.964 18.9985 20.0955 19.426 19.5 20.443V26.5C19.5 26.8978 19.342 27.2794 19.0607 27.5607C18.7794 27.842 18.3978 28 18 28C17.6022 28 17.2206 27.842 16.9393 27.5607C16.658 27.2794 16.5 26.8978 16.5 26.5V17.5C16.5 17.1022 16.658 16.7206 16.9393 16.4393C17.2206 16.158 17.6022 16 18 16Z" fill="black"/>
<path fill-rule="evenodd" clip-rule="evenodd" d="M55 9C55 7.4087 55.6321 5.88258 56.7574 4.75736C57.8826 3.63214 59.4087 3 61 3H79C80.5913 3 82.1174 3.63214 83.2426 4.75736C84.3679 5.88258 85 7.4087 85 9V27C85 28.5913 84.3679 30.1174 83.2426 31.2426C82.1174 32.3679 80.5913 33 79 33H61C59.4087 33 57.8826 32.3679 56.7574 31.2426C55.6321 30.1174 55 28.5913 55 27V9ZM61 6C60.2043 6 59.4413 6.31607 58.8787 6.87868C58.3161 7.44129 58 8.20435 58 9V27C58 27.7957 58.3161 28.5587 58.8787 29.1213C59.4413 29.6839 60.2043 30 61 30H70V19.5H68.5C68.1022 19.5 67.7206 19.342 67.4393 19.0607C67.158 18.7794 67 18.3978 67 18C67 17.6022 67.158 17.2206 67.4393 16.9393C67.7206 16.658 68.1022 16.5 68.5 16.5H70V14.25C70 12.8576 70.5531 11.5223 71.5377 10.5377C72.5223 9.55312 73.8576 9 75.25 9H76.15C76.5478 9 76.9294 9.15804 77.2107 9.43934C77.492 9.72065 77.65 10.1022 77.65 10.5C77.65 10.8978 77.492 11.2794 77.2107 11.5607C76.9294 11.842 76.5478 12 76.15 12H75.25C74.9545 12 74.6619 12.0582 74.389 12.1713C74.116 12.2843 73.8679 12.4501 73.659 12.659C73.4501 12.8679 73.2843 13.116 73.1713 13.389C73.0582 13.6619 73 13.9545 73 14.25V16.5H76.15C76.5478 16.5 76.9294 16.658 77.2107 16.9393C77.492 17.2206 77.65 17.6022 77.65 18C77.65 18.3978 77.492 18.7794 77.2107 19.0607C76.9294 19.342 76.5478 19.5 76.15 19.5H73V30H79C79.7956 30 80.5587 29.6839 81.1213 29.1213C81.6839 28.5587 82 27.7957 82 27V9C82 8.20435 81.6839 7.44129 81.1213 6.87868C80.5587 6.31607 79.7956 6 79 6H61Z" fill="black"/>
<path fill-rule="evenodd" clip-rule="evenodd" d="M115.768 7.16261C119.656 6.61211 124.345 6.61211 128.233 7.16261C131.765 7.66361 134.503 10.1416 135.025 12.8116C135.659 16.0441 135.659 19.9561 135.025 23.1886C134.501 25.8586 131.765 28.3366 128.233 28.8376C124.345 29.3881 119.654 29.3881 115.768 28.8376C112.235 28.3366 109.499 25.8586 108.976 23.1886C108.341 19.9561 108.341 16.0441 108.976 12.8116C109.499 10.1416 112.235 7.66361 115.768 7.16261ZM128.653 4.19261C124.487 3.60311 119.513 3.60311 115.348 4.19261C110.825 4.83311 106.85 8.05961 106.033 12.2356C105.323 15.8491 105.323 20.1511 106.033 23.7646C106.85 27.9406 110.825 31.1671 115.348 31.8076C119.513 32.3971 124.487 32.3971 128.653 31.8076C133.175 31.1671 137.15 27.9406 137.968 23.7646C138.677 20.1511 138.677 15.8491 137.968 12.2356C137.15 8.05961 133.175 4.83311 128.653 4.19261ZM119.833 10.7521C119.607 10.6014 119.344 10.5148 119.073 10.5017C118.802 10.4885 118.532 10.5492 118.292 10.6773C118.053 10.8054 117.853 10.9961 117.713 11.2291C117.574 11.4621 117.5 11.7285 117.5 12.0001V24.0001C117.5 24.2717 117.574 24.5382 117.713 24.7711C117.853 25.0041 118.053 25.1948 118.292 25.3229C118.532 25.451 118.802 25.5117 119.073 25.4986C119.344 25.4854 119.607 25.3988 119.833 25.2481L128.833 19.2481C129.038 19.1111 129.206 18.9255 129.323 18.7078C129.439 18.4901 129.5 18.247 129.5 18.0001C129.5 17.7532 129.439 17.5101 129.323 17.2924C129.206 17.0747 129.038 16.8891 128.833 16.7521L119.833 10.7521ZM125.296 18.0001L120.5 21.1981V14.8036L125.296 18.0001Z" fill="#CC2828"/>
</svg>
