<svg width="380" height="316" viewBox="0 0 380 316" fill="none" xmlns="http://www.w3.org/2000/svg">
<path d="M117.707 250.531C117.666 250.531 117.625 250.523 117.587 250.507C117.549 250.491 117.514 250.468 117.485 250.439C117.456 250.41 117.433 250.375 117.417 250.337C117.401 250.299 117.393 250.259 117.393 250.217V220.5C117.394 220.418 117.428 220.339 117.487 220.281C117.545 220.224 117.625 220.191 117.707 220.191C117.789 220.191 117.869 220.224 117.927 220.281C117.986 220.339 118.02 220.418 118.021 220.5V250.217C118.021 250.258 118.013 250.299 117.997 250.337C117.981 250.375 117.958 250.41 117.929 250.439C117.9 250.468 117.865 250.491 117.827 250.507C117.789 250.523 117.748 250.531 117.707 250.531Z" fill="black"/>
<path d="M148.998 196.935C148.322 198.083 147.527 199.157 146.624 200.138C145.758 201.148 144.809 202.077 143.876 203.024C141.952 204.854 139.977 206.635 137.899 208.291C133.754 211.625 129.362 214.64 124.761 217.309C120.164 220.014 115.305 222.248 110.259 223.977C107.727 224.839 105.135 225.514 102.504 225.997C101.171 226.157 99.8432 226.417 98.5054 226.491C97.1662 226.53 95.8254 226.591 94.4861 226.608C89.1458 226.428 83.8401 225.677 78.6599 224.366C73.4889 223.115 68.3986 221.551 63.4172 219.683C58.4314 217.85 53.5356 215.79 48.6643 213.709C47.446 213.196 46.2246 212.671 44.9975 212.223C44.3969 212.012 43.7497 211.793 43.1069 211.527C42.8093 211.353 42.4973 211.201 42.2136 211.007C41.9345 210.806 41.6678 210.588 41.415 210.355C40.4477 209.387 39.7214 208.205 39.2946 206.905C38.8606 205.624 38.6207 204.285 38.5827 202.933L38.5861 202.972C35.3943 185.475 31.2961 168.156 26.3083 151.084C23.8808 142.533 21.1694 134.065 18.3835 125.627C15.5925 117.191 12.6172 108.818 9.45773 100.511C7.86349 96.3648 6.26633 92.2196 4.59201 88.1065C3.78171 86.0434 2.83151 84.0384 2.13034 81.8548C1.4354 79.6905 0.981316 77.4562 0.776334 75.1924C0.661555 74.0454 0.629084 72.8916 0.679166 71.7399C0.806319 70.4932 1.32104 69.3176 2.15095 68.3786C2.98086 67.4395 4.08421 66.7842 5.30587 66.5048C6.41509 66.2268 7.54528 66.0405 8.68503 65.9478C10.9882 65.7935 13.2987 66.1101 15.4756 66.8782L21.8142 68.9582L47.1694 77.2785C48.2546 77.5897 49.3135 77.9863 50.3361 78.4645C51.3592 78.9799 52.297 79.6493 53.1169 80.4493C54.7742 82.0472 55.8559 84.1489 56.1931 86.4263L58.0744 99.6386C58.0766 99.6549 58.0723 99.6713 58.0625 99.6845C58.0526 99.6976 58.038 99.7064 58.0218 99.7089C58.0056 99.7114 57.989 99.7075 57.9757 99.6979C57.9623 99.6884 57.9533 99.6739 57.9504 99.6578L55.7356 86.5016C55.3547 84.3509 54.2897 82.3805 52.699 80.8837C51.9143 80.1383 51.0197 79.5179 50.0466 79.0442C49.0477 78.595 48.0148 78.2254 46.9577 77.9386L21.4922 69.963L15.1257 67.9692C13.0859 67.2759 10.9257 67.0075 8.77829 67.1805C7.70219 67.286 6.63534 67.4706 5.58641 67.733C4.62427 67.9556 3.75599 68.4739 3.10347 69.2151C2.45095 69.9564 2.04695 70.8834 1.94821 71.866C1.91087 72.9367 1.94619 74.0087 2.05392 75.0746C2.25534 77.244 2.6955 79.3846 3.36642 81.4575C4.02756 83.5115 4.98727 85.5375 5.80832 87.6101C7.4941 91.7328 9.11806 95.8791 10.6802 100.049C16.9272 116.728 22.3999 133.665 27.0982 150.862C29.4451 159.448 31.6345 168.076 33.5757 176.761C35.625 185.422 37.3076 194.161 39.0178 202.894L39.0205 202.916L39.0213 202.933C39.0128 205.547 39.9881 208.068 41.7532 209.996C41.9885 210.21 42.2364 210.41 42.4954 210.595C42.7574 210.773 43.0498 210.904 43.3245 211.062C43.9087 211.29 44.521 211.49 45.1743 211.705C46.4433 212.144 47.6677 212.646 48.8992 213.14C53.8103 215.138 58.7229 217.106 63.7163 218.85C68.6984 220.604 73.7683 222.097 78.9053 223.325C84.0204 224.57 89.2469 225.301 94.5071 225.508C95.816 225.499 97.1243 225.447 98.4336 225.419C99.7395 225.356 101.025 225.109 102.323 224.964C104.908 224.506 107.456 223.86 109.946 223.031C114.939 221.338 119.762 219.182 124.352 216.59C128.961 214.006 133.374 211.086 137.555 207.855C139.666 206.264 141.678 204.546 143.642 202.777C144.594 201.861 145.565 200.962 146.451 199.982C147.37 199.036 148.186 197.995 148.886 196.877L148.89 196.871C148.899 196.857 148.913 196.846 148.929 196.842C148.945 196.838 148.962 196.841 148.976 196.849C148.99 196.858 149.001 196.871 149.005 196.887C149.009 196.904 149.006 196.921 148.998 196.935L148.998 196.935Z" fill="black"/>
<path d="M5.8272 72.2425L15.4446 75.618L25.0381 79.057L34.6201 82.5277L44.1851 86.0435C44.2663 86.0732 44.3388 86.1226 44.3963 86.1872C44.4538 86.2517 44.4945 86.3295 44.5147 86.4136L44.5166 86.4227C46.4295 94.6054 48.2676 102.805 50.031 111.022C51.8106 119.235 53.5169 127.464 55.366 135.661C59.0071 152.068 62.9844 168.399 66.8272 184.761C67.7443 188.799 69.419 192.627 71.7625 196.041C74.1018 199.437 77.162 202.276 80.7247 204.354C84.2983 206.387 88.3277 207.483 92.4385 207.542C94.514 207.528 96.5873 207.407 98.6502 207.178C100.727 206.955 102.804 206.722 104.86 206.38C108.98 205.752 113.032 204.741 116.964 203.361C120.886 201.924 124.696 200.197 128.361 198.193C132.058 196.227 135.668 194.082 139.244 191.882C142.838 189.71 146.399 187.478 149.963 185.252C149.977 185.243 149.993 185.24 150.01 185.243C150.026 185.247 150.04 185.257 150.049 185.271C150.058 185.284 150.061 185.301 150.058 185.317C150.054 185.334 150.045 185.348 150.031 185.357C143.063 190.054 136.13 194.816 128.785 198.966C125.118 201.072 121.29 202.886 117.338 204.39C113.361 205.864 109.25 206.948 105.063 207.626C102.976 207.98 100.876 208.222 98.7768 208.454C96.6643 208.695 94.5406 208.825 92.4145 208.844C88.0795 208.81 83.8272 207.654 80.0713 205.489C76.4047 203.245 73.243 200.265 70.7857 196.738C68.3283 193.211 66.6286 189.212 65.7937 184.995C62.1997 168.577 58.7402 152.129 54.9446 135.757C53.0754 127.564 51.0635 119.404 49.1245 111.227C47.1782 103.052 45.2979 94.8621 43.4836 86.6571L43.8152 87.036L34.2827 83.4326L24.7671 79.7842L15.2634 76.104L5.78319 72.3602C5.76787 72.3542 5.75554 72.3424 5.74884 72.3274C5.74215 72.3123 5.74162 72.2953 5.74738 72.2798C5.75314 72.2644 5.76472 72.2519 5.77963 72.2449C5.79455 72.2379 5.81161 72.2371 5.82713 72.2426L5.8272 72.2425Z" fill="black"/>
<path d="M116.912 23.7878C114.277 22.1882 113.613 17.3685 115.644 14.1425C118.205 10.0744 121.068 17.4573 121.068 17.4573C125.739 24.3881 135.231 5.85565 135.231 5.85565C135.231 5.85565 127.698 -3.6366 110.521 2.69157C93.3447 9.01974 105.097 30.5656 105.097 30.5656C105.097 30.5656 87.1672 39.0032 93.1941 61.4531C93.1941 61.4531 109.216 57.7248 108.261 30.9847C108.261 30.9847 114.966 28.3432 116.912 23.7878" fill="black"/>
<path d="M118.789 24.2657C117.831 24.5024 116.819 24.3573 115.966 23.8612C115.931 23.8396 115.9 23.8112 115.875 23.7777C115.851 23.7441 115.833 23.7061 115.823 23.6657C115.813 23.6253 115.811 23.5834 115.818 23.5423C115.824 23.5013 115.838 23.4618 115.86 23.4263C115.882 23.3908 115.91 23.3599 115.944 23.3353C115.977 23.3108 116.015 23.2931 116.056 23.2832C116.096 23.2734 116.138 23.2716 116.179 23.278C116.22 23.2843 116.259 23.2987 116.295 23.3203C116.318 23.3348 116.339 23.3517 116.358 23.3707C117.024 23.9698 117.894 24.2902 118.789 24.2657Z" fill="black"/>
<path d="M134.743 6.82493C135.766 8.4623 136.566 10.2288 137.123 12.0776C137.719 13.951 137.944 15.9227 137.785 17.8822L137.664 17.5262C138.237 18.1284 138.796 18.7441 139.348 19.3665L141.001 21.2684C141.146 21.4605 141.25 21.6801 141.307 21.9138C141.364 22.1475 141.373 22.3905 141.333 22.6277C141.293 22.8649 141.205 23.0915 141.074 23.2935C140.944 23.4955 140.773 23.6688 140.573 23.8027C140.234 24.0627 139.871 24.2907 139.489 24.4837C139.292 24.6068 139.07 24.6843 138.839 24.7105C138.608 24.7367 138.375 24.711 138.155 24.6351L138.374 24.5034C138.349 27.2147 138.064 29.9173 137.523 32.5741C137.24 33.9606 136.652 35.2668 135.801 36.3976C135.303 37.0161 134.6 37.4363 133.82 37.5824C133.427 37.6278 133.03 37.6118 132.642 37.5349L131.675 37.3685C130.416 37.1427 129.127 37.1431 127.868 37.3698C126.631 37.6266 125.486 38.2132 124.554 39.0675C122.739 40.9937 121.338 43.2719 120.438 45.7612C120.433 45.7736 120.423 45.7836 120.411 45.789C120.399 45.7943 120.385 45.7947 120.373 45.7899C120.362 45.7852 120.352 45.7765 120.347 45.7655C120.341 45.7545 120.34 45.7419 120.343 45.73C120.667 44.4129 121.115 43.1291 121.679 41.8955C122.232 40.6222 123.005 39.4561 123.962 38.4505C124.962 37.4138 126.24 36.6882 127.643 36.3609C129.027 36.0681 130.455 36.0543 131.844 36.3203L132.858 36.5263C133.128 36.5884 133.406 36.6102 133.683 36.591C134.236 36.4956 134.738 36.2062 135.098 35.7747C135.889 34.7674 136.466 33.6095 136.795 32.3716C137.567 29.8153 137.997 27.168 138.073 24.4988C138.074 24.4584 138.092 24.4202 138.122 24.3927C138.151 24.3651 138.191 24.3505 138.231 24.352C138.252 24.3531 138.273 24.3581 138.292 24.367C138.469 24.4151 138.655 24.4246 138.837 24.3948C139.018 24.365 139.191 24.2967 139.344 24.1944C139.699 24.0003 140.032 23.7688 140.337 23.5037C140.479 23.3992 140.599 23.2663 140.687 23.1135C140.775 22.9606 140.831 22.791 140.851 22.6154C140.87 22.4398 140.853 22.2621 140.801 22.0935C140.748 21.9249 140.661 21.769 140.545 21.6358L138.771 19.9149C138.177 19.3328 137.59 18.744 137.017 18.1416C136.974 18.0967 136.941 18.0434 136.921 17.985C136.9 17.9266 136.891 17.8645 136.895 17.8026L136.897 17.7854C136.976 16.8666 136.974 15.9426 136.89 15.0242C136.793 14.0946 136.64 13.1719 136.431 12.2611C135.992 10.4182 135.398 8.61582 134.655 6.87317C134.652 6.86722 134.651 6.86078 134.65 6.8542C134.65 6.84762 134.651 6.84103 134.653 6.83482C134.655 6.82861 134.659 6.82289 134.663 6.81799C134.668 6.8131 134.673 6.80912 134.679 6.80628C134.69 6.80159 134.702 6.80087 134.714 6.80427C134.726 6.80767 134.736 6.81496 134.743 6.82493Z" fill="black"/>
<path d="M132.029 14.2179C132.596 13.6463 133.355 13.3052 134.159 13.2607C134.952 13.184 135.75 13.3608 136.437 13.7658C135.644 13.8265 134.931 13.8213 134.213 13.8858C133.479 13.9504 132.75 14.0613 132.029 14.2179Z" fill="black"/>
<path d="M133.951 18.0976C134.195 18.0892 134.426 17.9863 134.596 17.8106C134.765 17.6349 134.86 17.4002 134.86 17.1559C134.86 16.9117 134.765 16.677 134.596 16.5013C134.426 16.3256 134.195 16.2227 133.951 16.2142C133.706 16.2227 133.475 16.3256 133.305 16.5013C133.136 16.677 133.041 16.9117 133.041 17.1559C133.041 17.4002 133.136 17.6349 133.305 17.8106C133.475 17.9863 133.706 18.0892 133.951 18.0976Z" fill="black"/>
<path d="M121.746 28.9083C122.624 29.9756 123.424 31.0549 124.278 32.0903C125.117 33.1435 126.047 34.1207 127.057 35.0104C125.767 34.4704 124.641 33.6007 123.793 32.4884C122.909 31.4222 122.216 30.2109 121.746 28.9083Z" fill="black"/>
<path d="M57.2844 95.563C57.908 92.6665 58.6655 89.8543 59.4834 87.0302C60.3113 84.2163 61.176 81.4088 62.177 78.6475C64.1228 73.0912 66.4486 67.6755 69.138 62.4386C70.509 59.8193 72.0244 57.2782 73.677 54.8268C75.3176 52.3433 77.175 50.0101 79.2273 47.8544C81.2808 45.6446 83.6508 43.7515 86.2598 42.2372C88.9215 40.7007 91.9023 39.8003 94.9695 39.6065L94.9778 39.6061C95.0299 39.6037 95.0821 39.6061 95.1338 39.6133C98.1011 40.0459 101.041 40.5567 103.976 41.1355C106.911 41.7079 109.838 42.3272 112.747 43.046C115.695 43.7016 118.575 44.6328 121.349 45.8273C122.723 46.509 123.97 47.2301 125.324 47.8755L129.359 49.8062C130.721 50.4504 132.039 51.1831 133.305 51.9994C134.606 52.8159 135.732 53.8834 136.616 55.1397C138.353 57.5138 140.392 59.7202 142.344 61.9597C146.292 66.4203 150.317 70.8141 154.418 75.1413C154.487 75.2144 154.531 75.3077 154.543 75.4075C154.555 75.5073 154.535 75.6084 154.485 75.6959L154.481 75.7028C152.96 78.3816 151.319 80.9623 149.596 83.5034C147.869 86.0394 146.036 88.5086 144.069 90.8803C142.097 93.2689 139.934 95.4931 137.602 97.5308C135.241 99.67 132.468 101.304 129.452 102.332L129.854 102.093C127.675 104.309 125.446 106.436 123.095 108.476C121.918 109.492 120.713 110.483 119.423 111.406C118.77 111.881 118.088 112.317 117.382 112.71C116.568 113.219 115.633 113.505 114.673 113.54L115.728 112.313C116.228 114.505 116.747 116.701 117.291 118.881L118.132 122.137C118.274 122.676 118.424 123.213 118.58 123.737C118.716 124.223 118.881 124.7 119.072 125.168L119.095 125.218C119.151 125.344 119.182 125.479 119.185 125.616C119.189 125.754 119.166 125.891 119.117 126.019C119.067 126.147 118.994 126.265 118.899 126.364C118.805 126.464 118.691 126.544 118.566 126.6C118.462 126.646 118.351 126.675 118.237 126.686C111.237 127.344 104.249 127.793 97.2316 128.037C90.2017 128.324 83.1606 128.162 76.1513 127.554C74.3944 127.37 72.6378 127.149 70.8888 126.812C69.1112 126.508 67.3715 126.014 65.6998 125.337C64.823 124.979 64.0042 124.493 63.2701 123.894C62.8816 123.562 62.55 123.168 62.2882 122.728C62.0375 122.285 61.8993 121.899 61.7001 121.481C60.9943 119.847 60.4172 118.16 59.974 116.435C59.102 113.024 58.4699 109.557 58.0821 106.058C57.6736 102.567 57.4036 99.0928 57.2844 95.563ZM57.4834 95.5818C58.0027 102.531 59.1896 109.414 61.0276 116.136C61.5082 117.786 62.1167 119.396 62.8477 120.951C63.0359 121.316 63.2178 121.749 63.4102 122.059C63.6085 122.364 63.8546 122.636 64.1392 122.863C64.782 123.347 65.492 123.734 66.2466 124.013C69.5011 125.081 72.8827 125.714 76.3032 125.894C83.2473 126.33 90.2106 126.373 97.1594 126.021C104.122 125.749 111.098 125.271 118.023 124.591L117.188 126.11C116.938 125.538 116.727 124.949 116.557 124.348C116.388 123.791 116.232 123.24 116.084 122.688C115.78 121.586 115.518 120.482 115.253 119.379C114.728 117.171 114.232 114.965 113.752 112.748C113.724 112.618 113.721 112.483 113.745 112.352C113.769 112.221 113.818 112.096 113.891 111.984C113.963 111.872 114.056 111.775 114.166 111.699C114.275 111.624 114.399 111.57 114.529 111.542C114.62 111.523 114.714 111.516 114.807 111.521C115.384 111.449 115.94 111.255 116.435 110.95C117.075 110.602 117.693 110.216 118.287 109.793C119.506 108.941 120.688 107.993 121.847 107.015C124.159 105.053 126.402 102.96 128.554 100.819L128.561 100.812C128.672 100.703 128.808 100.624 128.957 100.58C131.745 99.6569 134.322 98.1881 136.537 96.2593C138.839 94.3198 140.983 92.2004 142.949 89.921C144.946 87.6513 146.828 85.2678 148.609 82.8096C150.389 80.3535 152.09 77.8201 153.649 75.2284L153.712 75.7896C149.753 71.3273 145.778 66.8834 141.85 62.3939C139.9 60.1294 137.937 57.9044 136.098 55.5065C134.428 53.1107 131.676 51.7625 129.034 50.4789C126.358 49.2267 123.584 47.9971 120.94 46.6865C118.198 45.6129 115.361 44.7969 112.468 44.249C106.67 42.9956 100.767 42.1524 94.8991 41.2863L95.0629 41.2931C92.2621 41.5002 89.5472 42.3525 87.1306 43.7833C84.6833 45.2344 82.442 47.0076 80.4668 49.0553C78.4547 51.1189 76.6297 53.3569 75.0131 55.743C73.3635 58.1278 71.8475 60.6024 70.4721 63.1553C67.6857 68.274 65.2355 73.5686 63.137 79.0056C61.0032 84.4322 59.0994 89.989 57.4834 95.5818L57.4834 95.5818Z" fill="black"/>
<path d="M129.204 101.456C128.491 99.8309 127.82 98.1926 127.142 96.5583C126.461 94.9254 125.82 93.2773 125.113 91.6575C124.458 90.0167 123.754 88.3965 123.023 86.7924C122.669 85.9843 122.284 85.1927 121.867 84.4176C121.672 84.0234 121.454 83.6417 121.212 83.2746C121.097 83.0875 120.973 82.9065 120.839 82.7325L120.39 82.2456C121.687 83.4754 122.729 84.9483 123.457 86.5804C124.285 88.1561 124.989 89.7879 125.692 91.4165C126.353 93.0636 127.005 94.713 127.591 96.3868C128.177 98.0603 128.734 99.7439 129.204 101.456Z" fill="black"/>
<path d="M119.26 132.734C119.201 132.734 119.142 132.717 119.092 132.685C119.042 132.653 119.002 132.607 118.976 132.553L115.87 125.959C115.852 125.922 115.842 125.882 115.84 125.84C115.837 125.799 115.844 125.758 115.857 125.719C115.871 125.68 115.893 125.644 115.921 125.613C115.948 125.583 115.982 125.558 116.019 125.54C116.057 125.523 116.097 125.512 116.139 125.511C116.18 125.509 116.221 125.515 116.26 125.529C116.299 125.543 116.335 125.565 116.365 125.593C116.396 125.621 116.421 125.654 116.438 125.692L119.544 132.286C119.567 132.334 119.577 132.386 119.573 132.439C119.57 132.492 119.554 132.543 119.525 132.588C119.497 132.632 119.458 132.669 119.411 132.695C119.365 132.72 119.313 132.734 119.26 132.734Z" fill="black"/>
<path d="M62.8781 122.701L66.67 136.657C64.6861 129.657 63.2798 124.251 62.8781 122.701Z" fill="black"/>
<path d="M196.78 210.395C194.66 214.125 195.64 221.795 195.2 224.405C194.602 228.095 193.199 231.609 191.089 234.695C190.519 230.305 189.849 225.925 189.159 221.545C188.47 217.175 187.689 212.815 186.97 208.445C186.16 204.095 185.399 199.725 184.55 195.385L183.26 188.865C182.79 186.695 182.359 184.525 181.859 182.365C182.139 184.565 182.47 186.755 182.779 188.955L183.789 195.515C184.48 199.895 185.25 204.255 185.98 208.615C186.789 212.975 187.55 217.335 188.399 221.685C189.25 226.025 190.109 230.375 191.089 234.695C186.349 241.645 178.369 246.035 169.47 249.385C162.801 251.88 155.933 253.807 148.94 255.145C143.82 210.165 151.81 178.525 151.81 178.525C151.81 178.525 150.9 177.395 147.74 177.395C144.57 177.395 135.76 182.595 135.76 182.595C102.309 202.935 91.9095 191.635 83.9996 183.045C78.8094 177.405 71.2596 152.905 66.6996 136.785C97.4396 148.085 114.51 132.415 117.71 132.415C118.72 132.415 123.67 131.895 130.57 131.235C131.382 132.065 132.015 133.054 132.428 134.14C132.841 135.225 133.025 136.385 132.97 137.545C135.83 141.605 139.3 134.825 137.79 132.415C137.451 131.863 137.189 131.268 137.01 130.645C138.38 130.525 139.8 130.395 141.25 130.275C143.66 133.575 146.45 138.455 148.94 140.855C153.31 145.075 154.07 138.295 154.07 138.295C159.49 142.215 159.49 135.285 159.49 135.285C164.31 138.145 162.65 131.235 162.65 131.235C162.98 130.947 163.225 130.573 163.355 130.155C163.486 129.737 163.498 129.29 163.39 128.865C169.545 128.559 175.715 128.646 181.86 129.125C200.62 131.025 218.48 185.755 218.48 185.755C219.16 195.475 204.46 196.835 196.78 210.395Z" fill="black"/>
<path d="M89.4693 225.73C90.1687 230.093 90.5999 234.476 91.0547 238.857C91.4776 243.241 91.6787 247.643 91.9517 252.038L92.7862 265.224L93.5582 278.414C93.5592 278.43 93.5537 278.446 93.5428 278.459C93.532 278.471 93.5168 278.479 93.5004 278.48C93.4839 278.481 93.4677 278.476 93.4551 278.466C93.4425 278.455 93.4345 278.44 93.4329 278.424L92.1605 265.272L90.9503 252.116C90.5421 247.731 90.0618 243.351 89.8031 238.955C89.5765 234.555 89.3261 230.158 89.3441 225.74C89.344 225.724 89.35 225.709 89.3608 225.697C89.3716 225.685 89.3863 225.678 89.4022 225.677C89.418 225.676 89.4337 225.681 89.4462 225.69C89.4586 225.7 89.4669 225.715 89.4693 225.73H89.4693Z" fill="black"/>
<path d="M103.201 225.382C103.643 229.795 103.815 234.213 104.011 238.63C104.175 243.048 104.116 247.47 104.13 251.892L104.187 265.154L104.18 278.418C104.181 278.434 104.174 278.45 104.163 278.462C104.151 278.474 104.135 278.48 104.119 278.481C104.102 278.481 104.086 278.475 104.074 278.463C104.062 278.452 104.055 278.436 104.055 278.42L103.559 265.166L103.126 251.91C102.977 247.492 102.755 243.074 102.756 238.653C102.788 234.231 102.797 229.81 103.076 225.384C103.077 225.368 103.084 225.353 103.095 225.343C103.107 225.332 103.122 225.326 103.137 225.325C103.153 225.325 103.168 225.331 103.18 225.341C103.192 225.351 103.2 225.366 103.201 225.382Z" fill="black"/>
<path d="M98.6493 288.998C115.75 288.998 129.612 283.382 129.612 276.454C129.612 269.527 115.75 263.911 98.6493 263.911C81.549 263.911 67.6865 269.527 67.6865 276.454C67.6865 283.382 81.549 288.998 98.6493 288.998Z" fill="black"/>
<path d="M114.74 112.53C114.084 112.997 113.323 113.293 112.524 113.392C112.114 113.45 111.697 113.434 111.292 113.347C111.075 113.316 110.872 113.223 110.708 113.078C110.544 112.932 110.427 112.742 110.371 112.53C110.504 112.651 110.66 112.742 110.83 112.799C111 112.856 111.18 112.877 111.359 112.861C111.723 112.852 112.085 112.822 112.445 112.77C113.205 112.65 113.971 112.57 114.74 112.53Z" fill="black"/>
<path d="M128.525 102.121C131.83 104.263 135.126 106.422 138.459 108.497C139.295 109.01 140.134 109.522 140.985 109.994C141.406 110.241 141.839 110.451 142.261 110.673C142.462 110.757 142.698 110.88 142.868 110.933C142.944 110.951 143.019 110.973 143.091 111C143.259 111.031 143.428 111.07 143.594 111.117C144.533 111.512 145.442 111.977 146.312 112.506C147.171 113.008 148.016 113.526 148.849 114.061C152.209 116.169 155.389 118.55 158.358 121.181C159.882 122.498 161.226 124.008 162.356 125.675L162.738 126.355L163.044 127.021C163.273 127.478 163.469 127.951 163.63 128.437C163.791 128.962 163.814 129.521 163.696 130.058C163.563 130.598 163.262 131.082 162.838 131.442L162.92 131.175C163.047 131.814 163.126 132.461 163.158 133.111C163.207 133.778 163.128 134.448 162.923 135.084C162.87 135.254 162.786 135.413 162.677 135.554L162.513 135.772L162.283 135.939C162.132 136.049 161.956 136.12 161.77 136.144C161.596 136.187 161.415 136.192 161.239 136.16C160.902 136.121 160.572 136.035 160.259 135.903L159.389 135.451L159.686 135.282C159.664 136.018 159.55 136.748 159.346 137.456C159.164 138.202 158.733 138.864 158.125 139.332C157.79 139.534 157.414 139.656 157.024 139.689C156.635 139.722 156.243 139.666 155.879 139.525C155.531 139.394 155.19 139.244 154.858 139.074L153.927 138.487L154.3 138.321C154.203 139.506 153.808 140.647 153.152 141.638C152.961 141.905 152.712 142.125 152.424 142.283C152.136 142.441 151.816 142.532 151.488 142.549L150.992 142.511C150.838 142.473 150.692 142.412 150.541 142.362C150.252 142.257 149.977 142.115 149.724 141.94C148.771 141.258 147.918 140.447 147.188 139.531C146.452 138.648 145.762 137.736 145.105 136.806C143.789 134.948 142.554 133.046 141.241 131.227C140.609 130.32 139.919 129.456 139.174 128.639C138.836 128.263 138.444 127.937 138.013 127.672C137.859 127.572 137.682 127.514 137.499 127.503C137.369 127.505 137.246 127.557 137.154 127.648L137.345 127.293C137.215 128.497 137.355 129.716 137.754 130.86C137.856 131.14 137.977 131.413 138.117 131.676C138.187 131.807 138.261 131.935 138.34 132.06C138.431 132.236 138.525 132.441 138.609 132.634C138.831 133.372 138.875 134.152 138.737 134.91C138.503 136.371 137.794 137.714 136.721 138.733C136.403 139.03 136.017 139.245 135.597 139.359C135.178 139.474 134.736 139.484 134.312 139.39C133.537 139.127 132.874 138.61 132.431 137.922C132.348 137.821 132.304 137.693 132.31 137.562L132.313 137.486C132.377 135.989 132.028 134.503 131.304 133.192C131.118 132.87 130.909 132.563 130.678 132.273C130.438 131.97 130.21 131.755 129.893 131.405C129.301 130.766 128.81 130.04 128.436 129.253C127.748 127.709 127.34 126.055 127.229 124.368C127.102 122.725 127.116 121.074 127.271 119.434L127.3 119.616C126.799 118.661 126.054 117.856 125.14 117.283C124.2 116.663 123.169 116.192 122.085 115.885C120.993 115.552 119.872 115.32 118.736 115.193C118.165 115.149 117.592 115.09 117.018 115.059L115.289 115.016C115.272 115.017 115.256 115.011 115.244 115C115.232 114.988 115.224 114.973 115.224 114.956C115.224 114.94 115.23 114.924 115.241 114.912C115.252 114.9 115.267 114.893 115.283 114.891L117.022 114.808C117.602 114.804 118.184 114.831 118.766 114.841C119.936 114.904 121.097 115.075 122.236 115.351C123.394 115.623 124.503 116.075 125.523 116.689C126.041 117.003 126.522 117.374 126.958 117.794C127.427 118.224 127.812 118.737 128.096 119.306C128.117 119.35 128.127 119.398 128.125 119.446L128.124 119.489C128.045 121.083 128.084 122.68 128.24 124.268C128.38 125.822 128.793 127.338 129.461 128.747C129.8 129.419 130.24 130.034 130.765 130.573C130.995 130.821 131.364 131.158 131.633 131.486C131.917 131.821 132.172 132.18 132.395 132.559C133.271 134.089 133.699 135.835 133.629 137.597L133.511 137.162C133.865 137.58 134.25 138.032 134.651 138.09C134.868 138.129 135.09 138.115 135.3 138.048C135.509 137.982 135.699 137.865 135.853 137.708C136.684 136.892 137.233 135.833 137.421 134.685C137.519 134.149 137.501 133.598 137.367 133.07L137.228 132.75C137.133 132.595 137.045 132.438 136.963 132.278C136.8 131.96 136.659 131.63 136.542 131.292C136.088 129.944 135.947 128.51 136.131 127.099C136.147 126.968 136.209 126.848 136.305 126.758L136.322 126.743C136.648 126.445 137.075 126.281 137.517 126.286C137.902 126.302 138.276 126.418 138.603 126.622C139.137 126.952 139.619 127.359 140.033 127.83C140.803 128.697 141.515 129.615 142.165 130.576C143.455 132.462 144.638 134.392 145.893 136.262C146.523 137.195 147.153 138.125 147.837 139.006C148.486 139.889 149.252 140.679 150.114 141.354C150.319 141.511 150.545 141.638 150.784 141.735C150.9 141.777 151.016 141.833 151.132 141.867L151.482 141.905C151.719 141.898 151.951 141.837 152.161 141.727C152.371 141.617 152.554 141.461 152.695 141.271C153.315 140.379 153.705 139.348 153.83 138.269C153.841 138.205 153.876 138.148 153.928 138.11C153.98 138.073 154.045 138.057 154.109 138.067C154.143 138.073 154.175 138.086 154.203 138.104L155.082 138.675C155.385 138.835 155.698 138.977 156.017 139.103C156.318 139.228 156.644 139.282 156.969 139.262C157.295 139.242 157.611 139.147 157.894 138.985C158.428 138.574 158.809 137.995 158.973 137.34C159.18 136.674 159.287 135.98 159.292 135.282C159.293 135.248 159.302 135.216 159.318 135.187C159.335 135.157 159.358 135.133 159.387 135.116C159.415 135.098 159.448 135.088 159.481 135.086C159.514 135.085 159.548 135.092 159.578 135.107L159.59 135.113L160.416 135.525C160.691 135.635 160.979 135.706 161.272 135.736C161.541 135.777 161.815 135.716 162.041 135.566C162.267 135.415 162.429 135.186 162.496 134.923C162.667 134.344 162.726 133.737 162.67 133.136C162.632 132.518 162.537 131.904 162.387 131.303C162.375 131.255 162.377 131.205 162.391 131.158C162.406 131.111 162.433 131.068 162.469 131.035C162.788 130.734 163.007 130.343 163.1 129.914C163.192 129.485 163.153 129.038 162.987 128.632C162.817 128.191 162.617 127.761 162.387 127.347L162.048 126.686L161.68 126.094C160.529 124.547 159.183 123.156 157.674 121.956C154.675 119.444 151.535 117.106 148.271 114.951C146.685 113.855 145.019 112.88 143.288 112.034C143.215 112.017 143.145 111.992 143.077 111.961C142.938 111.931 142.745 111.892 142.585 111.846C142.289 111.745 142.091 111.628 141.84 111.518C141.393 111.278 140.953 111.03 140.534 110.766C139.682 110.249 138.86 109.702 138.038 109.153C134.758 106.952 131.579 104.624 128.452 102.223C128.44 102.213 128.431 102.199 128.428 102.183C128.426 102.166 128.43 102.15 128.439 102.137C128.449 102.123 128.463 102.114 128.479 102.111C128.495 102.108 128.512 102.112 128.525 102.121L128.525 102.121Z" fill="black"/>
<path d="M142.614 124.584C144.802 126.618 146.877 128.77 148.829 131.031C150.798 133.286 152.634 135.654 154.328 138.123C154.373 138.192 154.39 138.276 154.374 138.357C154.359 138.438 154.312 138.509 154.244 138.556C154.176 138.602 154.092 138.62 154.011 138.606C153.93 138.592 153.858 138.546 153.81 138.479L153.802 138.467C152.206 135.956 150.465 133.541 148.589 131.232C146.72 128.909 144.726 126.689 142.614 124.584Z" fill="black"/>
<path d="M148.942 123.228C152.738 126.998 156.341 130.957 159.737 135.089C159.789 135.154 159.813 135.237 159.804 135.319C159.795 135.401 159.754 135.477 159.69 135.529C159.626 135.581 159.543 135.606 159.461 135.598C159.379 135.59 159.303 135.549 159.25 135.486L159.241 135.474C156.016 131.222 152.579 127.134 148.942 123.228Z" fill="black"/>
<path d="M153.462 122.249C155.076 123.661 156.676 125.09 158.263 126.534L160.622 128.726C161.398 129.474 162.172 130.209 162.899 131.043C162.954 131.106 162.981 131.188 162.975 131.271C162.97 131.354 162.931 131.432 162.868 131.486C162.806 131.541 162.724 131.569 162.641 131.563C162.557 131.557 162.48 131.519 162.425 131.456L162.416 131.445L162.408 131.434C161.765 130.618 161.021 129.835 160.289 129.059L158.046 126.761C156.534 125.242 155.006 123.738 153.462 122.249Z" fill="black"/>
<path d="M134.83 98.6341C135.639 99.6399 136.539 100.569 137.518 101.41C138.481 102.283 139.457 103.142 140.446 103.987L146.431 109.003C150.429 112.338 154.516 115.573 158.556 118.852L158.613 118.903L158.626 118.916C160.387 120.755 162.388 122.35 164.573 123.658C166.76 124.934 169.133 125.858 171.607 126.396C176.585 127.482 181.775 127.045 186.502 125.142C188.817 124.196 191.156 122.844 193.54 121.764C195.909 120.619 198.336 119.593 200.773 118.603C203.226 117.645 205.708 116.767 208.228 116.003C210.752 115.199 213.347 114.639 215.978 114.332C216.009 114.329 216.041 114.332 216.072 114.342L216.083 114.346C218.384 115.11 220.789 115.517 223.214 115.551C225.621 115.6 228.004 115.076 230.168 114.022C231.239 113.447 232.268 112.798 233.248 112.079C234.446 111.499 235.794 111.302 237.107 111.514C238.358 111.647 239.594 111.892 240.8 112.247C241.063 112.337 241.332 112.404 241.606 112.447C241.842 112.475 242.082 112.46 242.312 112.402C242.752 112.278 243.135 112.006 243.398 111.633L243.649 111.398C243.602 111.421 243.559 111.451 243.52 111.487C243.425 111.574 243.361 111.691 243.339 111.818C243.322 111.913 243.328 112.01 243.356 112.102C243.384 112.194 243.434 112.278 243.501 112.347L243.412 111.611C243.568 111.302 243.629 110.954 243.588 110.61C243.568 110.418 243.531 110.227 243.478 110.041C243.426 109.859 243.359 109.681 243.276 109.51C243.237 109.432 243.214 109.347 243.208 109.26C243.202 109.173 243.214 109.085 243.243 109.003L243.258 108.963C243.428 108.181 243.376 107.367 243.108 106.613C242.859 105.757 242.533 104.926 242.135 104.129C242.09 104.038 242.064 103.938 242.058 103.836C242.052 103.734 242.067 103.632 242.101 103.536L242.118 103.489C242.238 103.176 242.292 102.841 242.278 102.507C242.242 102.147 242.149 101.796 242.002 101.467C241.84 101.11 241.637 100.772 241.399 100.461C241.163 100.144 240.898 99.8505 240.609 99.5825C240.483 99.4699 240.395 99.3214 240.357 99.1572C240.318 98.993 240.332 98.8209 240.394 98.6643L240.414 98.6166C240.671 98.0008 240.685 97.3101 240.452 96.6847C240.13 96.0834 239.591 95.6274 238.945 95.4102C237.375 94.9175 235.71 94.8103 234.09 95.0979C230.605 95.5835 227.173 96.3905 223.836 97.5086L223.828 97.5111C223.717 97.5465 223.6 97.5622 223.483 97.5576C220.37 97.4273 217.222 98.8034 213.975 99.8176C212.333 100.329 210.783 100.903 208.976 101.283C207.242 101.645 205.54 101.829 203.83 102.026C197.004 102.662 190.203 102.882 183.396 102.962L180.844 102.987L179.568 102.994L178.93 102.997C178.708 102.997 178.449 102.99 178.211 102.968C176.745 102.831 175.369 102.203 174.304 101.187C173.946 100.833 173.702 100.557 173.396 100.238L166.436 92.7938C161.8 87.8273 157.199 82.8277 152.631 77.795C152.613 77.7758 152.604 77.7505 152.605 77.7245C152.606 77.6986 152.617 77.6739 152.635 77.6558C152.654 77.6377 152.679 77.6276 152.705 77.6277C152.731 77.6277 152.756 77.6379 152.775 77.6561C157.661 82.3801 162.508 87.1426 167.315 91.9436L174.529 99.1424C174.817 99.4292 175.15 99.778 175.402 100.014C176.216 100.753 177.254 101.197 178.351 101.274C178.688 101.3 179.105 101.273 179.539 101.264L180.81 101.226L183.352 101.14C190.122 100.86 196.911 100.595 203.607 99.895C205.27 99.7064 206.951 99.5247 208.544 99.1928C210.065 98.8844 211.718 98.2941 213.317 97.7954C214.93 97.2784 216.538 96.7394 218.223 96.2716C219.953 95.7454 221.758 95.5054 223.566 95.5611L223.212 95.6101C224.968 95.0632 226.706 94.5975 228.484 94.1904C230.267 93.7699 232.073 93.4577 233.894 93.2554C234.83 93.1551 235.772 93.1207 236.712 93.1525C237.718 93.1859 238.709 93.4005 239.638 93.7861C240.69 94.1964 241.544 94.9976 242.019 96.0224C242.234 96.5572 242.326 97.1338 242.287 97.7089C242.255 98.2667 242.121 98.8139 241.892 99.3234L241.697 98.3579C242.067 98.7098 242.401 99.0967 242.696 99.5131C242.997 99.9282 243.25 100.376 243.45 100.848C243.66 101.351 243.784 101.885 243.819 102.429C243.834 103 243.726 103.568 243.502 104.094L243.486 103.454C243.909 104.354 244.242 105.293 244.48 106.258C244.607 106.757 244.685 107.267 244.714 107.781C244.761 108.355 244.678 108.931 244.472 109.469L244.453 108.922C244.68 109.428 244.815 109.971 244.85 110.525C244.892 111.12 244.755 111.715 244.456 112.231L244.367 111.496C244.436 111.567 244.486 111.653 244.515 111.747C244.544 111.841 244.55 111.94 244.533 112.037C244.51 112.169 244.444 112.289 244.345 112.379C244.3 112.421 244.249 112.456 244.193 112.483L244.444 112.248C244.238 112.588 243.95 112.871 243.606 113.071C243.287 113.272 242.941 113.423 242.577 113.519C242.209 113.598 241.829 113.609 241.457 113.551C241.127 113.49 240.802 113.401 240.488 113.284C239.352 112.911 238.186 112.641 237.002 112.477C235.888 112.256 234.733 112.372 233.686 112.812C232.666 113.509 231.6 114.137 230.495 114.691C228.221 115.769 225.723 116.29 223.207 116.212C220.723 116.133 218.262 115.703 215.899 114.934L216.003 114.948C213.429 115.262 210.895 115.848 208.445 116.698C205.965 117.497 203.543 118.471 201.154 119.513C198.778 120.587 196.418 121.697 194.113 122.919C191.767 124.087 189.61 125.463 187.117 126.6C182.119 128.804 176.546 129.344 171.218 128.142C168.57 127.54 166.034 126.525 163.702 125.134C161.402 123.724 159.311 121.998 157.49 120.007L157.559 120.071C153.548 116.728 149.635 113.28 145.732 109.815C143.777 108.087 141.859 106.317 139.978 104.503C139.032 103.603 138.102 102.685 137.186 101.751C136.738 101.272 136.276 100.812 135.852 100.308L135.216 99.556C135.017 99.2898 134.839 99.0018 134.653 98.7285C134.639 98.7068 134.634 98.6804 134.638 98.6548C134.643 98.6292 134.658 98.6066 134.68 98.5918C134.701 98.5769 134.727 98.5711 134.753 98.5756C134.779 98.58 134.802 98.5943 134.817 98.6155L134.83 98.6341Z" fill="black"/>
<path d="M228.346 99.1207C230.443 98.4503 232.599 97.9836 234.786 97.727C235.889 97.5925 237.003 97.572 238.111 97.6661C239.265 97.7209 240.382 98.086 241.346 98.7229C241.413 98.7721 241.458 98.846 241.471 98.9283C241.484 99.0106 241.463 99.0946 241.414 99.1618C241.365 99.229 241.291 99.2739 241.208 99.2866C241.126 99.2993 241.042 99.2788 240.975 99.2296L240.959 99.2173C240.105 98.6038 239.102 98.2297 238.054 98.1335C236.98 97.991 235.893 97.9596 234.812 98.0398C232.627 98.1916 230.461 98.5536 228.346 99.1207Z" fill="black"/>
<path d="M231.208 102.806C233.175 102.379 235.174 102.125 237.185 102.046C238.201 102.012 239.218 102.074 240.223 102.231C241.296 102.348 242.297 102.83 243.056 103.597C243.112 103.659 243.14 103.741 243.135 103.824C243.13 103.908 243.092 103.985 243.03 104.041C242.999 104.068 242.963 104.089 242.924 104.102C242.885 104.116 242.843 104.122 242.802 104.119C242.719 104.114 242.641 104.076 242.586 104.014L242.574 104L242.564 103.986C241.92 103.293 241.062 102.838 240.128 102.692C239.16 102.489 238.174 102.378 237.185 102.36C235.184 102.334 233.184 102.484 231.208 102.806Z" fill="black"/>
<path d="M232.263 106.805C234.302 106.436 236.381 106.334 238.447 106.504C239.495 106.58 240.527 106.806 241.511 107.174C242.539 107.538 243.444 108.183 244.123 109.037C244.148 109.07 244.166 109.108 244.176 109.148C244.187 109.188 244.189 109.229 244.184 109.27C244.178 109.311 244.164 109.351 244.143 109.386C244.122 109.422 244.094 109.453 244.061 109.478C244.028 109.503 243.99 109.521 243.95 109.531C243.91 109.541 243.868 109.544 243.827 109.538C243.786 109.532 243.747 109.518 243.711 109.496C243.676 109.475 243.645 109.447 243.62 109.414L243.612 109.402L243.607 109.394C243.029 108.599 242.241 107.981 241.331 107.609C240.4 107.207 239.416 106.939 238.409 106.815C236.37 106.545 234.303 106.541 232.263 106.805Z" fill="black"/>
<path d="M199.82 6.27363V66.8432L283.895 74.3013V6.27363H199.82ZM274.628 65.2612L208.409 59.8369V14.4098L274.628 13.7318V65.2612Z" fill="black"/>
<path d="M213.403 19.3082C213.491 21.1619 213.568 22.9412 213.609 24.6915C213.653 26.4442 213.681 28.1677 213.614 29.9082L213.381 29.6744C214.875 29.7246 216.369 29.7989 217.863 29.8058C219.357 29.8207 220.851 29.7861 222.346 29.7364L222.174 29.9082C222.109 28.1378 222.061 26.3674 222.045 24.5972C222.011 22.8268 222.009 21.0564 222.026 19.2862L222.346 19.6056C220.892 19.612 219.431 19.5397 217.953 19.5038L213.403 19.3082ZM213.359 19.2638L217.773 19.0681C219.284 19.0323 220.811 18.9601 222.346 18.9664C222.43 18.9673 222.511 19.0012 222.571 19.061C222.63 19.1208 222.664 19.2016 222.665 19.2861C222.683 21.0564 222.681 22.8268 222.646 24.5971C222.63 26.3674 222.583 28.1378 222.517 29.9081L222.517 29.9201C222.516 29.9419 222.511 29.9633 222.502 29.9831C222.493 30.003 222.48 30.0208 222.465 30.0357C222.449 30.0505 222.43 30.0621 222.409 30.0697C222.389 30.0773 222.367 30.0808 222.346 30.08C220.851 30.0303 219.357 29.9958 217.863 30.0108C216.369 30.0175 214.875 30.0919 213.381 30.142C213.351 30.143 213.322 30.1382 213.294 30.1277C213.266 30.1173 213.241 30.1015 213.219 30.0812C213.197 30.061 213.18 30.0366 213.168 30.0096C213.155 29.9826 213.149 29.9534 213.148 29.9238L213.147 29.9081C213.08 28.1077 213.108 26.2906 213.153 24.5026C213.193 22.7121 213.271 20.9509 213.358 19.2638H213.359Z" fill="black"/>
<path d="M256.401 18.3713C256.556 21.9781 256.661 25.49 256.753 28.9741C256.861 32.4668 256.908 35.8983 256.948 39.3276C256.988 42.7545 256.934 46.1432 256.822 49.5499C256.728 52.9573 256.587 56.391 256.577 59.8399L256.35 59.6125C258.392 59.6409 260.433 59.5877 262.475 59.5793C264.517 59.5645 266.558 59.4863 268.6 59.4428L268.203 59.8399C268.09 56.3798 268.007 52.9198 267.954 49.4599L267.838 39.08C267.812 35.6199 267.821 32.1599 267.865 28.7L268.056 18.32L268.6 18.8638L262.608 18.6414L256.401 18.3713ZM256.299 18.2687L262.342 17.9987L268.6 17.7761C268.669 17.7737 268.738 17.7848 268.802 17.8089C268.867 17.833 268.926 17.8696 268.976 17.9166C269.027 17.9636 269.067 18.0201 269.096 18.0828C269.125 18.1455 269.141 18.2132 269.143 18.2821L269.143 18.2882L269.144 18.3201L269.336 28.7001C269.377 32.16 269.386 35.62 269.363 39.0801L269.246 49.46C269.189 52.9199 269.106 56.3799 268.997 59.84L268.997 59.8614C268.993 59.9636 268.95 60.0604 268.875 60.1307C268.801 60.201 268.702 60.2393 268.6 60.2372C266.558 60.1937 264.517 60.1155 262.475 60.1007C260.433 60.0923 258.392 60.0391 256.35 60.0674C256.321 60.0678 256.291 60.0624 256.264 60.0515C256.237 60.0406 256.212 60.0245 256.191 60.0039C256.17 59.9834 256.153 59.9589 256.141 59.9318C256.129 59.9047 256.123 59.8756 256.123 59.8462L256.123 59.84C256.113 56.3689 255.973 52.8826 255.878 49.37C255.766 45.8566 255.713 42.3253 255.752 38.8324C255.792 35.3416 255.839 31.8531 255.947 28.4259C256.039 24.99 256.144 21.5819 256.299 18.2687Z" fill="black"/>
<path d="M247.493 76.9993V71.0722L238.228 70.2502V76.0694C232.6 76.2213 228.408 77.7649 228.187 80.042C227.91 82.8995 233.988 85.8274 241.762 86.5819C249.537 87.3363 256.064 85.6313 256.341 82.7739C256.559 80.5302 252.857 78.2434 247.493 76.9993Z" fill="black"/>
<path d="M160.802 86.0802C165.4 83.1493 170.052 80.3073 174.719 77.4914C174.774 77.4594 174.838 77.4471 174.901 77.4568C179.219 78.1205 183.522 78.8815 187.823 79.6534C192.123 80.4361 196.437 81.1277 200.758 81.7768L213.719 83.732C218.035 84.4143 222.356 85.0626 226.665 85.7859C226.75 85.7998 226.826 85.8471 226.877 85.9172C226.927 85.9873 226.948 86.0746 226.934 86.1599C226.92 86.2426 226.875 86.3169 226.808 86.3676C223.608 88.77 220.386 91.1421 217.142 93.484L212.292 97.0195L207.411 100.514C207.405 100.519 207.396 100.521 207.388 100.519C207.38 100.518 207.373 100.514 207.368 100.507C207.363 100.5 207.361 100.492 207.362 100.484C207.363 100.476 207.367 100.469 207.374 100.464L212.103 96.7672L216.864 93.112C220.032 90.6682 223.217 88.2463 226.418 85.8465L226.561 86.4283C222.244 85.7541 217.939 85.005 213.629 84.2899L200.713 82.0528C196.408 81.3045 192.096 80.5987 187.77 79.984C183.445 79.3586 179.122 78.7221 174.815 77.9885L174.996 77.9538C170.303 80.7275 165.595 83.4753 160.834 86.134C160.827 86.138 160.818 86.139 160.81 86.1369C160.802 86.1348 160.796 86.1297 160.792 86.1227C160.787 86.1157 160.786 86.1073 160.788 86.0994C160.79 86.0914 160.795 86.0845 160.802 86.0802V86.0802Z" fill="black"/>
<path d="M166.376 91.8509C169.02 92.5276 171.645 93.27 174.266 94.0224L182.107 96.3539L189.906 98.8241C192.497 99.6728 195.086 100.531 197.655 101.456C195.01 100.78 192.385 100.038 189.764 99.2856L181.923 96.9532L174.125 94.4819C171.533 93.6335 168.944 92.7751 166.376 91.8509Z" fill="black"/>
<path d="M255.361 80.5854C256.947 80.37 258.551 80.3233 260.147 80.4463C261.787 80.525 263.393 80.9379 264.868 81.6596C265.639 82.0604 266.303 82.6389 266.806 83.3474C267.307 84.087 267.585 84.9552 267.605 85.8482C267.621 86.7055 267.492 87.5592 267.225 88.3739C266.988 89.2123 266.582 89.9932 266.032 90.6687C265.482 91.3442 264.807 91.908 264.045 92.3294C263.328 92.743 262.577 93.0925 261.799 93.374C260.251 93.9504 258.619 94.2681 256.968 94.3144C255.339 94.3482 253.715 94.1367 252.149 93.6869C250.646 93.2236 249.046 93.175 247.518 93.546C248.233 93.158 249.029 92.9446 249.842 92.9233C250.652 92.8706 251.466 92.8989 252.27 93.0078C253.8 93.2835 255.359 93.3625 256.909 93.2429C258.435 93.1187 259.936 92.776 261.364 92.2253C262.075 91.9502 262.764 91.6226 263.426 91.2452C264.064 90.9083 264.631 90.4505 265.094 89.8974C265.559 89.3444 265.914 88.7085 266.142 88.0233C266.392 87.3338 266.525 86.6073 266.536 85.8738C266.55 85.1696 266.364 84.4759 266 83.8731C265.605 83.2645 265.073 82.7568 264.446 82.3907C263.096 81.6381 261.618 81.1434 260.087 80.9316C258.525 80.6824 256.943 80.5666 255.361 80.5854Z" fill="black"/>
<path d="M248.893 97.8024C248.893 97.8024 248.624 106.623 243.934 111.921C244.122 111.493 244.213 111.029 244.201 110.561C244.189 110.093 244.074 109.634 243.865 109.216C244.618 107.408 242.81 103.792 242.81 103.792C243.865 101.381 241.153 98.97 241.153 98.97C241.153 98.97 242.81 95.5046 238.441 94.2993C238.441 94.2993 250.381 88.7245 248.893 97.8024Z" fill="black"/>
<path d="M274.526 163.781C274.484 163.781 274.441 163.774 274.401 163.761L193.59 137.04C193.54 137.023 193.494 136.997 193.454 136.963C193.414 136.928 193.382 136.886 193.358 136.84C193.334 136.793 193.32 136.741 193.316 136.689C193.313 136.637 193.319 136.584 193.336 136.534C193.352 136.484 193.378 136.438 193.412 136.398C193.447 136.359 193.489 136.326 193.536 136.302C193.582 136.279 193.634 136.265 193.686 136.261C193.738 136.257 193.791 136.263 193.841 136.28L274.483 162.946L378.315 103.559V98.7954L185.745 63.6753L154.209 75.8384C154.11 75.8761 154 75.8732 153.904 75.8302C153.807 75.7872 153.731 75.7076 153.693 75.6089C153.655 75.5101 153.658 75.4003 153.7 75.3035C153.743 75.2067 153.822 75.1307 153.921 75.0923L185.562 62.8882C185.631 62.8634 185.705 62.8563 185.778 62.8677L378.787 98.0679C378.879 98.0848 378.962 98.1334 379.022 98.2053C379.082 98.2772 379.115 98.3678 379.115 98.4614V103.791C379.115 103.862 379.096 103.931 379.061 103.992C379.026 104.053 378.975 104.103 378.914 104.138L274.725 163.728C274.665 163.763 274.596 163.781 274.526 163.781Z" fill="black"/>
<path d="M274.3 158.723C274.268 158.723 274.236 158.718 274.206 158.708L188.323 131.538C188.284 131.525 188.248 131.505 188.216 131.479C188.185 131.452 188.159 131.42 188.14 131.383C188.101 131.309 188.094 131.223 188.119 131.144C188.144 131.065 188.2 130.999 188.274 130.96C188.347 130.922 188.433 130.915 188.513 130.94L274.264 158.069L378.559 98.189C378.594 98.1685 378.634 98.1552 378.675 98.1499C378.716 98.1447 378.757 98.1475 378.797 98.1583C378.837 98.1691 378.874 98.1876 378.907 98.2128C378.939 98.238 378.967 98.2694 378.987 98.3052C379.008 98.341 379.021 98.3805 379.026 98.4214C379.032 98.4623 379.029 98.5038 379.018 98.5436C379.007 98.5834 378.989 98.6207 378.964 98.6534C378.938 98.686 378.907 98.7134 378.871 98.7339L274.457 158.682C274.409 158.709 274.355 158.723 274.3 158.723Z" fill="black"/>
<path d="M274.526 163.695C274.445 163.695 274.368 163.664 274.309 163.608C274.251 163.552 274.217 163.476 274.213 163.396L273.987 158.424C273.985 158.383 273.991 158.342 274.005 158.303C274.019 158.264 274.041 158.229 274.068 158.198C274.096 158.168 274.13 158.143 274.167 158.125C274.204 158.108 274.245 158.098 274.286 158.096C274.368 158.095 274.448 158.126 274.509 158.181C274.57 158.237 274.607 158.313 274.614 158.395L274.84 163.367C274.842 163.408 274.836 163.449 274.822 163.488C274.808 163.527 274.786 163.562 274.758 163.593C274.73 163.623 274.697 163.648 274.66 163.665C274.622 163.683 274.582 163.693 274.541 163.695H274.526Z" fill="black"/>
<path d="M274.555 161.92L275.183 200.311L275.654 238.702C275.823 251.499 276.173 264.296 275.968 277.093C275.855 283.491 275.741 289.89 275.492 296.288L275.114 305.886C274.926 309.085 274.796 312.284 274.555 315.484C274.552 315.523 274.534 315.56 274.505 315.587C274.476 315.614 274.438 315.629 274.398 315.629C274.358 315.629 274.32 315.614 274.291 315.587C274.262 315.56 274.244 315.523 274.241 315.484C274 312.284 273.87 309.085 273.682 305.886L273.304 296.288C273.055 289.89 272.942 283.491 272.829 277.093C272.623 264.296 272.973 251.499 273.142 238.702L273.613 200.311L274.241 161.92C274.242 161.879 274.259 161.84 274.288 161.811C274.317 161.782 274.357 161.766 274.398 161.766C274.439 161.766 274.479 161.782 274.508 161.811C274.538 161.84 274.554 161.879 274.555 161.92Z" fill="black"/>
<path d="M370.736 109.216L371.363 147.607L371.834 185.997C372.004 198.794 372.354 211.591 372.148 224.388C372.035 230.787 371.922 237.185 371.673 243.584L371.295 253.181C371.106 256.381 370.977 259.58 370.736 262.779C370.733 262.819 370.715 262.856 370.686 262.883C370.657 262.909 370.618 262.924 370.579 262.924C370.539 262.924 370.501 262.909 370.472 262.883C370.443 262.856 370.425 262.819 370.422 262.779C370.181 259.58 370.051 256.381 369.863 253.181L369.485 243.584C369.236 237.185 369.122 230.787 369.009 224.388C368.804 211.591 369.153 198.794 369.323 185.997L369.794 147.607L370.422 109.216C370.422 109.174 370.439 109.135 370.469 109.106C370.498 109.077 370.537 109.061 370.579 109.061C370.62 109.061 370.66 109.077 370.689 109.106C370.718 109.135 370.735 109.174 370.736 109.216H370.736Z" fill="black"/>
<path d="M210.793 214.685C210.793 214.685 217.973 215.283 242.638 232.218C246.673 235.042 251.611 236.271 256.499 235.67C257.801 235.525 259.077 235.198 260.288 234.697C260.288 234.697 279.046 239.546 262.322 242.71C262.322 242.71 238.365 243.388 220.511 230.28L220.737 237.512H211.697C211.697 237.512 207.628 218.753 210.793 214.685Z" fill="black"/>
<path d="M218.466 187.135C219.853 189.471 221.169 191.844 222.522 194.197L226.462 201.321C227.791 203.685 229.039 206.099 230.328 208.479C231.601 210.828 233.124 213.034 234.869 215.059C235.727 216.081 236.638 217.058 237.597 217.986C238.554 218.907 239.589 219.78 240.612 220.67C242.655 222.448 244.75 224.16 246.823 225.9C248.909 227.623 251.031 229.304 253.226 230.878C254.314 231.679 255.429 232.444 256.584 233.14L257.46 233.646L258.366 234.092C258.972 234.39 259.62 234.594 260.288 234.697C258.925 234.553 257.608 234.121 256.424 233.431C255.208 232.81 254.031 232.117 252.88 231.387C250.594 229.903 248.394 228.298 246.224 226.657C244.044 225.028 241.96 223.279 239.871 221.54C238.836 220.664 237.783 219.802 236.771 218.856C233.736 216.032 231.215 212.703 229.321 209.016C228.076 206.597 226.808 204.205 225.611 201.768L221.981 194.482C220.81 192.032 219.603 189.602 218.466 187.135Z" fill="black"/>
<path d="M201.874 203.736C203.688 205.26 205.345 206.961 206.82 208.814C208.338 210.632 209.669 212.599 210.792 214.685C208.977 213.163 207.32 211.462 205.847 209.607C204.331 207.787 203 205.821 201.874 203.736Z" fill="black"/>
<path d="M159.239 269.683C159.239 269.683 166.435 269.32 193.135 282.82C197.51 285.081 202.567 285.642 207.332 284.395C208.603 284.079 209.824 283.584 210.958 282.927C210.958 282.927 230.195 285.235 214.041 290.598C214.041 290.598 190.387 294.459 170.947 283.845L172.134 290.982L163.174 292.186C163.174 292.186 156.644 274.136 159.239 269.683Z" fill="black"/>
<path d="M174.387 247.37C174.98 249.58 175.495 251.805 176.051 254.022L176.819 257.362C177.033 258.453 177.373 259.516 177.833 260.529C178.296 261.521 178.887 262.449 179.59 263.289C180.313 264.13 181.102 264.95 181.909 265.727C183.522 267.293 185.269 268.714 187.131 269.974C190.914 272.48 194.771 274.936 198.659 277.296C200.606 278.474 202.578 279.612 204.603 280.642C205.602 281.181 206.629 281.667 207.679 282.099C208.711 282.577 209.823 282.858 210.958 282.927C209.804 282.994 208.649 282.819 207.568 282.412C206.471 282.064 205.394 281.659 204.339 281.199C202.238 280.269 200.198 279.218 198.179 278.134C194.142 275.95 190.271 273.526 186.425 271.011C184.51 269.698 182.72 268.212 181.077 266.571C180.261 265.742 179.485 264.895 178.742 263.985C177.996 263.055 177.392 262.019 176.951 260.911C176.519 259.819 176.215 258.681 176.046 257.519L175.451 254.144C175.098 251.886 174.703 249.636 174.387 247.37Z" fill="black"/>
<path d="M158.629 252.889C159.174 255.649 159.486 258.45 159.561 261.263C159.693 264.074 159.585 266.89 159.239 269.683C158.691 266.923 158.38 264.121 158.307 261.309C158.178 258.498 158.286 255.681 158.629 252.889Z" fill="black"/>
<path d="M137.838 29.4C136.558 29.5253 135.267 29.3051 134.101 28.7624C133.493 28.4937 132.96 28.0802 132.548 27.5578C132.138 27.033 131.952 26.3678 132.029 25.7065C132.202 26.2738 132.504 26.7936 132.91 27.2255C133.316 27.6574 133.817 27.9898 134.373 28.1968C135.495 28.6871 136.653 29.0894 137.838 29.4Z" fill="black"/>
<path d="M259.24 23.42C259.629 23.4065 259.997 23.2426 260.267 22.9628C260.538 22.6829 260.689 22.3091 260.689 21.92C260.689 21.5309 260.538 21.1571 260.267 20.8772C259.997 20.5974 259.629 20.4335 259.24 20.42C258.851 20.4335 258.483 20.5974 258.212 20.8772C257.942 21.1571 257.791 21.5309 257.791 21.92C257.791 22.3091 257.942 22.6829 258.212 22.9628C258.483 23.2426 258.851 23.4065 259.24 23.42Z" fill="black"/>
<path d="M259.48 31.7C259.869 31.6865 260.237 31.5226 260.507 31.2428C260.778 30.9629 260.929 30.5891 260.929 30.2C260.929 29.8109 260.778 29.4371 260.507 29.1572C260.237 28.8774 259.869 28.7135 259.48 28.7C259.091 28.7135 258.723 28.8774 258.452 29.1572C258.182 29.4371 258.031 29.8109 258.031 30.2C258.031 30.5891 258.182 30.9629 258.452 31.2428C258.723 31.5226 259.091 31.6865 259.48 31.7Z" fill="black"/>
<path d="M259.6 40.58C259.989 40.5665 260.357 40.4026 260.628 40.1228C260.898 39.8429 261.049 39.4691 261.049 39.08C261.049 38.6909 260.898 38.3171 260.628 38.0372C260.357 37.7574 259.989 37.5935 259.6 37.58C259.211 37.5935 258.843 37.7574 258.573 38.0372C258.302 38.3171 258.151 38.6909 258.151 39.08C258.151 39.4691 258.302 39.8429 258.573 40.1228C258.843 40.4026 259.211 40.5665 259.6 40.58Z" fill="black"/>
<path d="M259.6 50.42C259.989 50.4065 260.357 50.2426 260.628 49.9628C260.898 49.6829 261.049 49.3091 261.049 48.92C261.049 48.5309 260.898 48.1571 260.628 47.8772C260.357 47.5974 259.989 47.4335 259.6 47.42C259.211 47.4335 258.843 47.5974 258.573 47.8772C258.302 48.1571 258.151 48.5309 258.151 48.92C258.151 49.3091 258.302 49.6829 258.573 49.9628C258.843 50.2426 259.211 50.4065 259.6 50.42Z" fill="black"/>
<path d="M259.84 58.34C260.229 58.3265 260.597 58.1626 260.868 57.8828C261.138 57.6029 261.289 57.2291 261.289 56.84C261.289 56.4509 261.138 56.0771 260.868 55.7972C260.597 55.5174 260.229 55.3535 259.84 55.34C259.451 55.3535 259.083 55.5174 258.812 55.7972C258.542 56.0771 258.391 56.4509 258.391 56.84C258.391 57.2291 258.542 57.6029 258.812 57.8828C259.083 58.1626 259.451 58.3265 259.84 58.34Z" fill="black"/>
<path d="M217.826 25.2095C218.043 25.2083 218.256 25.1459 218.439 25.0294C218.623 24.913 218.77 24.7472 218.863 24.5511C219.016 24.209 219.12 23.8471 219.173 23.476C219.22 23.2776 219.226 23.0716 219.19 22.8708C219.154 22.6701 219.076 22.479 218.963 22.3097C218.824 22.1517 218.645 22.0341 218.445 21.9695C218.245 21.9049 218.031 21.8956 217.826 21.9426C217.46 22.0165 217.13 22.2118 216.89 22.4968C216.688 22.7838 216.581 23.1264 216.583 23.4772C216.574 23.8438 216.648 24.2078 216.798 24.5425C216.889 24.7391 217.034 24.9061 217.216 25.024C217.398 25.142 217.609 25.2063 217.826 25.2095ZM217.826 25.2983C217.315 25.3299 216.807 25.2053 216.37 24.941C216.14 24.7728 215.953 24.5523 215.825 24.2977C215.698 24.043 215.632 23.7616 215.635 23.4768C215.631 23.1883 215.686 22.902 215.796 22.6356C215.907 22.3691 216.071 22.1281 216.278 21.9275C216.48 21.7322 216.726 21.5877 216.995 21.5058C217.264 21.4239 217.549 21.4068 217.826 21.456C218.331 21.5343 218.801 21.7634 219.173 22.1133C219.573 22.4658 219.835 22.9489 219.912 23.4764C219.944 23.7539 219.902 24.0349 219.789 24.2905C219.677 24.5461 219.498 24.7672 219.272 24.931C218.838 25.1963 218.334 25.3243 217.826 25.2983Z" fill="black"/>
<path d="M220.701 29.9393C219.773 30.0949 218.837 30.1992 217.897 30.2518C217.393 30.2739 216.885 30.3 216.37 30.2867C215.855 30.2749 215.34 30.2074 214.84 30.1606L214.789 30.1557C214.76 30.153 214.732 30.1445 214.706 30.1308C214.68 30.1171 214.657 30.0984 214.638 30.0758C214.619 30.0532 214.605 30.0271 214.596 29.999C214.588 29.971 214.585 29.9415 214.587 29.9122L214.588 29.9082C214.659 29.3668 214.699 28.8217 214.706 28.2756C214.671 27.7056 214.752 27.1343 214.944 26.5964C215.171 26.017 215.564 25.5181 216.076 25.1635C216.587 24.8089 217.192 24.6146 217.814 24.6056C218.436 24.5965 219.046 24.773 219.568 25.1125C220.089 25.4521 220.497 25.9392 220.74 26.5119C220.975 27.0799 221.044 27.7029 220.939 28.3086C220.879 28.9065 220.778 29.4631 220.701 29.9393ZM220.639 29.8772L220.4 28.2429C220.374 27.7604 220.242 27.2896 220.013 26.8641C219.778 26.4658 219.45 26.1309 219.056 25.8886C218.663 25.6464 218.216 25.5041 217.755 25.4743C217.271 25.4621 216.792 25.576 216.366 25.8048C215.939 26.0336 215.579 26.3694 215.322 26.7793C215.052 27.2293 214.93 27.7527 214.974 28.2756C214.981 28.8217 215.021 29.3668 215.092 29.9082L214.84 29.656C215.312 29.6091 215.769 29.5416 216.225 29.5298C216.682 29.5165 217.145 29.5426 217.613 29.5647C218.552 29.6214 219.532 29.735 220.639 29.8772Z" fill="black"/>
<path d="M226.255 19.3082C226.342 21.1619 226.42 22.9412 226.46 24.6915C226.505 26.4442 226.533 28.1677 226.466 29.9082L226.232 29.6744C227.727 29.7246 229.221 29.7989 230.715 29.8058C232.209 29.8207 233.703 29.7861 235.197 29.7364L235.025 29.9082C234.96 28.1378 234.913 26.3674 234.897 24.5972C234.862 22.8268 234.86 21.0564 234.878 19.2862L235.197 19.6056C233.743 19.612 232.282 19.5397 230.805 19.5038L226.255 19.3082ZM226.21 19.2638L230.625 19.0681C232.135 19.0323 233.663 18.9601 235.197 18.9664C235.282 18.9673 235.362 19.0012 235.422 19.061C235.482 19.1208 235.516 19.2016 235.517 19.2861C235.534 21.0564 235.532 22.8268 235.498 24.5971C235.481 26.3674 235.434 28.1378 235.369 29.9081L235.369 29.9201C235.368 29.9419 235.363 29.9633 235.354 29.9831C235.345 30.003 235.332 30.0208 235.316 30.0357C235.3 30.0505 235.281 30.0621 235.261 30.0697C235.241 30.0773 235.219 30.0808 235.197 30.08C233.703 30.0303 232.209 29.9958 230.715 30.0108C229.221 30.0175 227.727 30.0919 226.232 30.142C226.203 30.143 226.173 30.1382 226.145 30.1277C226.118 30.1173 226.092 30.1015 226.071 30.0812C226.049 30.0609 226.031 30.0366 226.019 30.0096C226.007 29.9826 226 29.9534 225.999 29.9238L225.999 29.9081C225.932 28.1077 225.96 26.2906 226.004 24.5026C226.045 22.7121 226.122 20.9509 226.21 19.2638Z" fill="black"/>
<path d="M230.677 25.2095C230.895 25.2083 231.107 25.1459 231.291 25.0294C231.474 24.913 231.621 24.7472 231.715 24.5511C231.868 24.209 231.972 23.8471 232.024 23.476C232.072 23.2776 232.077 23.0716 232.041 22.8708C232.005 22.6701 231.928 22.479 231.814 22.3097C231.675 22.1517 231.496 22.0341 231.296 21.9695C231.096 21.9049 230.882 21.8956 230.677 21.9426C230.312 22.0165 229.982 22.2118 229.741 22.4968C229.54 22.7838 229.433 23.1264 229.434 23.4772C229.426 23.8438 229.499 24.2078 229.649 24.5425C229.74 24.7391 229.885 24.9061 230.067 25.024C230.249 25.142 230.461 25.2063 230.677 25.2095ZM230.677 25.2983C230.167 25.3299 229.659 25.2053 229.221 24.941C228.991 24.7728 228.805 24.5523 228.677 24.2977C228.549 24.043 228.484 23.7616 228.487 23.4768C228.482 23.1883 228.537 22.902 228.648 22.6356C228.758 22.3691 228.922 22.1281 229.13 21.9275C229.332 21.7322 229.578 21.5877 229.847 21.5058C230.116 21.4239 230.4 21.4068 230.677 21.456C231.183 21.5343 231.652 21.7634 232.025 22.1133C232.425 22.4658 232.687 22.9489 232.764 23.4764C232.796 23.7539 232.753 24.0349 232.641 24.2905C232.528 24.5461 232.35 24.7672 232.123 24.931C231.689 25.1963 231.185 25.3243 230.677 25.2983Z" fill="black"/>
<path d="M233.552 29.9393C232.624 30.0949 231.688 30.1992 230.749 30.2518C230.245 30.2739 229.736 30.3 229.221 30.2867C228.706 30.2749 228.191 30.2074 227.692 30.1606L227.641 30.1557C227.611 30.153 227.583 30.1445 227.557 30.1308C227.531 30.1171 227.508 30.0984 227.489 30.0758C227.471 30.0532 227.456 30.0271 227.448 29.999C227.439 29.971 227.436 29.9415 227.439 29.9122L227.439 29.9082C227.511 29.3668 227.55 28.8217 227.558 28.2756C227.523 27.7056 227.604 27.1343 227.796 26.5964C228.022 26.017 228.416 25.5181 228.927 25.1635C229.438 24.8089 230.043 24.6146 230.665 24.6055C231.287 24.5965 231.898 24.773 232.419 25.1125C232.94 25.452 233.349 25.9392 233.592 26.5119C233.827 27.0799 233.896 27.7029 233.791 28.3086C233.73 28.9065 233.63 29.4631 233.552 29.9393ZM233.49 29.8772L233.251 28.2429C233.225 27.7604 233.093 27.2896 232.864 26.8641C232.63 26.4658 232.302 26.1309 231.908 25.8886C231.514 25.6464 231.067 25.5041 230.606 25.4743C230.122 25.4621 229.644 25.576 229.217 25.8048C228.791 26.0336 228.431 26.3694 228.173 26.7793C227.904 27.2293 227.782 27.7527 227.825 28.2756C227.833 28.8217 227.872 29.3668 227.944 29.9082L227.692 29.656C228.164 29.6091 228.62 29.5416 229.077 29.5298C229.533 29.5165 229.996 29.5426 230.464 29.5647C231.403 29.6214 232.384 29.735 233.49 29.8772Z" fill="black"/>
<path d="M239.345 19.3082C239.433 21.1619 239.511 22.9412 239.551 24.6915C239.596 26.4442 239.623 28.1677 239.557 29.9082L239.323 29.6744C240.817 29.7246 242.311 29.7989 243.805 29.8058C245.299 29.8207 246.794 29.7861 248.288 29.7364L248.116 29.9082C248.051 28.1378 248.004 26.3674 247.987 24.5972C247.953 22.8268 247.951 21.0564 247.968 19.2862L248.288 19.6056C246.834 19.612 245.373 19.5397 243.895 19.5038L239.345 19.3082ZM239.301 19.2638L243.715 19.0681C245.226 19.0323 246.753 18.9601 248.288 18.9664C248.372 18.9672 248.453 19.0012 248.513 19.061C248.573 19.1207 248.607 19.2016 248.607 19.2861C248.625 21.0564 248.623 22.8268 248.588 24.5971C248.572 26.3674 248.525 28.1378 248.46 29.9081L248.459 29.9201C248.458 29.9419 248.453 29.9633 248.444 29.9831C248.435 30.003 248.423 30.0208 248.407 30.0357C248.391 30.0505 248.372 30.0621 248.352 30.0697C248.331 30.0773 248.309 30.0808 248.288 30.08C246.794 30.0303 245.299 29.9958 243.805 30.0108C242.311 30.0175 240.817 30.0919 239.323 30.142C239.293 30.143 239.264 30.1382 239.236 30.1277C239.208 30.1173 239.183 30.1015 239.161 30.0812C239.139 30.061 239.122 30.0366 239.11 30.0096C239.098 29.9826 239.091 29.9534 239.09 29.9238L239.089 29.9081C239.022 28.1077 239.05 26.2906 239.095 24.5026C239.135 22.7121 239.213 20.9509 239.301 19.2638Z" fill="black"/>
<path d="M243.768 25.2095C243.985 25.2083 244.198 25.1459 244.382 25.0295C244.565 24.913 244.712 24.7473 244.806 24.5511C244.959 24.209 245.063 23.8471 245.115 23.476C245.162 23.2777 245.168 23.0716 245.132 22.8708C245.096 22.6701 245.019 22.479 244.905 22.3097C244.766 22.1517 244.587 22.0341 244.387 21.9695C244.187 21.9049 243.973 21.8956 243.768 21.9426C243.403 22.0166 243.073 22.2119 242.832 22.4968C242.631 22.7838 242.523 23.1264 242.525 23.4772C242.517 23.8438 242.59 24.2078 242.74 24.5425C242.831 24.7391 242.976 24.906 243.158 25.024C243.34 25.142 243.551 25.2063 243.768 25.2095ZM243.768 25.2983C243.258 25.3299 242.75 25.2053 242.312 24.941C242.082 24.7728 241.895 24.5523 241.768 24.2976C241.64 24.043 241.575 23.7616 241.577 23.4768C241.573 23.1883 241.628 22.902 241.738 22.6356C241.849 22.3691 242.013 22.1281 242.22 21.9275C242.423 21.7322 242.668 21.5877 242.937 21.5058C243.207 21.4239 243.491 21.4068 243.768 21.456C244.273 21.5343 244.743 21.7634 245.116 22.1133C245.516 22.4658 245.778 22.9489 245.855 23.4764C245.887 23.7539 245.844 24.0349 245.731 24.2905C245.619 24.5461 245.44 24.7672 245.214 24.931C244.78 25.1963 244.276 25.3244 243.768 25.2983Z" fill="black"/>
<path d="M246.643 29.9393C245.715 30.0949 244.779 30.1992 243.839 30.2518C243.336 30.2739 242.827 30.3 242.312 30.2867C241.797 30.2749 241.282 30.2074 240.782 30.1606L240.731 30.1557C240.702 30.153 240.674 30.1445 240.648 30.1308C240.622 30.1171 240.599 30.0984 240.58 30.0758C240.561 30.0532 240.547 30.0271 240.538 29.999C240.53 29.9709 240.527 29.9415 240.53 29.9122L240.53 29.9082C240.601 29.3668 240.641 28.8217 240.649 28.2756C240.613 27.7056 240.694 27.1343 240.887 26.5964C241.113 26.017 241.507 25.5181 242.018 25.1635C242.529 24.8088 243.134 24.6146 243.756 24.6055C244.378 24.5964 244.989 24.7729 245.51 25.1125C246.031 25.452 246.439 25.9392 246.682 26.5119C246.917 27.0799 246.986 27.7029 246.882 28.3086C246.821 28.9065 246.721 29.4631 246.643 29.9393ZM246.581 29.8772L246.342 28.2429C246.316 27.7604 246.184 27.2896 245.955 26.8641C245.72 26.4658 245.392 26.1309 244.999 25.8886C244.605 25.6464 244.158 25.5041 243.697 25.4743C243.213 25.4621 242.734 25.576 242.308 25.8048C241.881 26.0336 241.522 26.3694 241.264 26.7793C240.994 27.2294 240.873 27.7527 240.916 28.2756C240.924 28.8216 240.963 29.3668 241.035 29.9082L240.782 29.656C241.254 29.6091 241.711 29.5416 242.167 29.5298C242.624 29.5165 243.087 29.5426 243.555 29.5647C244.494 29.6214 245.475 29.735 246.581 29.8772Z" fill="black"/>
<path d="M233.543 32.4989C233.631 34.3525 233.709 36.132 233.749 37.8822C233.794 39.6349 233.821 41.3584 233.755 43.0989L233.521 42.8651C235.015 42.9153 236.509 42.9896 238.003 42.9965C239.498 43.0113 240.992 42.9768 242.486 42.9271L242.314 43.0989C242.249 41.3285 242.202 39.5581 242.185 37.7879C242.151 36.0175 242.149 34.2471 242.166 32.4769L242.486 32.7963C241.032 32.8027 239.571 32.7304 238.094 32.6946L233.543 32.4989ZM233.499 32.4545L237.913 32.2588C239.424 32.223 240.952 32.1508 242.486 32.1571C242.57 32.1579 242.651 32.1919 242.711 32.2517C242.771 32.3114 242.805 32.3923 242.805 32.4768C242.823 34.2471 242.821 36.0175 242.786 37.7878C242.77 39.5581 242.723 41.3284 242.658 43.0988L242.657 43.1109C242.657 43.1326 242.652 43.154 242.643 43.1739C242.634 43.1937 242.621 43.2115 242.605 43.2264C242.589 43.2412 242.57 43.2528 242.55 43.2604C242.529 43.268 242.508 43.2715 242.486 43.2707C240.992 43.221 239.498 43.1864 238.003 43.2015C236.509 43.2082 235.015 43.2825 233.521 43.3327C233.461 43.3347 233.403 43.3128 233.359 43.2719C233.315 43.231 233.29 43.1744 233.288 43.1145L233.287 43.0988C233.221 41.2985 233.248 39.4812 233.293 37.6933C233.333 35.9028 233.411 34.1416 233.499 32.4545Z" fill="black"/>
<path d="M237.966 38.4001C238.183 38.3989 238.396 38.3365 238.58 38.2201C238.763 38.1037 238.91 37.9379 239.004 37.7418C239.157 37.3997 239.261 37.0378 239.313 36.6667C239.36 36.4683 239.366 36.2623 239.33 36.0615C239.294 35.8608 239.216 35.6697 239.103 35.5003C238.964 35.3424 238.785 35.2248 238.585 35.1602C238.385 35.0956 238.171 35.0863 237.966 35.1333C237.601 35.2072 237.271 35.4025 237.03 35.6875C236.829 35.9745 236.721 36.3171 236.723 36.6678C236.714 37.0345 236.788 37.3985 236.938 37.7331C237.029 37.9298 237.174 38.0967 237.356 38.2147C237.538 38.3327 237.749 38.397 237.966 38.4001ZM237.966 38.489C237.456 38.5206 236.948 38.3959 236.51 38.1317C236.28 37.9635 236.093 37.743 235.966 37.4883C235.838 37.2337 235.773 36.9523 235.775 36.6675C235.771 36.379 235.826 36.0927 235.936 35.8262C236.047 35.5598 236.211 35.3188 236.418 35.1181C236.621 34.9229 236.866 34.7784 237.135 34.6965C237.405 34.6145 237.689 34.5975 237.966 34.6467C238.471 34.725 238.941 34.9541 239.314 35.3039C239.714 35.6565 239.975 36.1395 240.053 36.6671C240.084 36.9446 240.042 37.2255 239.929 37.4811C239.817 37.7368 239.638 37.9578 239.412 38.1217C238.978 38.387 238.474 38.515 237.966 38.489V38.489Z" fill="black"/>
<path d="M240.841 43.13C239.913 43.2856 238.977 43.3899 238.037 43.4425C237.533 43.4647 237.025 43.4907 236.51 43.4774C235.995 43.4656 235.48 43.3981 234.98 43.3513L234.929 43.3464C234.9 43.3437 234.872 43.3352 234.846 43.3215C234.82 43.3078 234.797 43.2891 234.778 43.2665C234.759 43.2439 234.745 43.2178 234.736 43.1897C234.728 43.1616 234.725 43.1321 234.728 43.1029L234.728 43.0989C234.799 42.5575 234.839 42.0124 234.846 41.4663C234.811 40.8963 234.892 40.3251 235.084 39.7872C235.311 39.2078 235.705 38.7088 236.216 38.3542C236.727 37.9996 237.332 37.8053 237.954 37.7962C238.576 37.7871 239.187 37.9636 239.708 38.3032C240.229 38.6427 240.637 39.1299 240.88 39.7025C241.115 40.2706 241.184 40.8936 241.079 41.4993C241.019 42.0971 240.919 42.6538 240.841 43.13ZM240.779 43.0679L240.54 41.4336C240.514 40.9511 240.382 40.4802 240.153 40.0548C239.918 39.6565 239.59 39.3216 239.197 39.0793C238.803 38.8371 238.356 38.6948 237.895 38.665C237.411 38.6527 236.932 38.7666 236.506 38.9954C236.079 39.2242 235.719 39.56 235.462 39.9699C235.192 40.42 235.071 40.9434 235.114 41.4663C235.122 42.0123 235.161 42.5574 235.232 43.0988L234.98 42.8466C235.452 42.7998 235.909 42.7323 236.365 42.7204C236.822 42.7071 237.285 42.7332 237.753 42.7554C238.692 42.8121 239.673 42.9256 240.779 43.0679Z" fill="black"/>
<path d="M219.565 32.4989C219.653 34.3525 219.73 36.132 219.77 37.8822C219.815 39.6349 219.843 41.3584 219.776 43.0989L219.543 42.8651C221.037 42.9153 222.531 42.9896 224.025 42.9965C225.519 43.0113 227.013 42.9768 228.507 42.9271L228.336 43.0989C228.27 41.3285 228.223 39.5581 228.207 37.7879C228.173 36.0175 228.171 34.2471 228.188 32.4769L228.507 32.7963C227.053 32.8027 225.593 32.7304 224.115 32.6946L219.565 32.4989ZM219.52 32.4545L223.935 32.2588C225.445 32.223 226.973 32.1508 228.507 32.1571C228.592 32.1579 228.673 32.1919 228.733 32.2517C228.792 32.3114 228.826 32.3923 228.827 32.4768C228.844 34.2471 228.842 36.0175 228.808 37.7878C228.792 39.5581 228.745 41.3284 228.679 43.0988L228.679 43.1109C228.678 43.1326 228.673 43.154 228.664 43.1739C228.655 43.1937 228.642 43.2115 228.626 43.2264C228.61 43.2412 228.592 43.2528 228.571 43.2604C228.551 43.268 228.529 43.2715 228.507 43.2707C227.013 43.221 225.519 43.1864 224.025 43.2015C222.531 43.2082 221.037 43.2825 219.543 43.3327C219.513 43.3337 219.484 43.3288 219.456 43.3184C219.428 43.308 219.403 43.2922 219.381 43.2719C219.359 43.2517 219.342 43.2273 219.329 43.2003C219.317 43.1733 219.31 43.1442 219.309 43.1145L219.309 43.0988C219.242 41.2985 219.27 39.4812 219.315 37.6933C219.355 35.9028 219.432 34.1416 219.52 32.4545Z" fill="black"/>
<path d="M213.403 46.24C213.491 48.0937 213.568 49.8731 213.609 51.6233C213.653 53.376 213.681 55.0995 213.614 56.84L213.381 56.6062C214.875 56.6564 216.369 56.7307 217.863 56.7374C219.357 56.7524 220.851 56.7179 222.346 56.6682L222.174 56.84C222.109 55.0696 222.061 53.2992 222.045 51.529C222.011 49.7586 222.009 47.9882 222.026 46.218L222.346 46.5374C220.892 46.5438 219.431 46.4715 217.953 46.4356L213.403 46.24ZM213.359 46.1956L217.773 45.9999C219.284 45.964 220.811 45.8919 222.346 45.8982C222.43 45.899 222.511 45.933 222.571 45.9928C222.63 46.0526 222.664 46.1334 222.665 46.2179C222.683 47.9882 222.681 49.7586 222.646 51.5289C222.63 53.2992 222.583 55.0696 222.517 56.8399L222.517 56.8519C222.516 56.8737 222.511 56.8951 222.502 56.9149C222.493 56.9347 222.48 56.9526 222.464 56.9675C222.449 56.9823 222.43 56.9939 222.409 57.0015C222.389 57.0091 222.367 57.0126 222.346 57.0118C220.851 56.9622 219.357 56.9276 217.863 56.9425C216.369 56.9493 214.875 57.0237 213.381 57.0738C213.351 57.0748 213.322 57.07 213.294 57.0595C213.266 57.0491 213.241 57.0333 213.219 57.013C213.197 56.9928 213.18 56.9684 213.168 56.9414C213.155 56.9144 213.149 56.8852 213.148 56.8556L213.147 56.84C213.08 55.0395 213.108 53.2224 213.153 51.4344C213.193 49.6439 213.271 47.8826 213.358 46.1955L213.359 46.1956Z" fill="black"/>
<path d="M217.826 52.1412C218.043 52.14 218.256 52.0776 218.439 51.9612C218.623 51.8447 218.77 51.6789 218.863 51.4828C219.016 51.1407 219.121 50.7788 219.173 50.4078C219.22 50.2094 219.226 50.0033 219.19 49.8026C219.154 49.6018 219.076 49.4107 218.963 49.2414C218.824 49.0834 218.645 48.9659 218.445 48.9012C218.245 48.8366 218.031 48.8273 217.826 48.8743C217.46 48.9482 217.13 49.1435 216.89 49.4285C216.688 49.7155 216.581 50.0581 216.583 50.4089C216.574 50.7755 216.648 51.1395 216.798 51.4742C216.889 51.6708 217.034 51.8378 217.216 51.9558C217.397 52.0738 217.609 52.1381 217.826 52.1412ZM217.826 52.2301C217.315 52.2617 216.807 52.137 216.37 51.8728C216.14 51.7046 215.953 51.4841 215.825 51.2294C215.698 50.9748 215.632 50.6934 215.635 50.4085C215.631 50.1201 215.686 49.8338 215.796 49.5673C215.907 49.3008 216.071 49.0599 216.278 48.8592C216.48 48.664 216.726 48.5195 216.995 48.4376C217.264 48.3556 217.549 48.3386 217.826 48.3878C218.331 48.4661 218.801 48.6951 219.173 49.045C219.573 49.3975 219.835 49.8805 219.912 50.408C219.944 50.6855 219.902 50.9665 219.789 51.2221C219.677 51.4778 219.498 51.6989 219.272 51.8627C218.838 52.128 218.334 52.2561 217.826 52.2301Z" fill="black"/>
<path d="M220.701 56.8711C219.773 57.0266 218.837 57.1309 217.897 57.1836C217.393 57.2057 216.885 57.2318 216.37 57.2185C215.855 57.2066 215.34 57.1391 214.84 57.0923L214.789 57.0875C214.76 57.0848 214.732 57.0763 214.706 57.0626C214.68 57.0489 214.657 57.0302 214.638 57.0076C214.619 56.9849 214.605 56.9588 214.596 56.9308C214.588 56.9027 214.585 56.8732 214.587 56.844L214.588 56.84C214.659 56.2986 214.699 55.7534 214.706 55.2074C214.671 54.6373 214.752 54.0661 214.944 53.5282C215.171 52.9487 215.564 52.4498 216.076 52.0952C216.587 51.7406 217.192 51.5464 217.814 51.5373C218.436 51.5282 219.046 51.7047 219.568 52.0443C220.089 52.3838 220.497 52.871 220.74 53.4436C220.975 54.0117 221.044 54.6347 220.939 55.2404C220.879 55.8381 220.778 56.3949 220.701 56.8711ZM220.639 56.8089L220.4 55.1745C220.374 54.6921 220.242 54.2213 220.013 53.7959C219.778 53.3975 219.45 53.0626 219.056 52.8204C218.663 52.5781 218.216 52.4359 217.755 52.4061C217.271 52.3939 216.792 52.5077 216.366 52.7365C215.939 52.9653 215.579 53.3012 215.322 53.711C215.052 54.1611 214.93 54.6845 214.974 55.2074C214.981 55.7534 215.021 56.2985 215.092 56.8399L214.84 56.5876C215.312 56.5409 215.769 56.4734 216.225 56.4615C216.682 56.4482 217.145 56.4744 217.613 56.4964C218.552 56.5532 219.532 56.6666 220.639 56.8089Z" fill="black"/>
<path d="M226.255 46.24C226.342 48.0937 226.42 49.8731 226.46 51.6233C226.505 53.376 226.533 55.0995 226.466 56.84L226.232 56.6062C227.727 56.6564 229.221 56.7307 230.715 56.7374C232.209 56.7524 233.703 56.7179 235.197 56.6682L235.025 56.84C234.96 55.0696 234.913 53.2992 234.897 51.529C234.862 49.7586 234.86 47.9882 234.878 46.218L235.197 46.5374C233.743 46.5438 232.282 46.4715 230.805 46.4356L226.255 46.24ZM226.21 46.1956L230.625 45.9999C232.135 45.964 233.663 45.8919 235.197 45.8982C235.282 45.899 235.362 45.933 235.422 45.9928C235.482 46.0526 235.516 46.1334 235.517 46.2179C235.534 47.9882 235.532 49.7586 235.498 51.5289C235.481 53.2992 235.434 55.0696 235.369 56.8399L235.369 56.8519C235.368 56.8737 235.363 56.8951 235.354 56.9149C235.345 56.9347 235.332 56.9526 235.316 56.9675C235.3 56.9823 235.281 56.9939 235.261 57.0015C235.241 57.0091 235.219 57.0126 235.197 57.0118C233.703 56.9622 232.209 56.9276 230.715 56.9425C229.221 56.9493 227.727 57.0237 226.232 57.0738C226.203 57.0748 226.173 57.07 226.145 57.0595C226.118 57.0491 226.092 57.0333 226.071 57.013C226.049 56.9928 226.031 56.9684 226.019 56.9414C226.007 56.9144 226 56.8852 225.999 56.8556L225.999 56.84C225.932 55.0395 225.96 53.2224 226.004 51.4344C226.045 49.6439 226.122 47.8826 226.21 46.1955V46.1956Z" fill="black"/>
<path d="M239.237 46.24C239.324 48.0937 239.402 49.8731 239.442 51.6233C239.487 53.376 239.515 55.0995 239.448 56.84L239.214 56.6062C240.709 56.6564 242.203 56.7307 243.697 56.7374C245.191 56.7524 246.685 56.7179 248.179 56.6682L248.007 56.84C247.942 55.0696 247.895 53.2992 247.879 51.529C247.844 49.7586 247.842 47.9882 247.86 46.218L248.179 46.5374C246.725 46.5438 245.265 46.4715 243.787 46.4356L239.237 46.24ZM239.192 46.1956L243.607 45.9999C245.117 45.964 246.645 45.8919 248.179 45.8982C248.264 45.899 248.345 45.933 248.404 45.9927C248.464 46.0525 248.498 46.1334 248.499 46.2179C248.516 47.9882 248.514 49.7586 248.48 51.5289C248.464 53.2992 248.416 55.0696 248.351 56.8399L248.351 56.8519C248.35 56.8737 248.345 56.8951 248.336 56.9149C248.327 56.9348 248.314 56.9526 248.298 56.9675C248.282 56.9823 248.264 56.9939 248.243 57.0015C248.223 57.0091 248.201 57.0126 248.179 57.0118C246.685 56.9622 245.191 56.9276 243.697 56.9425C242.203 56.9493 240.709 57.0237 239.214 57.0738C239.185 57.0748 239.155 57.07 239.128 57.0595C239.1 57.0491 239.074 57.0333 239.053 57.013C239.031 56.9928 239.014 56.9684 239.001 56.9414C238.989 56.9144 238.982 56.8852 238.981 56.8556L238.981 56.84C238.914 55.0395 238.942 53.2224 238.986 51.4344C239.027 49.6439 239.104 47.8826 239.192 46.1955V46.1956Z" fill="black"/>
<path d="M243.659 52.1412C243.877 52.1401 244.089 52.0777 244.273 51.9612C244.456 51.8448 244.604 51.6789 244.697 51.4828C244.85 51.1407 244.954 50.7788 245.006 50.4078C245.054 50.2094 245.06 50.0033 245.024 49.8026C244.987 49.6018 244.91 49.4107 244.796 49.2414C244.657 49.0834 244.479 48.9659 244.278 48.9012C244.078 48.8366 243.864 48.8273 243.659 48.8743C243.294 48.9483 242.964 49.1436 242.724 49.4285C242.522 49.7155 242.415 50.0581 242.417 50.4089C242.408 50.7755 242.481 51.1395 242.631 51.4742C242.722 51.6708 242.867 51.8378 243.049 51.9558C243.231 52.0738 243.443 52.1381 243.659 52.1412ZM243.659 52.2301C243.149 52.2617 242.641 52.1371 242.203 51.8728C241.973 51.7046 241.787 51.4841 241.659 51.2294C241.531 50.9748 241.466 50.6934 241.469 50.4086C241.465 50.1201 241.519 49.8338 241.63 49.5674C241.74 49.3009 241.904 49.0599 242.112 48.8592C242.314 48.664 242.56 48.5195 242.829 48.4376C243.098 48.3556 243.383 48.3386 243.659 48.3878C244.165 48.466 244.634 48.6951 245.007 49.045C245.407 49.3975 245.669 49.8805 245.746 50.408C245.778 50.6855 245.735 50.9665 245.623 51.2221C245.51 51.4778 245.332 51.6989 245.106 51.8627C244.672 52.1281 244.167 52.2561 243.659 52.2301Z" fill="black"/>
<path d="M246.534 56.8711C245.606 57.0266 244.67 57.1309 243.731 57.1836C243.227 57.2057 242.718 57.2318 242.203 57.2185C241.688 57.2066 241.173 57.1391 240.674 57.0923L240.623 57.0875C240.594 57.0848 240.565 57.0763 240.539 57.0626C240.513 57.0489 240.49 57.0302 240.471 57.0076C240.453 56.985 240.439 56.9589 240.43 56.9308C240.421 56.9027 240.418 56.8732 240.421 56.844L240.421 56.84C240.493 56.2986 240.532 55.7534 240.54 55.2074C240.505 54.6373 240.586 54.0661 240.778 53.5282C241.004 52.9487 241.398 52.4498 241.909 52.0952C242.42 51.7406 243.025 51.5464 243.647 51.5373C244.269 51.5282 244.88 51.7047 245.401 52.0443C245.923 52.3838 246.331 52.871 246.574 53.4436C246.809 54.0117 246.878 54.6347 246.773 55.2404C246.712 55.8381 246.612 56.3949 246.534 56.8711ZM246.472 56.8089L246.233 55.1745C246.208 54.6921 246.075 54.2213 245.846 53.7959C245.612 53.3975 245.284 53.0626 244.89 52.8204C244.496 52.5781 244.05 52.4359 243.588 52.4061C243.104 52.3939 242.626 52.5077 242.199 52.7365C241.773 52.9653 241.413 53.3012 241.155 53.711C240.886 54.1611 240.764 54.6845 240.807 55.2074C240.815 55.7534 240.855 56.2985 240.926 56.8399L240.674 56.5876C241.146 56.5409 241.602 56.4734 242.059 56.4615C242.515 56.4482 242.978 56.4744 243.446 56.4964C244.386 56.5532 245.366 56.6666 246.472 56.8089Z" fill="black"/>
<path d="M175.269 81.7526L175.096 82.737L176.081 82.9099L176.254 81.9255L175.269 81.7526Z" fill="black"/>
<path d="M211.377 89.0825L209.416 88.7397L209.588 87.7554L211.549 88.0981L211.377 89.0825ZM207.455 88.397L205.494 88.0542L205.666 87.0698L207.626 87.4126L207.455 88.397ZM203.533 87.7114L201.572 87.3686L201.744 86.3843L203.705 86.727L203.533 87.7114ZM199.61 87.0259L197.649 86.6821L197.822 85.6977L199.783 86.0415L199.61 87.0259ZM195.689 86.3393L193.728 85.9966L193.9 85.0122L195.861 85.355L195.689 86.3393ZM191.767 85.6538L189.806 85.311L189.978 84.3266L191.939 84.6694L191.767 85.6538ZM187.845 84.9682L185.884 84.6255L186.056 83.6411L188.017 83.9839L187.845 84.9682ZM183.923 84.2817L181.962 83.9389L182.134 82.9546L184.095 83.2973L183.923 84.2817ZM180.001 83.5962L178.04 83.2534L178.212 82.269L180.173 82.6118L180.001 83.5962Z" fill="black"/>
<path d="M213.513 88.44L213.34 89.4244L214.325 89.5972L214.497 88.6128L213.513 88.44Z" fill="black"/>
<path d="M172.045 85.186L171.835 86.1645L172.813 86.3735L173.023 85.395L172.045 85.186Z" fill="black"/>
<path d="M207.112 93.6802L205.207 93.2739L205.416 92.2954L207.321 92.7016L207.112 93.6802ZM203.302 92.8686L201.396 92.4624L201.604 91.4839L203.51 91.8901L203.302 92.8686ZM199.491 92.0561L197.586 91.6509L197.794 90.6723L199.699 91.0776L199.491 92.0561ZM195.679 91.2446L193.774 90.8384L193.983 89.8598L195.888 90.2661L195.679 91.2446ZM191.869 90.4321L189.963 90.0268L190.171 89.0483L192.077 89.4536L191.869 90.4321ZM188.058 89.6206L186.152 89.2143L186.36 88.2358L188.266 88.6421L188.058 89.6206ZM184.247 88.8091L182.341 88.4028L182.55 87.4243L184.456 87.8306L184.247 88.8091ZM180.436 87.9966L178.53 87.5903L178.739 86.6118L180.645 87.0181L180.436 87.9966ZM176.625 87.185L174.719 86.7788L174.928 85.8003L176.834 86.2065L176.625 87.185Z" fill="black"/>
<path d="M209.227 93.1069L209.018 94.0854L209.996 94.2944L210.205 93.3159L209.227 93.1069Z" fill="black"/>
<path d="M175.125 90.9498C176.833 91.0471 178.525 91.3323 180.171 91.8003C181.828 92.2257 183.433 92.8345 184.955 93.6153C183.247 93.5201 181.554 93.2348 179.909 92.7648C178.252 92.3373 176.648 91.7286 175.125 90.9498Z" fill="black"/>
</svg>
