<svg width="36" height="36" viewBox="0 0 36 36" fill="none" xmlns="http://www.w3.org/2000/svg">
<path fill-rule="evenodd" clip-rule="evenodd" d="M9 3C7.4087 3 5.88258 3.63214 4.75736 4.75736C3.63214 5.88258 3 7.4087 3 9V27C3 28.5913 3.63214 30.1174 4.75736 31.2426C5.88258 32.3679 7.4087 33 9 33H27C28.5913 33 30.1174 32.3679 31.2426 31.2426C32.3679 30.1174 33 28.5913 33 27V9C33 7.4087 32.3679 5.88258 31.2426 4.75736C30.1174 3.63214 28.5913 3 27 3H9ZM6 9C6 8.20435 6.31607 7.44129 6.87868 6.87868C7.44129 6.31607 8.20435 6 9 6H27C27.7956 6 28.5587 6.31607 29.1213 6.87868C29.6839 7.44129 30 8.20435 30 9V27C30 27.7956 29.6839 28.5587 29.1213 29.1213C28.5587 29.6839 27.7956 30 27 30H9C8.20435 30 7.44129 29.6839 6.87868 29.1213C6.31607 28.5587 6 27.7956 6 27V9ZM13.5 16.5C13.5 16.1022 13.342 15.7206 13.0607 15.4393C12.7794 15.158 12.3978 15 12 15C11.6022 15 11.2206 15.158 10.9393 15.4393C10.658 15.7206 10.5 16.1022 10.5 16.5V25.5C10.5 25.8978 10.658 26.2794 10.9393 26.5607C11.2206 26.842 11.6022 27 12 27C12.3978 27 12.7794 26.842 13.0607 26.5607C13.342 26.2794 13.5 25.8978 13.5 25.5V16.5ZM14.25 11.25C14.25 11.8467 14.0129 12.419 13.591 12.841C13.169 13.2629 12.5967 13.5 12 13.5C11.4033 13.5 10.831 13.2629 10.409 12.841C9.98705 12.419 9.75 11.8467 9.75 11.25C9.75 10.6533 9.98705 10.081 10.409 9.65901C10.831 9.23705 11.4033 9 12 9C12.5967 9 13.169 9.23705 13.591 9.65901C14.0129 10.081 14.25 10.6533 14.25 11.25ZM18 15C18.51 15 18.96 15.255 19.23 15.642C20.0031 15.2207 20.8695 14.9999 21.75 15C24.99 15 27 17.889 27 20.3565V25.5C27 25.8978 26.842 26.2794 26.5607 26.5607C26.2794 26.842 25.8978 27 25.5 27C25.1022 27 24.7206 26.842 24.4393 26.5607C24.158 26.2794 24 25.8978 24 25.5V20.355C24 19.203 23.01 17.9985 21.75 17.9985C20.964 17.9985 20.0955 18.426 19.5 19.443V25.5C19.5 25.8978 19.342 26.2794 19.0607 26.5607C18.7794 26.842 18.3978 27 18 27C17.6022 27 17.2206 26.842 16.9393 26.5607C16.658 26.2794 16.5 25.8978 16.5 25.5V16.5C16.5 16.1022 16.658 15.7206 16.9393 15.4393C17.2206 15.158 17.6022 15 18 15Z" fill="black"/>
</svg>
