<svg width="343" height="229" viewBox="0 0 343 229" fill="none" xmlns="http://www.w3.org/2000/svg">
<path d="M86.311 46.4006L86.3029 46.4009C86.29 46.4014 86.2772 46.3986 86.2658 46.3926L86.2596 46.3894C85.1999 45.852 84.1115 45.3732 82.9994 44.9551C81.8966 44.5358 80.7536 44.1298 79.6422 43.8041L79.7324 43.8172L79.7162 43.8176C79.6886 43.8185 79.661 43.8149 79.6345 43.807L79.6122 43.8002C73.7401 41.9581 67.6429 40.9311 61.4915 40.7479C58.4257 40.657 55.3572 40.7549 52.3034 41.0409L43.0473 41.823C36.8746 42.321 30.6902 42.677 24.5089 43.0706C18.326 43.4452 12.1459 43.8515 5.97452 44.3655L6.10659 43.8928C7.19862 44.6864 8.19763 45.6007 9.08466 46.6183C9.9623 47.6481 10.7103 48.7816 11.3119 49.9936C11.894 51.2135 12.3553 52.4875 12.6894 53.7973C13.0058 55.1098 13.2088 56.4471 13.2961 57.7945C13.4462 60.4871 13.2651 63.1881 12.757 65.8366C12.2763 68.4968 11.522 71.1002 10.5061 73.6053L9.77104 72.6593C14.1134 71.8388 18.4544 71.0111 22.8023 70.2226L35.841 67.8286L35.1287 68.4708L35.2231 68.1909L35.1944 68.267C35.8253 66.2709 37.1245 64.5531 38.8734 63.4028C40.6117 62.2555 42.6734 61.699 44.7527 61.8159C46.841 61.9501 48.8223 62.7877 50.3737 64.1922C50.5762 64.3546 50.7591 64.5401 50.9186 64.745L51.4224 65.3372C51.7245 65.7545 52.0031 66.1883 52.2567 66.6367C52.4978 67.0814 52.6624 67.5387 52.8673 67.9895C52.9628 68.2163 53.0668 68.4407 53.1544 68.6694L53.3695 69.3683C54.4072 73.0647 54.8061 76.9112 54.549 80.7419C54.3784 84.5208 53.8481 88.2749 52.9653 91.9532L52.3135 91.2991L61.0786 89.466L69.8618 87.7098C69.8839 87.7053 69.9069 87.7097 69.9258 87.722C69.9447 87.7342 69.9582 87.7534 69.9632 87.7754C69.9682 87.7973 69.9644 87.8204 69.9527 87.8397C69.941 87.8589 69.9222 87.8728 69.9003 87.8785L61.2377 90.1508L52.5597 92.3577C52.4723 92.3798 52.3809 92.3796 52.2937 92.3571C52.2065 92.3345 52.1263 92.2904 52.0607 92.2287C51.995 92.1671 51.9459 92.0899 51.918 92.0042C51.89 91.9186 51.8841 91.8273 51.9007 91.7388L51.9077 91.7034C52.6081 88.0733 53.0081 84.3918 53.1037 80.696C53.2612 77.0483 52.7974 73.4005 51.7321 69.9083L51.5267 69.2704C51.4447 69.0647 51.348 68.8662 51.2598 68.6637C51.0728 68.2676 50.9158 67.8412 50.7073 67.4694C50.4709 67.1241 50.2858 66.74 50.0175 66.4219L49.6067 65.9524C49.4803 65.7874 49.3321 65.6403 49.1663 65.515C47.9099 64.4077 46.3169 63.7564 44.6447 63.6664C42.9647 63.5699 41.2984 64.0166 39.8918 64.9404C38.4911 65.8645 37.4429 67.2342 36.9169 68.8279L36.8881 68.9044C36.8837 68.9262 36.8769 68.9475 36.868 68.9679L36.8099 69.1C36.7509 69.2321 36.6604 69.3478 36.5463 69.4367C36.4322 69.5257 36.2979 69.5853 36.1554 69.6102L23.0847 71.8232C18.7295 72.5704 14.3673 73.2784 10.0065 73.9937C9.88545 74.0135 9.7613 74.0004 9.64711 73.9556C9.53292 73.9108 9.43293 73.836 9.35768 73.7391C9.28242 73.6423 9.23468 73.5269 9.21949 73.4052C9.2043 73.2834 9.22222 73.1599 9.27137 73.0475C10.3077 70.6527 11.1158 68.1655 11.6849 65.619C12.2769 63.0686 12.5431 60.4534 12.4773 57.836C12.4344 56.5313 12.2797 55.2328 12.0148 53.9546C11.7341 52.6812 11.3123 51.4431 10.757 50.2633C10.191 49.0893 9.48332 47.989 8.64971 46.9872C7.80288 45.9929 6.84683 45.0971 5.79961 44.3167L5.79231 44.3111C5.75071 44.2788 5.71984 44.2346 5.70376 44.1844C5.68768 44.1342 5.68713 44.0803 5.70219 44.0298C5.71725 43.9793 5.74722 43.9345 5.78816 43.9013C5.82911 43.8682 5.87911 43.8481 5.93164 43.8439C12.104 43.3423 18.2679 42.7369 24.4284 42.0929C30.5907 41.4687 36.7499 40.8072 42.9207 40.2876L52.1798 39.5433C55.2964 39.2774 58.4278 39.2294 61.5511 39.3998C64.673 39.5727 67.7775 39.9806 70.8381 40.62C73.8959 41.2388 76.8994 42.1009 79.82 43.198L79.7163 43.1807L79.7324 43.1811L79.7569 43.1818C79.7794 43.1826 79.8017 43.1868 79.823 43.1943C80.9805 43.6077 82.0635 44.0672 83.1653 44.5596C84.2613 45.0489 85.3238 45.6099 86.346 46.2388L86.3031 46.2274L86.3112 46.2276C86.3335 46.2285 86.3547 46.238 86.3702 46.2541C86.3857 46.2703 86.3944 46.2918 86.3944 46.3142C86.3944 46.3365 86.3857 46.358 86.3702 46.3742C86.3547 46.3903 86.3335 46.3998 86.3112 46.4007L86.311 46.4006Z" fill="black"/>
<path d="M124.162 69.4722C123.669 67.0008 122.679 64.6554 121.252 62.5783C120.54 61.5824 119.721 60.6676 118.81 59.8502C117.887 59.0438 116.898 58.3166 115.853 57.6762C113.707 56.4212 111.417 55.4299 109.033 54.724C106.615 53.9917 104.143 53.4533 101.64 53.1137L101.592 53.109C100.737 52.8705 99.884 52.6159 99.0344 52.3451C99.9253 52.3889 100.812 52.4523 101.697 52.5304L101.649 52.5256C104.263 52.4114 106.88 52.6606 109.425 53.2659C112.01 53.8481 114.483 54.8478 116.746 56.2257C119.054 57.6164 120.975 59.5648 122.333 61.8918C123.64 64.198 124.273 66.8241 124.162 69.4722Z" fill="black"/>
<path d="M42.2332 62.3447C43.7406 61.7611 45.2649 61.2531 46.7996 60.7923C48.3331 60.3252 49.8745 59.8939 51.4238 59.4983C52.9686 59.082 54.5303 58.7423 56.0861 58.3752C57.6503 58.047 59.2116 57.7039 60.7879 57.4282L61.1521 57.3645L61.3811 57.5393C62.0272 58.0386 62.6235 58.5993 63.1614 59.2137C63.6952 59.7983 64.1857 60.4211 64.6289 61.0771C65.0731 61.7251 65.4717 62.4032 65.8218 63.1065C66.1746 63.8022 66.4731 64.5242 66.7144 65.2661C66.2629 64.6342 65.798 64.0226 65.3197 63.4312C64.8345 62.8406 64.345 62.2514 63.8344 61.7168C63.3131 61.1747 62.7798 60.6502 62.2257 60.1564C61.6844 59.6802 61.1174 59.2341 60.5274 58.8198L61.1203 58.9309C59.5754 59.3451 58.0158 59.6926 56.4603 60.0608C54.896 60.3886 53.3378 60.7437 51.7625 61.0221C50.1924 61.3239 48.6138 61.5874 47.0267 61.8127C45.4414 62.0468 43.8457 62.2335 42.2332 62.3447Z" fill="black"/>
<path d="M20.2881 42.9256C22.1359 44.6347 23.5899 46.7252 24.5493 49.0523C25.5525 51.379 26.1855 53.8483 26.4252 56.3706C26.6256 58.8869 26.4712 61.4188 25.9666 63.892C25.9057 64.1994 25.859 64.509 25.7862 64.8131L25.528 65.7163L24.9861 67.5071C24.5484 68.6743 24.0362 69.8124 23.4992 70.9229C23.674 69.6841 23.9626 68.4966 24.1637 67.295L24.4173 65.4893L24.557 64.5941C24.5945 64.2949 24.6059 63.992 24.6317 63.6919C24.6735 63.0901 24.7215 62.4914 24.7847 61.8953C24.8294 61.2977 24.8059 60.6968 24.8204 60.0996C24.8472 58.9072 24.8082 57.7142 24.7034 56.5261C24.4838 54.1505 24.0108 51.8052 23.2924 49.5302C22.5686 47.2126 21.5595 44.994 20.2881 42.9256Z" fill="black"/>
<path d="M67.1808 60.9291C68.4736 60.4463 69.7746 59.9717 71.0838 59.5216C71.0113 60.056 70.973 60.5944 70.9692 61.1336C69.8482 61.4855 68.7191 61.8211 67.5817 62.1483C66.8126 62.3693 66.0434 62.5902 65.2662 62.8112C65.1598 62.6475 65.0534 62.492 64.947 62.3447C64.8407 62.1892 64.7261 62.042 64.6279 61.9029C65.4789 61.5674 66.3299 61.2482 67.1808 60.9291Z" fill="black"/>
<path d="M80.0761 58.1632C79.0779 58.5069 78.096 58.8506 77.0977 59.1861H77.0895C76.7787 58.6938 76.4167 58.2357 76.0095 57.8195L76.3777 57.6968C77.4823 57.3367 78.5869 56.9766 79.6915 56.6248C79.8224 57.1812 79.9615 57.6968 80.0761 58.1632Z" fill="black"/>
<path d="M74.4548 52.7706C76.0995 52.2387 77.7441 51.7068 79.3969 51.1912C79.2183 51.7405 79.1326 52.3158 79.1433 52.8933C77.7605 53.3843 76.3613 53.8507 74.9703 54.3253C71.8856 55.3318 68.7845 56.322 65.6589 57.214C64.2106 57.6395 62.7542 58.0459 61.2895 58.4333C59.604 58.8833 57.9184 59.3089 56.2084 59.6771C56.8875 59.3743 57.5666 59.0715 58.2539 58.7769C58.2621 58.7769 58.2621 58.7769 58.2703 58.7687C60.5777 57.7868 62.9179 56.8785 65.258 56.0028C68.3018 54.8573 71.3783 53.8098 74.4548 52.7706Z" fill="black"/>
<path d="M87.3255 49.8737C87.1864 49.931 87.0473 49.9883 86.9082 50.0374C86.5504 49.738 86.1471 49.4977 85.7136 49.3255C86.1554 49.2027 86.5973 49.08 87.0391 48.9572C87.1455 49.3009 87.2437 49.6119 87.3255 49.8737Z" fill="black"/>
<path d="M9.8903 73.3233C-8.58221 56.4614 5.95616 44.108 5.95616 44.108C18.8672 53.458 9.8903 73.3233 9.8903 73.3233Z" fill="black"/>
<path d="M52.4351 91.8253C37.1918 96.3726 35.9989 68.7182 35.9989 68.7182C36.0168 68.6614 36.0348 68.6051 36.0531 68.5491C38.345 61.5082 48.169 60.5975 51.5581 67.1808C56.1508 76.102 52.4351 91.8253 52.4351 91.8253Z" fill="black"/>
<path d="M63.9332 88.5226C61.4085 94.744 58.8255 100.901 56.4488 107.115C54.0197 113.253 51.9728 119.535 50.3198 125.926C49.9297 127.494 49.6302 129.083 49.4227 130.686C49.1972 132.237 49.2042 133.814 49.4435 135.363C49.5691 136.092 49.8164 136.795 50.1749 137.441C50.5406 138.056 51.0474 138.574 51.6534 138.954C53.0367 139.655 54.6096 139.891 56.1375 139.625C59.383 139.062 62.5055 137.937 65.3649 136.302C66.091 135.899 66.8182 135.502 67.5354 135.082L69.6554 133.763C71.086 132.914 72.4267 131.921 73.7991 130.988C75.1666 130.046 76.4672 129.008 77.8005 128.025L79.7371 126.465C80.3816 125.945 81.0448 125.451 81.6666 124.902C82.9166 123.815 84.2176 122.796 85.4334 121.673L87.2867 120.028L89.0921 118.33C91.4901 116.058 93.7969 113.696 96.0125 111.244C98.2436 108.81 100.384 106.296 102.475 103.74C106.667 98.6154 110.569 93.2612 114.165 87.7024C115.969 84.9175 117.7 82.0808 119.359 79.1922C121.019 76.3063 122.608 73.3664 124.056 70.353L124.382 70.4688C122.424 76.938 119.784 83.181 116.508 89.0929C113.275 95.0508 109.542 100.724 105.351 106.052C101.115 111.359 96.4117 116.276 91.2978 120.744L89.3785 122.413L87.4052 124.018C86.0983 125.097 84.7305 126.101 83.3633 127.1C81.9935 128.097 80.5712 129.021 79.1617 129.955C77.7105 130.829 76.2975 131.756 74.8223 132.582C73.349 133.411 71.895 134.264 70.3924 135.032C68.903 135.82 67.4178 136.613 65.8958 137.35C62.8646 138.916 59.6315 140.056 56.2884 140.737C54.5055 141.113 52.6498 140.926 50.9778 140.202C50.1146 139.769 49.3678 139.135 48.7999 138.354C48.2659 137.581 47.8582 136.728 47.5919 135.827C47.1202 134.101 46.9131 132.312 46.9777 130.523C47.025 128.788 47.199 127.059 47.4984 125.349C48.1094 121.99 49.0055 118.689 50.1769 115.481C51.2993 112.281 52.5821 109.153 53.9748 106.081C54.6568 104.54 55.3983 103.026 56.1448 101.517C56.8851 100.005 57.6658 98.5129 58.4694 97.0346C60.0709 94.0754 61.7591 91.1649 63.6284 88.3588L63.9332 88.5226Z" fill="black"/>
<path d="M23.2651 47.692C27.9773 46.9828 32.7022 46.4438 37.4315 45.9647C42.16 45.4749 46.896 45.0859 51.6335 44.7166C56.3733 44.3794 61.1148 44.0639 65.8638 43.8488C70.6119 43.623 75.3646 43.4584 80.13 43.4653C75.418 44.1767 70.6931 44.7165 65.9638 45.1951C61.2353 45.6845 56.4992 46.0734 51.7616 46.4407C47.0216 46.7758 42.2801 47.0913 37.5312 47.3058C32.783 47.5312 28.0304 47.6967 23.2651 47.692Z" fill="black"/>
<path d="M81.14 127.08C80.4623 121.07 79.8106 115.051 79.227 109.025L79.0035 106.765L78.8917 105.635C78.8805 105.547 78.8771 105.433 78.8596 105.366C78.8392 105.312 78.8225 105.257 78.8098 105.202C78.7532 105.051 78.6887 104.903 78.6167 104.758C77.9491 103.493 77.073 102.227 76.2599 100.964C74.6008 98.435 73.0006 95.8422 71.5703 93.1428C70.8626 91.7885 70.1959 90.4079 69.6132 88.983C69.0367 87.54 68.5534 86.1031 68.0528 84.6845C67.0474 81.8357 66.0508 78.9843 65.0914 76.1199L63.6356 71.8289L63.2717 70.7562C63.1298 70.3502 63.0347 69.9294 62.9882 69.5018C62.8868 68.6323 63.0093 67.7512 63.3443 66.9423C63.6776 66.0814 64.3116 65.3703 65.1288 64.9408C65.9735 64.5698 66.9272 64.5316 67.7989 64.8338C69.2981 65.3963 70.6662 66.26 71.8188 67.3717L70.9193 67.877C70.7112 66.4177 70.5776 64.9488 70.5191 63.476C70.4908 62.7409 70.4862 61.9978 70.5157 61.2621C70.5781 60.5203 70.6078 59.7665 70.7329 59.0304C70.8405 58.2465 71.1203 57.496 71.5523 56.833C71.81 56.4607 72.1903 56.1907 72.6267 56.0703C73.0459 55.9842 73.4803 56.0082 73.8874 56.1398C75.357 56.6395 76.5903 57.6644 77.3506 59.0178L77.0896 58.8755H77.0976L77.2669 58.8765L77.3568 59.0149C77.8595 59.8206 78.3145 60.6551 78.7195 61.514C78.9075 61.9224 79.1281 62.3151 79.3791 62.6881C79.5339 62.8715 79.5316 62.869 79.7519 62.8818C79.821 62.8888 79.8906 62.8745 79.9514 62.8407C80.0122 62.807 80.0612 62.7555 80.0919 62.6932C80.2445 62.3013 80.3056 61.8798 80.2707 61.4608C80.2588 61.0012 80.2227 60.5426 80.1626 60.0869C80.0452 59.1656 79.8639 58.2536 79.6198 57.3576C79.3709 56.4453 79.1703 55.5205 79.0189 54.587C78.8469 53.6323 78.8336 52.6557 78.9797 51.6967C79.0712 51.1996 79.2558 50.7242 79.5237 50.2955C79.8054 49.8622 80.1898 49.5052 80.6427 49.2562C81.5369 48.8186 82.5315 48.6269 83.5243 48.7007L83.4732 48.7031C83.8966 48.6624 84.3234 48.6764 84.7432 48.745C85.1587 48.812 85.565 48.927 85.954 49.0875C86.7408 49.4172 87.4227 49.9554 87.9262 50.6441L87.8945 50.6073C87.96 50.6766 87.9982 50.7674 88.0019 50.8627L87.9958 52.258L87.356 51.0163L87.3477 51.0001L87.3396 50.9846L87.3259 50.9454C86.1801 47.9075 85.408 44.7415 85.0268 41.5171C84.9462 40.6818 84.9577 39.8401 85.061 39.0072C85.1384 38.0785 85.5408 37.2069 86.1973 36.5455C86.5806 36.2138 87.0491 35.9961 87.5498 35.917C88.0349 35.8603 88.5265 35.9104 88.9902 36.0638C89.8188 36.3745 90.5759 36.8496 91.2163 37.4604C92.4189 38.6034 93.4759 39.8905 94.3632 41.2925C95.2575 42.6547 96.0792 44.0631 96.8251 45.5119C98.3785 48.3848 99.6042 51.4232 100.479 54.5698C101.313 57.6854 102.1 60.7725 103.169 63.7517C104.248 66.6939 105.55 69.6545 107.62 71.8003C108.581 72.853 109.869 73.551 111.275 73.7812C111.997 73.8564 112.727 73.8268 113.44 73.6932C114.201 73.5884 114.954 73.4339 115.694 73.2308C117.18 72.8284 118.612 72.251 119.961 71.5106C121.295 70.7816 122.528 69.8803 123.627 68.8298L124.51 67.9527L124.981 69.026C125.491 70.2318 125.801 71.5128 125.898 72.8184C126.004 74.0844 125.959 75.3584 125.763 76.6136C125.347 79.097 124.448 81.4748 123.118 83.6126C122.458 84.6984 121.654 85.6904 120.729 86.562C119.788 87.3981 118.76 88.1309 117.663 88.748C116.584 89.3548 115.478 89.8584 114.464 90.4239C113.474 90.9031 112.627 91.6338 112.008 92.543C111.492 93.5281 111.219 94.6225 111.212 95.7347C111.133 96.9182 111.088 98.1117 111.074 99.3089C111.044 101.703 111.09 104.106 111.176 106.506C111.268 108.907 111.361 111.31 111.517 113.709C111.687 116.104 111.819 118.516 112.222 120.876L112.063 120.913C111.549 118.544 111.311 116.145 111.032 113.751C110.779 111.354 110.547 108.953 110.389 106.547C110.23 104.14 110.109 101.73 110.064 99.3106C110.041 98.1009 110.051 96.8865 110.093 95.6673C110.072 94.366 110.366 93.079 110.95 91.916C111.66 90.8067 112.649 89.9038 113.818 89.2979C114.895 88.6718 115.974 88.1568 116.982 87.5637C117.973 86.9814 118.9 86.2953 119.746 85.5172C120.559 84.7201 121.262 83.8172 121.834 82.8328C123.016 80.8489 123.801 78.6535 124.145 76.3695C124.316 75.2439 124.352 74.1019 124.254 72.9677C124.166 71.8692 123.908 70.7909 123.491 69.7712L124.845 69.9673C122.404 72.3117 119.411 74.0004 116.142 74.8763C115.335 75.101 114.514 75.2729 113.685 75.391C113.261 75.4368 112.873 75.5163 112.419 75.5329L111.739 75.5534C111.511 75.5399 111.283 75.5136 111.056 75.4922C109.261 75.2262 107.613 74.3486 106.39 73.0077C104.008 70.4637 102.738 67.3473 101.64 64.2919C100.571 61.2107 99.8036 58.0564 99.0098 54.9615C98.8074 54.1905 98.6056 53.4229 98.3617 52.6953C98.113 51.9535 97.832 51.2143 97.5392 50.4793C96.9515 49.0092 96.3033 47.557 95.5962 46.1373C94.898 44.7171 94.1255 43.3347 93.2818 41.9958C92.4711 40.6681 91.5076 39.44 90.4111 38.3366C89.9027 37.8195 89.297 37.4082 88.6288 37.1266C88.3311 37.0184 88.014 36.9738 87.698 36.9958C87.4008 37.0356 87.1201 37.1562 86.8866 37.3444C86.4031 37.8337 86.1029 38.4747 86.0368 39.1594C85.9225 39.9189 85.8916 40.6885 85.9448 41.4547C86.2424 44.6241 86.9257 47.7455 87.9796 50.7493L87.958 50.6949L87.9659 50.7113L87.32 50.8649C87.319 50.9063 87.3266 50.9475 87.3423 50.9858C87.358 51.0242 87.3814 51.0589 87.4112 51.0878L87.3793 51.0508C86.9603 50.4426 86.3819 49.9616 85.7075 49.6606C85.0301 49.363 84.2899 49.2368 83.5522 49.2931L83.5199 49.2962L83.5007 49.2956C82.6147 49.2189 81.7241 49.3773 80.9189 49.7549C80.5454 49.968 80.2249 50.263 79.9816 50.6177C79.7384 50.9723 79.5785 51.3775 79.5142 51.8027C79.3724 52.7008 79.3789 53.616 79.5332 54.5119C79.6742 55.4313 79.8636 56.3426 80.1007 57.242C80.3508 58.1555 80.5437 59.0837 80.6783 60.0212C80.7463 60.4945 80.7894 60.971 80.8073 61.4488C80.8556 61.967 80.7748 62.4891 80.5722 62.9685C80.4885 63.1078 80.3717 63.2243 80.2321 63.3075C80.0925 63.3907 79.9344 63.4381 79.7721 63.4455C79.6097 63.4528 79.448 63.4198 79.3015 63.3496C79.155 63.2793 79.0281 63.1738 78.9322 63.0426C78.6513 62.6431 78.4049 62.2205 78.1955 61.7793C77.7907 60.9463 77.3377 60.1376 76.8387 59.3573L77.0977 59.4967L77.0897 59.4967L76.9212 59.4977L76.8284 59.3542C76.1488 58.1441 75.0338 57.2384 73.7102 56.8211C73.4408 56.7048 73.1389 56.6876 72.858 56.7726C72.5771 56.8576 72.3353 57.0392 72.1755 57.2854C71.8368 57.8606 71.6262 58.5021 71.5578 59.1662C71.4611 59.8669 71.4574 60.5724 71.4176 61.2792C71.4105 61.9969 71.4366 62.7085 71.4858 63.4253C71.5861 64.8565 71.758 66.2818 72.0009 67.6959L72.2516 69.1533L71.1012 68.2012C70.0451 67.2361 68.8062 66.4926 67.4577 66.0147C66.8832 65.8219 66.2572 65.8528 65.7045 66.1013C65.1879 66.413 64.7949 66.8936 64.5921 67.4618C64.3526 68.0595 64.2701 68.7085 64.3522 69.3472C64.3904 69.6713 64.4657 69.9901 64.5765 70.2971L64.9509 71.3678L66.4484 75.6505C67.4578 78.5019 68.4299 81.3663 69.3934 84.2334C69.8813 85.6708 70.3476 87.1055 70.8774 88.4753C71.4233 89.8551 72.0563 91.2066 72.733 92.5389C74.0937 95.2039 75.6724 97.7613 77.2572 100.332C78.0407 101.633 78.8633 102.878 79.5679 104.307C79.6596 104.503 79.7388 104.704 79.8049 104.91C79.8361 105.038 79.8633 105.168 79.8863 105.297C79.904 105.415 79.9027 105.492 79.9118 105.591L79.9916 106.72L80.1511 108.978C80.5892 115 80.9591 121.028 81.303 127.066L81.14 127.08Z" fill="black"/>
<path d="M90.9986 59.6765L87.2803 51.0107L88.0454 50.721L90.9986 59.6765Z" fill="black"/>
<path d="M212.152 30.0726C209.136 31.3508 205.993 32.4255 202.844 33.4114C199.68 34.3873 196.464 35.1871 193.211 35.8072C189.94 36.4769 186.61 36.8087 183.271 36.7976C181.577 36.7822 179.889 36.6089 178.227 36.28C176.515 35.9538 174.876 35.3194 173.391 34.4079L173.463 34.4494C170.965 33.203 168.454 31.983 165.971 30.709L165.142 30.2839L165.641 29.5661C165.701 29.4697 165.776 29.3836 165.863 29.311C165.905 29.2716 165.95 29.2355 165.998 29.2031C166.073 29.1513 166.161 29.0836 166.228 29.0486C166.366 28.9728 166.513 28.8792 166.644 28.8231C166.914 28.6897 167.181 28.5754 167.444 28.4756C167.972 28.2698 168.496 28.0873 169.022 27.9313C170.072 27.5984 171.128 27.3467 172.183 27.0997C174.295 26.6127 176.413 26.2008 178.539 25.8639C180.663 25.5069 182.791 25.1935 184.92 24.9044C187.048 24.6028 189.182 24.3516 191.313 24.0847L191.024 24.2436L195.382 19.2554C196.837 17.5905 198.239 15.9002 199.744 14.2539C202.782 10.9963 206.302 8.22425 210.182 6.03459C212.128 4.9521 214.15 4.01246 216.233 3.2231C218.324 2.45527 220.464 1.82729 222.639 1.34331C226.997 0.234982 231.511 -0.122905 235.989 0.28501C240.521 0.845204 244.842 2.52943 248.558 5.18458C252.254 7.87888 255.265 11.4045 257.348 15.477C258.379 17.5117 259.184 19.6537 259.746 21.8645L260.111 23.5356C260.212 24.089 260.31 24.6384 260.394 25.1932C260.57 26.3 260.714 27.4129 260.824 28.5321C261.064 30.7787 261.119 33.0411 260.988 35.2966C260.867 37.5867 260.449 39.8513 259.746 42.0341L259.463 42.8829L258.609 42.6261L247.066 39.1557L235.491 35.7857C231.633 34.6626 227.765 33.5727 223.88 32.5551C221.941 32.0314 219.996 31.5376 218.043 31.0737C217.064 30.8705 216.089 30.6083 215.102 30.4529L213.624 30.188L212.152 30.0726ZM212.112 29.8957L213.654 29.9117L215.159 30.0838C216.167 30.1901 217.151 30.4012 218.149 30.5551C220.132 30.919 222.11 31.3083 224.076 31.7428C228.009 32.6156 231.923 33.5606 235.827 34.5389C239.733 35.5145 243.617 36.5704 247.502 37.619C251.384 38.6808 255.268 39.7298 259.134 40.8595L257.998 41.4513C259.295 37.4278 259.286 33.0167 258.895 28.722C258.792 27.6434 258.654 26.5669 258.484 25.4925C258.403 24.9558 258.308 24.4179 258.212 23.8857L257.873 22.3209C257.369 20.2437 256.641 18.2275 255.701 16.308C253.794 12.4591 251.009 9.11217 247.571 6.53693C244.103 3.98193 240.063 2.31355 235.803 1.67708C231.478 1.16606 227.099 1.37612 222.843 2.29866C218.524 3.0685 214.356 4.51946 210.493 6.59731C206.63 8.69133 203.141 11.4111 200.167 14.646C197.276 17.9468 194.52 21.4249 191.727 24.8371L191.621 24.9663L191.438 24.9962C189.323 25.3406 187.206 25.6721 185.099 26.048C182.989 26.4117 180.884 26.7994 178.791 27.2289C176.697 27.6535 174.612 28.1076 172.551 28.6176C171.523 28.8751 170.499 29.156 169.503 29.4685C169.002 29.6189 168.513 29.793 168.043 29.9777C167.804 30.0691 167.58 30.1674 167.369 30.2728C167.253 30.3224 167.176 30.3788 167.078 30.4299C167.042 30.451 167.008 30.4741 166.975 30.499C166.956 30.5109 166.941 30.5217 166.952 30.5151C166.963 30.4957 166.921 30.5625 167.032 30.4021L166.702 29.2594C169.202 30.5016 171.675 31.7978 174.161 33.0676L174.2 33.0879L174.233 33.1092C176.813 34.7904 180.112 35.2748 183.303 35.3894C184.924 35.429 186.545 35.3811 188.16 35.2458C189.782 35.1289 191.404 34.9329 193.018 34.681C196.253 34.1972 199.452 33.4631 202.638 32.6738C205.829 31.8725 208.965 30.941 212.112 29.8957Z" fill="black"/>
<path d="M232.091 5.16042C230.542 6.98089 228.955 8.75037 227.36 10.5103L222.58 15.7817C220.987 17.5357 219.407 19.3007 217.84 21.0766C216.284 22.8634 214.745 24.6608 213.216 26.5001C214.351 24.3933 215.652 22.3805 217.108 20.4809C218.539 18.5649 220.095 16.7508 221.684 14.9699C223.294 13.2079 224.955 11.4945 226.687 9.85366C228.406 8.19659 230.21 6.63006 232.091 5.16042Z" fill="black"/>
<path d="M240.365 6.03144C241.646 8.35685 242.78 10.761 243.758 13.2294C244.752 15.6911 245.621 18.2008 246.364 20.7585C247.1 23.3177 247.675 25.9209 248.083 28.5525C248.49 31.1866 248.603 33.8577 248.421 36.5168C248.134 33.8981 247.712 31.2961 247.154 28.7214C246.589 26.1579 245.924 23.6181 245.202 21.0926C244.489 18.5635 243.68 16.0599 242.874 13.5513C242.044 11.0508 241.226 8.54041 240.365 6.03144Z" fill="black"/>
<path d="M191.375 24.5404C192.805 24.5601 194.232 24.6601 195.651 24.8399C197.065 24.999 198.467 25.2277 199.866 25.4699C201.262 25.7343 202.654 26.0137 204.034 26.3624C205.425 26.6932 206.796 27.1027 208.141 27.5889C206.711 27.5706 205.283 27.4712 203.865 27.2912C202.451 27.1318 201.049 26.903 199.65 26.6594C198.255 26.3935 196.863 26.1141 195.483 25.7651C194.092 25.434 192.721 25.0251 191.375 24.5404Z" fill="black"/>
<path d="M191.375 35.523C191.398 36.7373 191.334 37.9495 191.247 39.1636C191.17 40.3891 190.995 41.6064 190.725 42.8043C190.591 43.4514 190.347 44.0707 190.004 44.635C189.694 45.0969 189.393 45.6367 189.093 46.1507C188.489 47.189 187.905 48.2454 187.323 49.301C186.145 51.4059 184.987 53.5213 183.848 55.647C183.289 56.7138 182.711 57.7707 182.176 58.8438C181.907 59.3792 181.652 59.9197 181.402 60.4562C181.28 60.7251 181.164 60.9949 181.063 61.2609C181.018 61.3913 180.965 61.5283 180.938 61.6447C180.922 61.6938 180.91 61.7446 180.905 61.7962C180.903 61.806 180.895 61.8547 180.895 61.8332C180.895 61.8129 180.89 61.7929 180.88 61.7751C180.87 61.7574 180.856 61.7424 180.838 61.7317L180.616 61.5758C181.029 61.6739 181.454 61.7138 181.878 61.6946C182.33 61.6766 182.781 61.616 183.222 61.5135C183.672 61.4081 184.114 61.275 184.547 61.1148C184.984 60.948 185.412 60.7575 185.829 60.5439L185.89 60.5132L185.931 60.5212C186.355 60.6016 186.754 60.786 187.09 61.058C187.411 61.3286 187.64 61.692 187.747 62.0983C187.588 61.7306 187.319 61.4211 186.977 61.2122C186.652 61.0068 186.282 60.8837 185.898 60.8534L186 60.8306C185.197 61.3872 184.32 61.8283 183.395 62.1409C182.92 62.2943 182.431 62.4024 181.936 62.4638C181.412 62.5363 180.88 62.5187 180.362 62.4118L180.212 62.3787L180.139 62.2557C180.081 62.157 180.041 62.0488 180.02 61.9362C180.013 61.8737 180.013 61.8106 180.019 61.748C180.021 61.6486 180.034 61.5498 180.058 61.4531C180.091 61.2886 180.132 61.1259 180.183 60.9657C180.277 60.6593 180.383 60.3665 180.494 60.0772C180.714 59.4993 180.963 58.9402 181.215 58.3845C181.723 57.2753 182.248 56.1793 182.811 55.103C183.916 52.941 185.098 50.8239 186.316 48.7261C186.934 47.6823 187.563 46.6458 188.213 45.6157C188.544 45.0986 188.868 44.6014 189.262 44.079C189.566 43.619 189.796 43.1138 189.943 42.5821C190.59 40.2666 191.068 37.9075 191.375 35.523Z" fill="black"/>
<path d="M194.424 65.1148C190.94 59.7436 185.914 62.0982 185.914 62.0982C185.914 62.0982 183.973 88.7772 195.875 89.503C204.934 90.0554 212.728 84.5543 218.208 78.6303C221.047 75.5467 222.843 71.648 223.343 67.4866C224.086 61.4101 225.203 52.2301 225.487 49.5819C225.922 45.5171 227.569 34.8743 233.47 35.5229C233.47 35.5229 245.808 35.6457 239.421 56.9854C239.421 56.9854 237.68 70.3409 249.002 68.744C249.002 68.744 246.679 62.0663 249.727 56.9854C252.776 51.9045 256.783 45.4811 256.594 41.0715C256.594 41.0715 216.632 29.2583 212.133 29.9842C214.902 31.4463 217.13 33.7581 218.488 36.5801C219.847 39.402 220.265 42.5853 219.681 45.6623C218.353 54.2917 211.967 65.8721 209.004 70.8935C208.534 71.6945 207.856 72.3532 207.042 72.7995C206.228 73.2458 205.308 73.4631 204.38 73.4283C202.664 73.3593 200.695 73.108 199.758 72.3732C197.907 70.9215 194.424 65.1148 194.424 65.1148Z" fill="black"/>
<path d="M193.997 39.5222C194.845 38.8689 195.816 38.3926 196.852 38.1217C197.906 37.8252 199.007 37.7333 200.096 37.8511C201.209 37.9842 202.267 38.4061 203.167 39.075C204.041 39.7278 204.712 40.6153 205.102 41.6343C204.368 40.9448 203.548 40.3528 202.662 39.873C201.813 39.4393 200.893 39.1609 199.946 39.0507C198.976 38.9432 197.998 38.9415 197.028 39.0455C196.036 39.1492 195.034 39.3119 193.997 39.5222Z" fill="black"/>
<path d="M228.244 54.3724C230.19 55.1355 232.442 55.0494 233.883 53.7718C234.61 53.1276 235.19 52.3351 235.585 51.4476C236.01 50.5353 236.35 49.586 236.602 48.6115C237.163 46.6465 237.495 44.6231 237.59 42.5818C237.635 41.5572 237.609 40.5307 237.513 39.5097C237.465 38.9963 237.391 38.4858 237.29 37.98C237.245 37.7244 237.18 37.4754 237.113 37.2245C237.059 36.9707 236.956 36.7301 236.809 36.5168C237.173 36.908 237.447 37.3746 237.612 37.8836C237.806 38.3808 237.969 38.8899 238.098 39.4077C238.346 40.4489 238.492 41.5116 238.534 42.581C238.612 44.7266 238.353 46.8711 237.766 48.9364C237.184 50.9428 236.338 53.1635 234.452 54.5209C233.524 55.1853 232.394 55.5065 231.256 55.4293C230.174 55.3578 229.133 54.9923 228.244 54.3724Z" fill="black"/>
<path d="M214.163 82.5044C214.875 82.939 215.533 83.456 216.123 84.0448C216.717 84.6172 217.265 85.2359 217.76 85.8951C218.263 86.5605 218.696 87.2758 219.053 88.0296C219.47 88.789 219.638 89.6594 219.535 90.5192C219.187 89.8013 218.753 89.128 218.243 88.5137C217.764 87.8831 217.263 87.2636 216.792 86.619C216.313 85.9791 215.847 85.3238 215.401 84.6464C214.936 83.9636 214.523 83.2477 214.163 82.5044Z" fill="black"/>
<path d="M249.002 68.744C249.771 69.9338 250.471 71.1665 251.1 72.436C251.418 73.0431 251.732 73.6423 252.086 74.2133C252.436 74.8145 252.863 75.3673 253.356 75.8573C252.588 75.7502 251.881 75.3803 251.355 74.8105C250.817 74.283 250.37 73.671 250.03 72.9988C249.688 72.346 249.425 71.655 249.247 70.9403C249.051 70.2255 248.968 69.4844 249.002 68.744Z" fill="black"/>
<path d="M266.714 65.6916C266.714 65.6916 252.714 66.7145 250.349 72.3036L250.775 73.1055L252.338 72.3036C259.849 68.5639 264.095 73.531 258.875 74.4066C253.647 75.274 222.513 89.5371 222.513 89.5371C209.012 93.3586 201.1 113.89 201.1 113.89C203.277 112.957 205.494 112.122 207.695 111.23C209.953 110.502 212.195 109.717 214.478 109.07C219.062 107.776 223.736 106.827 228.462 106.231C233.195 105.621 237.977 105.473 242.74 105.789C243.926 105.92 245.113 105.993 246.299 106.165C247.469 106.37 248.655 106.509 249.817 106.787C252.154 107.246 254.43 107.974 256.6 108.956C254.344 108.281 252.029 107.818 249.686 107.573C248.525 107.393 247.346 107.335 246.184 107.229C245.014 107.155 243.844 107.114 242.674 107.057C237.989 106.986 233.305 107.251 228.658 107.851L225.172 108.301L221.703 108.915L219.968 109.201L218.25 109.578C217.097 109.831 215.951 110.077 214.797 110.314C212.506 110.846 210.232 111.451 207.932 112C205.658 112.622 203.399 113.309 201.1 113.89C165.687 119.7 131.134 141.475 128.818 140.894C126.494 140.313 124.457 122.024 124.457 117.319C124.457 112.622 123.59 103.727 116.618 103.727C109.655 103.727 110.522 109.823 110.522 109.823C123.59 113.309 93.397 115.928 84.3965 117.081C75.396 118.243 80.3299 114.766 80.3299 114.766C80.3299 114.766 77.7198 111.975 74.9214 115.445C74.0481 116.564 73.4594 117.878 73.2057 119.275C72.952 120.672 73.041 122.109 73.465 123.464C74.3568 126.443 75.6742 130.96 76.5579 134.503C78.0143 140.313 83.2346 182.12 84.9774 186.188C86.7203 190.246 122.714 200.991 199.357 195.475C205.568 194.502 211.753 193.47 217.939 192.439C224.117 191.384 230.295 190.304 236.423 189.052C239.491 188.438 242.56 187.8 245.595 187.071C248.647 186.376 251.675 185.604 254.678 184.755C257.682 183.912 260.642 182.918 263.547 181.777C266.489 180.718 269.228 179.166 271.648 177.186C270.582 178.353 269.359 179.366 268.015 180.198C266.685 181.056 265.302 181.83 263.874 182.513C261.008 183.848 258.063 185.004 255.054 185.975C249.047 187.884 242.936 189.446 236.75 190.656C230.573 191.883 224.365 192.898 218.127 193.7C211.893 194.526 205.633 195.132 199.357 195.475C199.357 195.475 196.567 212.439 195.111 227.7H304.279C304.164 212.799 304.139 193.053 304.598 175.296C305.465 141.042 304.598 124.921 304.598 124.921C303.028 124.747 301.478 124.43 299.966 123.972C298.453 123.538 296.972 123.022 295.491 122.49C292.537 121.427 289.657 120.183 286.793 118.906C283.946 117.605 281.131 116.247 278.357 114.782C275.583 113.334 272.842 111.803 270.191 110.118C273.145 111.198 276.033 112.401 278.905 113.636C281.777 114.856 284.617 116.149 287.472 117.417L295.974 121.312C298.829 122.572 301.619 123.931 304.598 124.921C304.598 124.921 318.966 131.459 320.275 114.905C321.576 98.3585 305.899 62.6475 266.714 65.6916ZM272.744 119.454C274.188 120.818 275.448 122.364 276.492 124.053C277.007 124.896 277.449 125.788 277.915 126.672C278.316 127.58 278.643 128.513 279.02 129.438C279.198 129.901 279.34 130.377 279.445 130.862L279.822 132.302C280.076 133.259 280.261 134.232 280.378 135.215L280.574 136.688L280.673 137.425L280.705 138.161L280.804 141.115L280.828 141.852L280.779 142.588L280.673 144.061C280.607 145.043 280.542 146.017 280.435 146.991C280.108 148.922 279.797 150.853 279.38 152.76C278.848 154.642 278.333 156.516 277.743 158.365C277.981 156.426 278.283 154.519 278.586 152.612C278.815 150.697 278.946 148.774 279.167 146.868L279.241 143.996L279.282 142.563L279.306 141.852L279.257 141.14L279.11 138.284L279.077 137.572L278.971 136.868L278.758 135.461C278.278 131.699 277.14 128.051 275.395 124.683C274.492 123.015 273.411 121.448 272.171 120.011C270.935 118.54 269.487 117.261 267.876 116.214C269.683 116.987 271.333 118.086 272.744 119.454ZM293.372 86.313C292.786 87.5455 291.783 88.5311 290.541 89.0952C289.926 89.3757 289.28 89.5844 288.618 89.7171C287.956 89.8109 287.289 89.8683 286.621 89.889C285.958 89.8562 285.287 89.8562 284.633 89.7744L282.685 89.4553C282.039 89.3244 281.417 89.1362 280.779 88.9725L278.938 88.4733C277.738 88.16 276.515 87.9411 275.281 87.8186C272.78 87.5854 270.263 87.5772 267.761 87.7941C262.704 88.2506 257.694 89.1209 252.779 90.3963C250.308 91.0183 247.837 91.6893 245.391 92.4175C242.928 93.1131 240.506 93.915 238.068 94.7252C242.703 92.4913 247.511 90.6333 252.444 89.1689C257.388 87.6431 262.477 86.6367 267.63 86.1657C270.238 85.9585 272.86 85.9969 275.461 86.2802C276.77 86.4486 278.064 86.7195 279.331 87.0904L282.972 88.2114L284.797 88.6042C285.41 88.7106 286.024 88.7351 286.638 88.8169C287.251 88.8579 287.865 88.8088 288.47 88.7924C289.071 88.7118 289.661 88.5664 290.23 88.3587C291.387 87.9606 292.365 87.1627 292.987 86.1083C293.308 85.5732 293.551 84.9944 293.707 84.3899C293.891 83.779 293.99 83.1457 294.002 82.5078C294.144 83.8099 293.926 85.1262 293.372 86.313H293.372Z" fill="black"/>
<path d="M149.136 227.703C165.248 227.236 181.36 226.922 197.472 226.763C205.528 226.651 213.584 226.626 221.64 226.561L245.808 226.494L269.976 226.558C278.032 226.625 286.088 226.646 294.144 226.759C310.256 226.917 326.368 227.232 342.48 227.703C326.368 228.173 310.256 228.488 294.144 228.647C286.088 228.759 278.032 228.781 269.976 228.848L245.808 228.912L221.64 228.845C213.584 228.78 205.528 228.755 197.472 228.643C181.36 228.484 165.248 228.171 149.136 227.703Z" fill="black"/>
<path d="M196.71 48.2853C199.869 48.2853 199.874 43.3754 196.71 43.3754C193.551 43.3754 193.546 48.2853 196.71 48.2853Z" fill="black"/>
</svg>
