<svg width="174" height="384" viewBox="0 0 174 384" fill="none" xmlns="http://www.w3.org/2000/svg">
<path d="M27.1135 330.305C26.5537 331.765 25.9937 333.215 25.4336 334.675C22.1858 332.489 19.3687 329.723 17.1235 326.515C17.9235 323.585 18.7036 320.795 19.4736 318.125C19.5558 319.726 19.9074 321.301 20.5136 322.785C20.8198 323.531 21.1877 324.25 21.6135 324.935C22.0274 325.636 22.5027 326.299 23.0336 326.915C24.1828 328.277 25.5641 329.425 27.1135 330.305Z" fill="black"/>
<path d="M45.5137 332.735C47.0835 332.425 48.6536 332.135 50.2036 331.785L45.8237 340.415C38.5785 340.817 31.4054 338.797 25.4336 334.675L27.2637 330.385C28.4999 331.09 29.8114 331.654 31.1736 332.065C32.7233 332.542 34.3132 332.876 35.9236 333.065C36.7236 333.175 37.5237 333.135 38.3335 333.185C39.1335 333.195 39.9436 333.275 40.7437 333.205C42.3335 333.045 43.9336 332.975 45.5137 332.735Z" fill="black"/>
<path d="M115.034 337.145C115.244 339.625 115.434 342.115 115.634 344.595C108.674 344.905 102.603 344.635 102.603 344.635C102.603 344.005 102.074 341.185 101.194 336.945C104.103 337.335 107.039 337.495 109.974 337.425C111.664 337.405 113.353 337.305 115.034 337.145Z" fill="black"/>
<path d="M114.144 327.075C114.434 330.115 114.707 333.155 114.964 336.195C113.293 336.385 111.624 336.535 109.944 336.665C108.494 336.785 107.034 336.845 105.583 336.875C104.123 336.945 102.664 336.945 101.194 336.945C96.9836 316.615 84.7837 263.695 84.7837 263.695L50.2036 331.785C48.6135 331.915 47.0337 332.095 45.4636 332.255C43.8835 332.395 42.3037 332.365 40.7236 332.435C39.9436 332.455 39.1536 332.335 38.3735 332.305C37.5938 332.245 36.8037 332.255 36.0337 332.125C34.4874 331.921 32.9617 331.583 31.4736 331.115C30.1407 330.715 28.8536 330.175 27.6335 329.505L37.0737 307.325C40.9536 298.205 44.7935 289.075 48.7537 279.995C52.6335 270.885 56.6068 261.815 60.6736 252.785C62.7036 248.265 64.7737 243.765 66.9336 239.315C68.0237 237.095 69.1135 234.865 70.2837 232.695C70.8735 231.595 71.4736 230.525 72.1235 229.465C72.7391 228.393 73.4594 227.385 74.2737 226.455C73.4199 227.355 72.6562 228.337 71.9937 229.385C71.3135 230.425 70.6736 231.485 70.0537 232.565C68.8135 234.705 67.6536 236.905 66.4937 239.095C64.2337 243.505 62.0938 247.975 59.9737 252.455C55.7637 261.435 51.7935 270.515 47.8335 279.595C43.9536 288.715 40.1035 297.845 36.3635 307.025C33.3438 314.465 30.3771 321.929 27.4636 329.415C26.0291 328.617 24.727 327.602 23.6035 326.405C21.4611 324.099 20.0275 321.224 19.4736 318.125V318.105C34.8635 264.325 42.9836 261.285 46.5938 243.155C48.7778 232.446 50.3834 221.627 51.4036 210.745C52.5112 211.631 53.9232 212.044 55.3335 211.895C55.3335 211.895 54.5835 215.965 58.5037 215.965H64.2437C64.2437 215.965 63.4937 219.135 67.4136 218.985C69.8636 218.895 71.6035 217.745 73.6236 216.855C75.3783 216.084 76.8691 214.816 77.9122 213.208C78.9552 211.6 79.505 209.722 79.4937 207.805C79.4824 206.976 79.4289 206.149 79.3335 205.325L82.0738 204.795C85.5635 205.105 89.1236 205.275 92.6837 205.235C93.7927 216.971 95.4982 228.643 97.7935 240.205C98.9336 246.005 100.324 251.775 101.974 257.465C102.744 260.315 103.814 263.125 104.614 265.935C105.534 268.725 106.154 271.615 106.854 274.475C109.26 286.033 111.083 297.704 112.314 309.445C113.014 315.315 113.594 321.195 114.144 327.075Z" fill="black"/>
<path d="M134.694 329.565C134.083 329.975 133.484 330.385 132.884 330.805C132.274 331.196 131.639 331.547 130.984 331.855C130.664 332.025 130.354 332.215 130.034 332.375L129.024 332.785C128.37 333.088 127.699 333.352 127.014 333.575C126.324 333.795 125.634 334.015 124.954 334.245L122.853 334.795C122.153 334.995 121.444 335.115 120.734 335.265C120.024 335.415 119.313 335.575 118.594 335.665C117.474 335.865 116.344 336.025 115.214 336.165C114.714 327.215 113.984 318.285 113.083 309.365C111.96 297.576 110.204 285.856 107.824 274.255C107.113 271.375 106.474 268.475 105.524 265.655C104.684 262.785 103.634 260.065 102.844 257.205C101.164 251.555 99.7935 245.815 98.5435 240.045C97.3037 234.275 96.2236 228.465 95.2637 222.635C94.2837 216.855 93.427 211.055 92.6936 205.235C96.8248 205.208 100.947 204.857 105.024 204.185C106.778 204.085 108.476 203.528 109.948 202.568C111.419 201.608 112.614 200.28 113.414 198.715C117.603 241.185 128.614 288.015 134.694 329.565Z" fill="black"/>
<path d="M115.634 344.595C115.524 342.105 115.4 339.612 115.264 337.115C116.434 336.995 117.604 336.855 118.764 336.655C121.683 336.19 124.541 335.398 127.284 334.295C130.034 333.209 132.55 331.603 134.694 329.565C135.103 332.295 135.483 335.005 135.833 337.695C136.484 342.605 125.224 344.155 115.634 344.595Z" fill="black"/>
<path d="M79.9525 30.5141C79.9525 30.5141 95.0547 46.5224 97.471 46.5224C97.471 46.5224 93.5445 51.053 93.5445 53.4694C93.5445 53.4694 78.1403 39.5754 75.4219 34.1386L79.9525 30.5141Z" fill="black"/>
<path d="M79.2346 204.411C81.3906 204.529 83.5376 204.677 85.6904 204.716C87.8423 204.757 89.9902 204.765 92.136 204.713C94.281 204.655 96.4204 204.524 98.5491 204.306C100.676 204.074 102.799 203.829 104.899 203.446L104.928 203.44L105.036 203.435C106.544 203.337 108.001 202.853 109.267 202.028C110.554 201.197 111.628 200.075 112.402 198.752C113.938 195.977 114.769 192.867 114.82 189.695C114.966 186.444 114.78 183.187 114.264 179.973C114.023 178.36 113.71 176.74 113.43 175.104L112.645 170.204C111.606 163.664 111.09 157.067 110.331 150.517C109.571 143.96 108.678 137.418 107.861 130.871C106.222 117.776 104.446 104.707 102.532 91.6635C101.571 85.1442 100.566 78.6304 99.3052 72.1704C98.699 68.9355 98.0081 65.7177 97.1634 62.5446C96.9607 61.7479 96.7417 60.9578 96.4998 60.1745C96.2813 59.3815 96.0061 58.6121 95.7329 57.8395C95.2414 56.2823 94.478 54.8245 93.4783 53.5334L93.6089 53.3972C94.7495 54.6279 95.645 56.0647 96.2476 57.6306C96.5767 58.3946 96.9085 59.1602 97.1817 59.9438C97.4759 60.7216 97.762 61.5026 98.0037 62.2958C99.0125 65.4582 99.865 68.6642 100.632 71.8855C102.118 78.3397 103.353 84.8431 104.434 91.3665C106.581 104.418 108.066 117.556 109.39 130.699C110.054 137.271 110.543 143.86 111.097 150.44L111.966 160.305C112.276 163.584 112.746 166.848 113.341 170.088C113.906 173.346 114.719 176.504 115.394 179.777C116.086 183.059 116.424 186.406 116.4 189.76C116.437 193.223 115.549 196.633 113.829 199.638C112.909 201.179 111.622 202.468 110.084 203.392C108.546 204.316 106.803 204.846 105.011 204.935L105.148 204.925C102.998 205.274 100.831 205.514 98.656 205.642C96.4839 205.768 94.3093 205.804 92.1404 205.766C89.9717 205.735 87.8083 205.615 85.6501 205.406C83.4939 205.216 81.3471 204.933 79.2126 204.599L79.2346 204.411Z" fill="black"/>
<path d="M53.8577 199.456C51.9609 199.015 50.0796 198.509 48.2061 197.972C46.3308 197.433 44.4687 196.874 42.6201 196.203L42.2109 196.055L42.3311 195.564C42.6798 193.872 42.9197 192.159 43.0493 190.436L43.5256 185.171L44.3979 174.617C44.9145 167.574 45.6106 160.542 46.3472 153.513C47.9233 139.46 48.8079 125.354 49.5786 111.236C49.9937 104.179 50.4893 97.1272 51.0654 90.0803C51.6289 83.0313 52.2185 75.984 53.1138 68.9497C53.335 67.191 53.5823 65.4314 53.8557 63.6708C54.1104 61.876 54.5257 60.1078 55.0967 58.3873C56.2681 54.9644 57.9384 51.7331 60.0535 48.798C64.2763 43.0432 69.457 38.0573 75.3694 34.0581L75.4781 34.2124C72.7377 36.4239 70.1564 38.8256 67.7534 41.3998C65.3388 43.9331 63.1576 46.6791 61.2366 49.6045C59.2991 52.4691 57.7943 55.6037 56.7708 58.9071C56.2834 60.559 55.9363 62.2492 55.7332 63.9595C55.4886 65.6936 55.2683 67.4359 55.0725 69.1865C54.2989 76.1866 53.6038 83.216 52.908 90.2431L50.8701 111.339C49.3891 125.397 48.148 139.477 47.5193 153.604C47.1494 160.664 46.7281 167.721 46.0283 174.758L44.9595 185.315C44.7725 187.075 44.5345 188.83 44.2849 190.586C44.0712 192.381 43.7341 194.158 43.2761 195.906L42.9873 195.267C44.7698 195.986 46.5891 196.681 48.4082 197.351C50.2327 198.012 52.0698 198.643 53.9097 199.274L53.8577 199.456Z" fill="black"/>
<path d="M73.0056 41.9917L79.3496 49.1457C81.4595 51.5266 83.5635 53.9084 85.72 56.2382C87.854 58.5889 90.0359 60.8934 92.2888 63.1224C94.516 65.3885 96.8928 67.5025 99.4033 69.45C96.597 67.8925 93.9841 66.0096 91.6187 63.8402C90.3945 62.8013 89.269 61.6628 88.1074 60.559C86.9917 59.4126 85.8699 58.2697 84.7928 57.0881C82.6387 54.7237 80.5625 52.2918 78.5979 49.7719C76.6204 47.2637 74.7429 44.6752 73.0056 41.9917Z" fill="black"/>
<path d="M64.2463 59.5103C65.8899 58.7602 67.6203 58.217 69.3977 57.8933C71.1833 57.5348 73.0053 57.3913 74.825 57.4659C76.6688 57.5282 78.488 57.909 80.202 58.5916C81.9065 59.292 83.387 60.4453 84.4832 61.9266C83.1008 60.8539 81.5376 60.0371 79.8675 59.515C79.4475 59.4121 79.0315 59.3053 78.6201 59.1874C78.201 59.0942 77.7696 59.043 77.3467 58.9681C76.9221 58.8913 76.4935 58.8382 76.063 58.8091C75.6333 58.7575 75.2011 58.7287 74.7683 58.7225C73.0224 58.646 71.2731 58.6927 69.5337 58.8622C67.781 59.021 66.0237 59.2385 64.2463 59.5103Z" fill="black"/>
<path d="M59.7156 177.307C61.6606 178.051 63.5991 178.744 65.5464 179.39C67.499 180.016 69.4536 180.616 71.4404 181.064C73.4191 181.527 75.4272 181.854 77.4507 182.042C79.4944 182.186 81.5475 182.117 83.5771 181.838C81.6151 182.61 79.5269 183.012 77.4184 183.024C75.3098 183.013 73.209 182.767 71.1552 182.289C69.1163 181.801 67.1236 181.137 65.1994 180.305C63.2732 179.497 61.4355 178.492 59.7156 177.307Z" fill="black"/>
<path d="M99.8874 106.063C100.132 106.054 100.364 105.951 100.534 105.775C100.704 105.599 100.799 105.364 100.799 105.119C100.799 104.874 100.704 104.639 100.534 104.463C100.364 104.287 100.132 104.183 99.8874 104.175C99.6427 104.183 99.4109 104.287 99.2408 104.463C99.0707 104.639 98.9756 104.874 98.9756 105.119C98.9756 105.364 99.0707 105.599 99.2408 105.775C99.4109 105.951 99.6427 106.054 99.8874 106.063Z" fill="black"/>
<path d="M103.512 133.549C103.757 133.54 103.988 133.437 104.159 133.261C104.329 133.085 104.424 132.85 104.424 132.605C104.424 132.36 104.329 132.125 104.159 131.949C103.988 131.773 103.757 131.669 103.512 131.661C103.267 131.669 103.035 131.773 102.865 131.949C102.695 132.125 102.6 132.36 102.6 132.605C102.6 132.85 102.695 133.085 102.865 133.261C103.035 133.437 103.267 133.54 103.512 133.549Z" fill="black"/>
<path d="M106.834 154.692C107.079 154.683 107.311 154.58 107.481 154.404C107.651 154.228 107.746 153.993 107.746 153.748C107.746 153.503 107.651 153.268 107.481 153.092C107.311 152.916 107.079 152.812 106.834 152.804C106.59 152.812 106.358 152.916 106.188 153.092C106.018 153.268 105.923 153.503 105.923 153.748C105.923 153.993 106.018 154.228 106.188 154.404C106.358 154.58 106.59 154.683 106.834 154.692Z" fill="black"/>
<path d="M110.761 180.365C111.006 180.357 111.237 180.254 111.408 180.078C111.578 179.902 111.673 179.666 111.673 179.422C111.673 179.177 111.578 178.941 111.408 178.765C111.237 178.589 111.006 178.486 110.761 178.478C110.516 178.486 110.284 178.589 110.114 178.765C109.944 178.941 109.849 179.177 109.849 179.422C109.849 179.666 109.944 179.902 110.114 180.078C110.284 180.254 110.516 180.357 110.761 180.365Z" fill="black"/>
<path d="M80.7655 190.744C81.0389 191.894 81.2484 193.058 81.3929 194.231C81.5558 195.415 81.6048 196.612 81.5391 197.806C81.5123 198.428 81.4034 199.044 81.2151 199.637C80.9974 200.262 80.7711 200.721 80.5897 201.287C80.1947 202.354 79.9073 203.458 79.7317 204.582L79.731 204.443C79.9317 205.55 79.9383 206.69 80.0455 207.816C80.0641 208.99 79.872 210.157 79.4781 211.263C78.6831 213.472 77.1384 215.332 75.1131 216.519C74.6164 216.801 74.1016 217.05 73.5721 217.264L72.0574 217.924C71.0391 218.407 69.9701 218.775 68.8702 219.021C67.7491 219.284 66.5774 219.238 65.4808 218.886C64.9105 218.668 64.4499 218.232 64.1995 217.675C63.97 217.118 63.9106 216.505 64.0286 215.914L64.2435 216.186C62.2779 216.185 60.3311 216.28 58.3502 216.301C57.7958 216.335 57.2416 216.232 56.7371 215.999C56.2325 215.767 55.7932 215.414 55.4583 214.971C54.8761 214.025 54.6566 212.9 54.8404 211.804L55.3465 212.397C54.6006 212.438 53.8524 212.378 53.1226 212.218C52.3462 212.053 51.6241 211.695 51.023 211.177C50.4221 210.63 49.9864 209.925 49.7652 209.144C49.545 208.382 49.486 207.583 49.5919 206.797L49.9666 207.48C49.261 207.2 48.5773 206.868 47.921 206.486C47.1649 206.079 46.5402 205.466 46.1202 204.717C45.8934 204.232 45.8613 203.678 46.0306 203.17C46.1954 202.725 46.4648 202.326 46.8162 202.006C47.4652 201.418 48.2875 201.055 49.16 200.973C50.4805 200.896 51.7461 200.418 52.7877 199.603C53.765 198.753 54.3719 197.556 54.4788 196.265L54.482 196.324L54.3934 194.431C54.4129 193.798 54.431 193.164 54.4722 192.533C54.5922 191.265 54.8807 190.018 55.3301 188.826C55.7743 187.63 56.4466 186.532 57.3096 185.592C58.1603 184.653 59.2358 183.945 60.4351 183.535L60.4722 183.655C59.3719 184.17 58.4109 184.941 57.6697 185.903C56.937 186.853 56.3806 187.926 56.0272 189.072C55.683 190.219 55.4836 191.405 55.4336 192.602C55.4188 193.203 55.4256 193.805 55.4297 194.405L55.5853 196.207L55.5889 196.249L55.5884 196.265C55.5662 197.076 55.3809 197.873 55.0435 198.61C54.7062 199.347 54.2238 200.009 53.6251 200.555C52.3968 201.57 50.887 202.183 49.2994 202.312C48.7183 202.365 48.1692 202.602 47.7322 202.988C47.5444 203.156 47.397 203.364 47.3011 203.597C47.269 203.689 47.2558 203.787 47.2622 203.885C47.2685 203.982 47.2944 204.078 47.3382 204.165C47.6439 204.678 48.0803 205.101 48.6028 205.39C49.1916 205.748 49.8058 206.062 50.4405 206.331L50.8892 206.531L50.8155 207.014C50.729 207.616 50.7633 208.229 50.9166 208.817C51.0631 209.391 51.3674 209.913 51.795 210.323C52.7952 211.108 54.0529 211.49 55.3206 211.394L55.9236 211.388L55.827 211.986C55.661 212.839 55.7855 213.723 56.1805 214.497C56.4246 214.849 56.7526 215.136 57.1349 215.33C57.5173 215.524 57.9419 215.62 58.3707 215.61C59.3301 215.654 60.326 215.665 61.3018 215.694C62.2823 215.724 63.263 215.739 64.2435 215.744L64.5115 215.745L64.4588 216.016C64.353 216.516 64.3942 217.036 64.5774 217.513C64.6766 217.744 64.8204 217.953 65.0007 218.129C65.1811 218.305 65.3943 218.443 65.6282 218.535C66.6526 218.851 67.745 218.872 68.7808 218.597C69.8357 218.327 70.8507 217.92 71.7996 217.386C72.7679 216.849 73.8209 216.418 74.6841 215.837C76.4326 214.638 77.7445 212.904 78.4224 210.895C78.7556 209.906 78.9306 208.871 78.941 207.827C78.8607 206.75 78.886 205.665 78.7164 204.588L78.7046 204.513L78.7156 204.448C78.9276 203.253 79.261 202.082 79.7105 200.954C79.9188 200.41 80.2378 199.822 80.4307 199.347C80.6272 198.829 80.7546 198.287 80.8096 197.735C80.9273 196.584 80.9608 195.426 80.9097 194.27C80.8685 193.103 80.7671 191.933 80.6419 190.767L80.7655 190.744Z" fill="black"/>
<path d="M50.2012 206.593L52.8882 206.672C53.7613 206.761 54.6435 206.682 55.4868 206.439C56.3266 206.167 57.0919 205.704 57.7229 205.087L59.7156 203.283L57.8318 205.2C57.2132 205.878 56.4463 206.403 55.5911 206.735C54.7241 207.042 53.8069 207.18 52.8882 207.143L50.2012 207.222V206.593Z" fill="black"/>
<path d="M55.3359 211.577L58.1567 211.646C59.0733 211.619 59.9684 211.362 60.76 210.899C61.5447 210.394 62.2367 209.758 62.8057 209.018L64.6992 206.907L62.9255 209.119C62.3818 209.912 61.7056 210.604 60.9265 211.166C60.1062 211.708 59.1631 212.035 58.1836 212.117L55.336 212.206L55.3359 211.577Z" fill="black"/>
<path d="M64.1724 215.663C65.0137 215.471 65.9197 215.33 66.7078 215.097C67.5136 214.832 68.2473 214.384 68.8517 213.789C69.4344 213.15 69.927 212.435 70.3161 211.663L71.6462 209.399L70.454 211.739C70.1017 212.554 69.6393 213.316 69.0798 214.006C68.4705 214.681 67.7137 215.206 66.8681 215.541C65.9931 215.854 65.1711 216.026 64.32 216.275L64.1724 215.663Z" fill="black"/>
<path d="M72.0993 185.802C72.344 185.794 72.5758 185.691 72.7459 185.514C72.916 185.338 73.0111 185.103 73.0111 184.858C73.0111 184.613 72.916 184.378 72.7459 184.202C72.5758 184.026 72.344 183.923 72.0993 183.914C71.8546 183.923 71.6228 184.026 71.4527 184.202C71.2826 184.378 71.1875 184.613 71.1875 184.858C71.1875 185.103 71.2826 185.338 71.4527 185.514C71.6228 185.691 71.8546 185.794 72.0993 185.802Z" fill="black"/>
<path d="M88.3672 149.76C90.1634 149.384 91.9333 148.891 93.6658 148.285C94.4976 147.977 95.2989 147.592 96.0591 147.135C96.7551 146.774 97.2805 146.153 97.521 145.406L98.4629 140.438L98.6402 145.505C98.7708 149.247 98.3838 152.996 98.4561 156.736C98.4876 160.478 98.855 164.216 98.9373 167.96L99.0279 173.581L99.0117 174.988C99.018 175.481 98.9967 175.974 98.9478 176.464C98.7976 177.52 98.3454 178.51 97.6458 179.315C96.9439 180.103 96.0265 180.668 95.0068 180.941C94.0658 181.169 93.1055 181.309 92.1384 181.359C91.1676 181.426 90.1923 181.348 89.2446 181.127C88.7643 181.021 88.3107 180.818 87.9116 180.531C87.5125 180.243 87.1763 179.877 86.9236 179.455L87.0298 179.388C87.6186 180.076 88.4556 180.504 89.3584 180.578C90.2553 180.685 91.163 180.659 92.0525 180.502C92.9463 180.363 93.83 180.165 94.6975 179.909C95.4729 179.638 96.157 179.155 96.6727 178.516C97.1883 177.876 97.5151 177.106 97.6159 176.29C97.6604 175.914 97.6582 175.43 97.6689 174.965L97.6919 173.567L97.8079 167.964C97.8648 164.226 98.149 160.482 98.0769 156.742C98.0437 153.001 97.5305 149.268 97.5103 145.529L98.6292 145.628C98.4747 146.145 98.2156 146.625 97.868 147.038C97.5203 147.451 97.0915 147.788 96.6082 148.029C95.7625 148.494 94.8636 148.855 93.9312 149.103C92.1204 149.594 90.2556 149.856 88.3799 149.885L88.3672 149.76Z" fill="black"/>
<path d="M106.457 112.655C107.3 110.613 108.752 108.88 110.614 107.691C111.568 107.273 112.491 106.787 113.376 106.238C114.22 105.645 115.026 104.999 115.789 104.305C116.594 103.628 117.377 102.932 118.138 102.215C118.523 101.861 118.897 101.499 119.258 101.127L119.787 100.562C119.949 100.379 120.132 100.179 120.361 99.9526C120.798 99.543 121.33 99.2477 121.909 99.093C122.487 98.9382 123.095 98.9288 123.679 99.0656C124.226 99.1938 124.732 99.46 125.147 99.8388C125.563 100.218 125.874 100.697 126.052 101.23C125.793 100.792 125.434 100.422 125.003 100.151C124.572 99.8806 124.083 99.717 123.576 99.6741C123.11 99.6293 122.64 99.6935 122.203 99.8618C121.766 100.03 121.374 100.298 121.059 100.643C120.924 100.805 120.765 101.01 120.595 101.242C120.425 101.456 120.25 101.667 120.071 101.871C119.714 102.282 119.348 102.68 118.971 103.067C118.211 103.834 117.414 104.555 116.606 105.26C115.788 105.984 114.919 106.648 114.005 107.246C113.061 107.779 112.07 108.223 111.043 108.571C110.128 109.005 109.294 109.593 108.577 110.308C107.806 111.03 107.097 111.815 106.457 112.655Z" fill="black"/>
<path d="M122.312 99.4071C122.528 101.414 122.823 103.402 123.165 105.373C123.501 107.335 123.941 109.279 124.482 111.195C124.995 113.08 125.759 114.888 126.754 116.569C127.183 117.387 127.785 118.101 128.517 118.663C129.25 119.225 130.096 119.62 130.997 119.822L131.029 119.827L131.076 119.839C131.446 119.947 131.835 119.974 132.217 119.919C132.599 119.864 132.964 119.728 133.289 119.519C133.9 118.959 134.29 118.197 134.388 117.373C134.51 116.471 134.532 115.558 134.452 114.651C134.4 113.725 134.215 112.811 134.094 111.877C134.411 112.764 134.666 113.673 134.858 114.595C135.075 115.534 135.161 116.499 135.113 117.462C135.083 118.52 134.643 119.525 133.885 120.263C133.457 120.62 132.943 120.858 132.393 120.952C131.854 121.045 131.302 121.029 130.769 120.905L130.848 120.922C129.738 120.788 128.688 120.348 127.813 119.652C126.977 118.972 126.261 118.157 125.695 117.24C124.631 115.456 123.851 113.518 123.381 111.494C122.895 109.516 122.569 107.502 122.406 105.472C122.229 103.455 122.198 101.428 122.312 99.4071Z" fill="black"/>
<path d="M117.832 103.328C117.835 105.568 117.945 107.797 118.163 110.017C118.363 112.231 118.727 114.427 119.251 116.588C119.74 118.747 120.522 120.829 121.577 122.775C122.621 124.742 124.165 126.4 126.052 127.582C124.004 126.582 122.3 124.994 121.16 123.02C120.013 121.063 119.164 118.945 118.641 116.737C118.132 114.541 117.811 112.305 117.683 110.054C117.543 107.812 117.593 105.562 117.832 103.328Z" fill="black"/>
<path d="M121.408 113.274C121.653 113.266 121.884 113.162 122.055 112.986C122.225 112.81 122.32 112.575 122.32 112.33C122.32 112.085 122.225 111.85 122.055 111.674C121.884 111.498 121.653 111.395 121.408 111.386C121.163 111.395 120.931 111.498 120.761 111.674C120.591 111.85 120.496 112.085 120.496 112.33C120.496 112.575 120.591 112.81 120.761 112.986C120.931 113.162 121.163 113.266 121.408 113.274Z" fill="black"/>
<path d="M109.897 142.466C111.308 139.844 113.101 137.447 115.218 135.352C117.315 133.193 119.753 131.394 122.434 130.025C123.108 129.688 123.799 129.384 124.504 129.116L125.562 128.725L126.054 128.537L126.546 128.328C127.868 127.751 129.142 127.074 130.36 126.302C132.833 124.859 134.88 122.786 136.292 120.295L136.308 120.262C136.65 119.544 136.886 118.779 137.007 117.993C137.135 117.176 137.204 116.351 137.213 115.524C137.225 114.687 137.184 113.85 137.089 113.019C136.989 112.184 136.855 111.351 136.699 110.518L137.084 111.731C137.19 112.141 137.296 112.554 137.387 112.97C137.568 113.806 137.696 114.653 137.768 115.506C137.842 116.368 137.831 117.235 137.738 118.095C137.656 118.99 137.438 119.866 137.09 120.694L137.105 120.662C135.773 123.431 133.658 125.749 131.021 127.327C129.759 128.154 128.428 128.873 127.044 129.476L126.516 129.694L125.973 129.895L124.951 130.26C124.275 130.509 123.612 130.792 122.964 131.107C122.306 131.4 121.687 131.775 121.046 132.104C120.433 132.487 119.81 132.856 119.215 133.268C118.01 134.081 116.861 134.974 115.775 135.941C113.583 137.895 111.612 140.083 109.897 142.466Z" fill="black"/>
<path d="M122.686 105.101C122.931 104.26 123.298 103.459 123.775 102.725C124.253 101.97 124.89 101.329 125.642 100.846C126.421 100.356 127.338 100.13 128.256 100.204C129.16 100.274 130.041 100.522 130.849 100.934L130.853 100.936L130.896 100.963C131.008 101.037 131.135 101.082 131.269 101.096C131.317 101.099 131.365 101.089 131.409 101.069C131.453 101.048 131.49 101.016 131.519 100.977C131.691 100.706 131.787 100.394 131.797 100.074C131.834 99.3042 131.805 98.533 131.71 97.7686C131.576 96.1636 131.572 94.5504 131.698 92.9447C131.756 92.1152 131.903 91.2942 132.135 90.4957C132.207 90.2711 132.303 90.0549 132.421 89.851C132.502 89.696 132.617 89.5614 132.758 89.4572C132.898 89.353 133.06 89.282 133.232 89.2494C133.428 89.2309 133.625 89.27 133.799 89.3618C133.91 89.4155 134.017 89.4776 134.118 89.5477C134.312 89.6789 134.49 89.8305 134.651 89.9999C135.774 91.316 136.407 92.9802 136.443 94.71C136.473 96.3163 136.497 97.8885 136.677 99.3962C136.699 99.5648 136.732 99.7318 136.777 99.896C136.779 99.9439 136.859 100.042 136.751 99.9147C136.727 99.8923 136.7 99.874 136.67 99.8606C136.616 99.8293 136.555 99.8108 136.492 99.8064C136.394 99.7983 136.296 99.8219 136.212 99.8737C136.127 99.9368 136.145 99.9307 136.145 99.9307C136.306 99.6096 136.449 99.2802 136.575 98.9439C136.848 98.2209 137.081 97.4837 137.274 96.7353C137.697 95.2765 137.847 93.7521 137.717 92.2388C137.577 91.4123 137.562 90.5694 137.675 89.7386C137.761 88.8837 138.03 88.0572 138.462 87.3146L138.677 87.0323C138.769 86.9436 138.871 86.8589 138.97 86.7771C139.095 86.7044 139.227 86.6442 139.363 86.5976C139.514 86.5766 139.666 86.5729 139.817 86.5867C140.289 86.7366 140.69 87.051 140.949 87.4723C141.418 88.1465 141.803 88.8751 142.096 89.6422C142.383 90.4119 142.559 91.2187 142.618 92.038C142.649 92.4446 142.649 92.8515 142.648 93.2499C142.635 93.6607 142.587 94.0696 142.503 94.4719C142.225 96.0355 141.774 97.5978 141.579 99.1094C141.577 99.1441 141.578 99.1789 141.581 99.2136C141.564 99.2029 141.62 99.2109 141.486 99.1223C141.434 99.108 141.465 99.1097 141.452 99.1116C141.525 99.0892 141.597 99.0592 141.664 99.0222C141.827 98.9308 141.982 98.8264 142.129 98.71C142.429 98.4723 142.704 98.2039 142.95 97.9093C143.435 97.3098 143.81 96.6289 144.057 95.8983C144.433 94.3776 144.598 92.8127 144.549 91.2472C144.533 89.6492 144.608 88.0515 144.772 86.4619C144.843 85.5967 145.22 84.7852 145.835 84.1729C146.153 83.8506 146.542 83.6074 146.97 83.4628C147.399 83.3182 147.856 83.2763 148.304 83.3406C148.776 83.4452 149.196 83.7122 149.491 84.095C149.759 84.4491 149.958 84.8506 150.077 85.2784C150.3 86.0715 150.435 86.8871 150.477 87.7101C150.576 89.3154 150.563 90.9257 150.438 92.5293C150.376 93.3295 150.301 94.1275 150.185 94.9311C150.132 95.3534 150.048 95.7713 149.936 96.1819L149.903 96.3199C149.905 96.3092 149.904 96.2979 149.9 96.2878C149.893 96.2888 149.893 96.2667 149.869 96.1991C149.817 96.111 149.736 96.0445 149.639 96.0114C149.507 95.988 149.555 96.0113 149.599 95.9805C149.658 95.9538 149.716 95.9233 149.771 95.8891C150.338 95.4778 150.804 94.9435 151.134 94.3261C151.457 93.6832 151.642 92.9798 151.677 92.2612C151.823 90.7319 151.822 89.1493 151.83 87.5666C151.84 86.7641 151.822 85.9973 151.889 85.1281L151.911 84.9498L151.922 84.8607L151.964 84.7035C152.004 84.575 152.058 84.4516 152.126 84.3357C152.217 84.16 152.321 83.9662 152.437 83.7779C152.683 83.351 153.018 82.9818 153.419 82.6953C153.674 82.5294 153.965 82.4289 154.268 82.4027C154.571 82.3764 154.875 82.4253 155.155 82.5449C155.626 82.7506 156.035 83.0768 156.34 83.4908C156.837 84.2395 157.157 85.0924 157.273 85.9837C157.52 87.5915 157.628 89.2176 157.595 90.844L157.593 92.0312L157.603 92.5826C157.622 92.7502 157.653 92.9163 157.695 93.0796C157.879 93.9071 157.958 94.7544 157.932 95.6018C157.902 96.4839 157.695 97.351 157.323 98.1513C156.941 98.964 156.351 99.6612 155.613 100.172C154.239 101.138 152.863 101.879 151.473 102.671L143.129 107.258C140.346 108.775 137.56 110.287 134.825 111.883C133.463 112.69 132.097 113.488 130.763 114.339C130.113 114.785 129.44 115.206 128.814 115.684L127.88 116.41L127.046 117.239L126.945 117.162L127.753 116.27L128.658 115.486C129.265 114.968 129.917 114.511 130.55 114.026C131.849 113.107 133.162 112.209 134.507 111.36C137.193 109.66 139.922 108.034 142.659 106.426L150.889 101.658C152.241 100.858 153.631 100.032 154.847 99.1687C155.413 98.7521 155.872 98.2064 156.185 97.577C156.498 96.9476 156.657 96.2525 156.647 95.5495C156.666 94.8096 156.591 94.0702 156.426 93.3487C156.37 93.128 156.33 92.9033 156.307 92.6766C156.294 92.4421 156.291 92.2411 156.291 92.0392L156.287 90.8474C156.311 89.3007 156.203 87.7547 155.964 86.2264C155.871 85.5414 155.64 84.8824 155.286 84.289C155.122 84.0595 154.904 83.8745 154.65 83.751C154.567 83.7075 154.474 83.6874 154.38 83.6928C154.287 83.6982 154.196 83.729 154.119 83.7818C153.876 83.9631 153.673 84.1917 153.522 84.4538C153.428 84.6018 153.341 84.7559 153.248 84.9313C153.208 85.002 153.113 85.1787 153.166 85.1028L153.167 85.0883L153.159 85.1467L153.144 85.2634C153.08 85.9751 153.08 86.7969 153.063 87.5796C153.033 89.1673 153.018 90.7621 152.842 92.3898C152.781 93.2591 152.54 94.1063 152.135 94.8781C151.705 95.6607 151.09 96.3262 150.344 96.8164C150.229 96.8845 150.109 96.9429 149.985 96.9911C149.792 97.0755 149.577 97.0965 149.371 97.0511C149.273 97.0295 149.181 96.9859 149.103 96.9235C149.025 96.8612 148.962 96.7817 148.919 96.6913C148.876 96.6231 148.851 96.5453 148.847 96.465C148.84 96.405 148.837 96.3447 148.838 96.2843C148.84 96.1984 148.854 96.1133 148.881 96.0316L148.934 95.8445C149.036 95.4915 149.116 95.1323 149.173 94.7691C149.304 94.0058 149.399 93.2262 149.481 92.4471C149.646 90.8907 149.701 89.3248 149.648 87.7607C149.63 86.9976 149.528 86.2388 149.343 85.4982C149.297 85.1681 149.161 84.8567 148.952 84.5973C148.743 84.3379 148.467 84.14 148.154 84.0248C147.814 83.9758 147.467 84.0052 147.141 84.1107C146.814 84.2162 146.515 84.3951 146.268 84.6337C145.734 85.138 145.4 85.8187 145.328 86.55C145.113 88.11 145.004 89.6828 145.002 91.2576C145.035 92.8663 144.846 94.4718 144.438 96.0285C144.168 96.8011 143.762 97.5196 143.24 98.1502C142.982 98.4687 142.691 98.7598 142.373 99.0188C142.211 99.1519 142.038 99.2713 141.856 99.3759C141.751 99.4364 141.638 99.4823 141.521 99.5124C141.461 99.5238 141.4 99.5209 141.341 99.504C141.158 99.3912 141.211 99.3432 141.178 99.287C141.169 99.2233 141.165 99.1588 141.168 99.0944C141.354 97.4559 141.778 95.9523 142.03 94.3892C142.103 94.0139 142.144 93.633 142.151 93.2507C142.152 92.8617 142.132 92.473 142.09 92.0862C142.008 91.3233 141.817 90.5761 141.523 89.8672C141.224 89.1615 140.839 88.4946 140.379 87.8814C140.159 87.6246 139.896 87.3344 139.686 87.319C139.515 87.2842 139.296 87.4445 139.121 87.7442C138.784 88.3937 138.586 89.1059 138.538 89.8359C138.463 90.5832 138.502 91.3376 138.655 92.073C138.879 93.72 138.759 95.3955 138.304 96.9939C138.11 97.784 137.873 98.5628 137.593 99.3269C137.448 99.736 137.275 100.135 137.075 100.52C137.009 100.63 136.919 100.725 136.813 100.798C136.689 100.88 136.542 100.917 136.395 100.906C136.308 100.897 136.224 100.872 136.146 100.833C136.097 100.804 136.05 100.77 136.007 100.732C135.868 100.591 135.768 100.416 135.718 100.225C135.655 100.007 135.607 99.7853 135.575 99.5611C135.394 97.9636 135.32 96.3559 135.353 94.7486C135.344 93.2778 134.835 91.8538 133.912 90.7094C133.802 90.589 133.679 90.4811 133.545 90.3875C133.485 90.3435 133.421 90.3046 133.354 90.2711C133.279 90.2296 133.331 90.2664 133.351 90.2505C133.429 90.2279 133.342 90.247 133.272 90.3756C133.191 90.5146 133.125 90.6617 133.074 90.8145C132.857 91.5382 132.716 92.2828 132.653 93.0359C132.507 94.5922 132.467 96.1567 132.535 97.7184C132.607 98.5316 132.608 99.3496 132.538 100.163C132.503 100.637 132.327 101.09 132.031 101.463C131.929 101.574 131.804 101.66 131.664 101.715C131.524 101.77 131.373 101.792 131.223 101.781C130.959 101.753 130.708 101.655 130.496 101.497L130.542 101.526C130.163 101.365 129.794 101.163 129.406 101.032C129.019 100.901 128.619 100.813 128.213 100.771C127.4 100.66 126.573 100.818 125.858 101.221C125.131 101.639 124.503 102.209 124.019 102.894C123.513 103.582 123.104 104.336 122.806 105.137L122.686 105.101Z" fill="black"/>
<path d="M128.865 100.8L123.248 92.985L153.487 74.227L164.301 83.063L156.994 87.877L156.647 87.352L163.239 83.008L153.437 74.998L124.153 93.165L129.376 100.433L128.865 100.8Z" fill="black"/>
<path d="M130.649 88.7645C131.048 87.4673 131.578 86.2141 132.23 85.0243C132.869 83.8101 133.638 82.6696 134.525 81.623C134.998 81.0691 135.549 80.5869 136.161 80.1915C136.527 79.9592 136.945 79.8241 137.378 79.7991C137.632 79.7929 137.884 79.8477 138.113 79.959C138.311 80.0655 138.487 80.2085 138.632 80.3806C138.918 80.646 139.143 80.9696 139.293 81.3295C139.443 81.6894 139.514 82.0773 139.502 82.467C139.442 82.8315 139.288 83.174 139.054 83.4602C138.821 83.7464 138.516 83.9663 138.171 84.098C138.404 83.8935 138.589 83.6401 138.712 83.3558C138.835 83.0716 138.894 82.7637 138.884 82.454C138.758 81.8983 138.426 81.4112 137.955 81.0915C137.89 81.0201 137.809 80.9653 137.719 80.9321C137.628 80.8988 137.531 80.8879 137.436 80.9003C137.201 80.9481 136.981 81.0514 136.794 81.2015C136.299 81.56 135.853 81.9815 135.468 82.4551C134.617 83.4097 133.849 84.4841 133.059 85.5455C132.277 86.6169 131.498 87.7004 130.649 88.7645Z" fill="black"/>
<path d="M84.4822 263.775C84.3689 263.367 73.1423 222.905 71.3499 217.898L71.9426 217.685C73.7424 222.715 84.9753 263.199 85.0886 263.607L84.4822 263.775Z" fill="black"/>
<path d="M17.9456 327.654C17.6631 328.904 17.2983 330.128 16.9124 331.345C16.5266 332.563 16.0764 333.757 15.6328 334.956C15.1423 336.136 14.6572 337.32 14.0754 338.465C13.7808 339.034 13.4724 339.599 13.1289 340.145C12.9505 340.415 12.7581 340.676 12.5525 340.926C12.3669 341.198 12.0865 341.391 11.7661 341.468C12.3401 341.198 12.5718 340.532 12.8606 339.992C13.1426 339.428 13.3982 338.849 13.636 338.261C14.1199 337.09 14.6057 335.917 15.0479 334.726L16.4592 331.181C16.9387 330.001 17.4172 328.821 17.9456 327.654Z" fill="black"/>
<path d="M33.1829 338.622C32.928 339.696 32.5785 340.745 32.1385 341.756C31.9229 342.258 31.7041 342.759 31.47 343.251C31.2517 343.752 30.9722 344.22 30.795 344.747C30.761 344.183 30.8337 343.618 31.0094 343.081C31.16 342.548 31.3433 342.024 31.5584 341.514C31.9767 340.486 32.5225 339.514 33.1829 338.622Z" fill="black"/>
<path d="M68.5237 375.515C67.4766 373.478 65.6809 371.926 63.5137 371.185C51.4437 366.805 37.1236 348.275 33.1837 344.745C29.0037 341.005 24.9037 347.815 19.4737 349.165C14.0537 350.525 14.7137 342.605 10.4036 341.685C6.10359 340.765 3.38358 358.235 3.38358 358.235L0.663574 363.665C3.61357 365.935 11.7637 368.875 11.7637 368.875L14.8535 367.065C36.9736 381.795 62.9636 383.605 62.9636 383.605C69.8438 381.695 69.8438 378.205 68.5237 375.515ZM12.0635 363.955C11.1805 363.646 10.3216 363.271 9.49371 362.835C7.84331 361.971 6.32187 360.881 4.97369 359.595C6.68492 360.276 8.35157 361.065 9.96371 361.955L12.3636 363.235C13.1564 363.684 13.9902 364.055 14.8536 364.345C13.9057 364.443 12.9484 364.309 12.0635 363.955ZM45.2935 362.625C44.7037 362.965 44.1236 363.225 43.5538 363.505C42.9837 363.785 42.4236 364.065 41.8736 364.355C40.7537 364.915 39.6837 365.535 38.4937 366.155C38.8172 365.561 39.2478 365.032 39.7637 364.595C40.2628 364.149 40.8174 363.769 41.4136 363.465C42.6003 362.821 43.9465 362.53 45.2935 362.625H45.2935ZM41.8936 358.235C40.3654 358.766 38.892 359.442 37.4937 360.255C36.0738 361.035 34.7037 361.885 33.1837 362.625C33.6911 361.953 34.2788 361.345 34.9337 360.815C35.5815 360.275 36.2778 359.797 37.0137 359.385C37.7525 358.97 38.5379 358.645 39.3536 358.415C40.1762 358.166 41.0441 358.105 41.8936 358.235ZM32.1636 354.805C33.1566 354.363 34.1875 354.012 35.2437 353.755C36.3032 353.449 37.4253 353.432 38.4937 353.705C37.4503 353.824 36.4297 354.093 35.4637 354.505C34.4937 354.885 33.5338 355.285 32.5738 355.725C30.6436 356.565 28.7437 357.475 26.7137 358.235C28.3536 356.833 30.1896 355.677 32.1636 354.805V354.805ZM60.2137 378.435C59.2935 378.365 58.3636 378.325 57.4537 378.195C55.6336 377.955 53.8038 377.735 51.9937 377.355C44.7254 375.994 37.6902 373.596 31.1035 370.235C29.4536 369.405 27.8438 368.495 26.2637 367.545C24.6955 366.581 23.1831 365.53 21.7337 364.395C24.8548 366.315 28.0946 368.036 31.4337 369.545C38.0863 372.587 45.0279 374.952 52.1537 376.605C55.7037 377.475 59.3239 378.025 62.9637 378.595C62.0435 378.555 61.1236 378.495 60.2137 378.435Z" fill="black"/>
<path d="M106.448 344.734C106.933 346.563 107.303 348.421 107.556 350.296C107.838 352.167 108 354.054 108.042 355.946C107.556 354.117 107.186 352.26 106.934 350.384C106.654 348.513 106.492 346.626 106.448 344.734Z" fill="black"/>
<path d="M123.862 343.904C124.28 345.602 124.556 347.304 124.863 348.998C125.008 349.846 125.165 350.689 125.342 351.525C125.43 351.94 125.539 352.35 125.668 352.754C125.728 352.955 125.81 353.148 125.912 353.33C125.953 353.424 126.02 353.505 126.105 353.564C126.189 353.622 126.289 353.656 126.392 353.661C126.279 353.688 126.16 353.681 126.051 353.641C125.942 353.6 125.848 353.528 125.781 353.433C125.629 353.264 125.497 353.079 125.387 352.88C125.179 352.488 125.005 352.078 124.869 351.656C124.6 350.822 124.391 349.971 124.243 349.108C123.934 347.391 123.807 345.647 123.862 343.904Z" fill="black"/>
<path d="M154.034 364.395C152.094 363.915 150.284 363.435 148.603 362.955C147.19 364.891 145.264 366.394 143.043 367.295C143.722 366.313 144.556 365.448 145.514 364.735C146.444 363.983 147.486 363.383 148.603 362.955C146.233 362.285 144.123 361.625 142.234 360.985C141.421 362.102 140.455 363.099 139.363 363.945C138.298 364.828 137.117 365.562 135.853 366.125C136.678 365.018 137.646 364.026 138.734 363.175C139.793 362.287 140.971 361.55 142.234 360.985C130.684 357.065 127.353 353.815 126.393 353.665C126.393 353.665 121.623 363.645 108.043 355.945C109.063 354.745 102.094 359.315 104.153 366.155C105.371 370.066 105.371 374.254 104.153 378.165H115.643C115.643 378.165 117.034 369.785 123.863 373.635L129.563 378.165C129.563 378.165 158.284 380.215 169.504 375.385C166.237 376.154 162.889 376.527 159.534 376.495C156.184 376.555 152.833 376.435 149.494 376.265C146.154 376.055 142.824 375.805 139.504 375.425C136.174 375.065 132.863 374.655 129.563 374.085C132.904 374.245 136.234 374.465 139.563 374.665L149.554 375.265C152.883 375.455 156.204 375.605 159.534 375.725C161.194 375.765 162.863 375.795 164.524 375.745C166.19 375.745 167.854 375.625 169.504 375.385C171.003 374.849 172.316 373.89 173.284 372.625C173.284 372.625 175.324 369.645 154.034 364.395ZM111.853 373.135C111.083 373.144 110.314 373.087 109.554 372.965C108.032 372.742 106.554 372.283 105.173 371.605C106.695 371.591 108.214 371.715 109.713 371.975C110.453 372.095 111.183 372.215 111.923 372.365C112.663 372.495 113.383 372.645 114.163 372.725C113.431 373.024 112.644 373.163 111.853 373.135ZM131.973 360.855C130.962 361.608 129.843 362.205 128.653 362.625C129.432 361.636 130.352 360.766 131.383 360.045C132.395 359.298 133.51 358.702 134.693 358.275C133.924 359.269 133.007 360.139 131.973 360.855V360.855Z" fill="black"/>
<path d="M79.9524 30.514C80.2925 29.4816 80.6889 28.4685 81.1399 27.4794L81.7673 26.0072C81.9856 25.5183 82.1371 25.0023 82.2178 24.4731C82.3802 25.0191 82.3869 25.5995 82.2373 26.1491C82.1128 26.691 81.9386 27.2202 81.7168 27.73C81.2823 28.7469 80.6865 29.687 79.9524 30.514Z" fill="black"/>
<path d="M92.3364 20.8487C92.3364 20.8487 83.852 27.0837 81.8267 26.6091C81.8267 26.6091 79.9525 15.7138 82.2426 11.4853C83.6624 8.86345 86.2954 -1.20052 101.549 0.61167C116.802 2.42386 117.859 17.2242 117.859 17.2242C116.469 17.4425 115.007 17.6234 113.479 17.7528C109.254 18.1086 105.003 18.0327 100.793 17.5262C100.793 17.5262 97.32 12.3915 93.5444 16.6201C92.7559 17.8897 92.3375 19.3542 92.3364 20.8487Z" fill="black"/>
<path d="M117.859 17.2241C117.548 19.2485 117.165 21.2649 116.938 23.2839C116.857 23.7449 116.838 24.2145 116.881 24.6805C117.037 25.1306 117.249 25.5593 117.512 25.9565C118.035 26.8088 118.639 27.6309 119.203 28.51C119.519 28.9701 119.778 29.4672 119.974 29.9902C120.037 30.179 120.063 30.3785 120.049 30.5772C120.018 30.7987 119.932 31.0088 119.799 31.1884C119.565 31.4623 119.26 31.666 118.918 31.7767C118.639 31.8791 118.379 31.9436 118.153 32.0137C117.943 32.0616 117.699 32.2087 117.792 32.1499C117.813 32.1176 117.827 32.0811 117.833 32.0429C117.831 31.988 117.825 32.0968 117.818 32.139L117.794 32.3051C117.757 32.4567 117.724 32.5927 117.684 32.7251C117.607 32.9849 117.523 33.2383 117.434 33.4853C116.708 35.454 115.751 37.3294 114.582 39.0721C113.422 40.8989 111.825 42.4076 109.935 43.4615C108.918 43.9107 107.809 44.1138 106.698 44.0544C105.587 43.995 104.506 43.6747 103.542 43.1195C103.076 42.8541 102.641 42.5359 102.248 42.1713L101.064 41.1552L100.474 40.6481C100.243 40.4648 100.145 40.3374 99.9834 40.2955C99.5683 40.2082 99.1356 40.2892 98.7803 40.5208C97.9169 41.0087 97.16 41.6646 96.5542 42.4498C95.9157 43.2422 95.3698 44.1049 94.927 45.0211C95.2486 44.0388 95.7062 43.1064 96.2864 42.251C96.8563 41.3549 97.6018 40.5835 98.4778 39.9831C98.7235 39.8074 99.0029 39.6844 99.2984 39.6218C99.5939 39.5592 99.8992 39.5584 100.195 39.6195C100.362 39.6623 100.518 39.7403 100.653 39.8484C100.805 39.9539 100.868 40.0096 100.98 40.0927L101.581 40.552L102.78 41.469C103.693 42.2287 104.8 42.7169 105.976 42.8781C107.153 43.0393 108.351 42.8669 109.434 42.3806C111.106 41.3895 112.516 40.0109 113.544 38.3611C114.668 36.7098 115.599 34.9354 116.32 33.0724C116.411 32.8408 116.494 32.6108 116.57 32.3825L116.665 32.0634L116.67 32.0402C116.675 32.0194 116.677 32.0649 116.688 31.9472C116.7 31.7806 116.76 31.6211 116.86 31.487C117.001 31.3032 117.19 31.1625 117.407 31.0806C117.548 31.0231 117.693 30.9749 117.84 30.9364C118.104 30.864 118.343 30.8102 118.547 30.7414C118.696 30.7014 118.833 30.6276 118.949 30.5257C118.968 30.4985 118.982 30.4685 118.991 30.4367C118.986 30.38 118.976 30.3238 118.962 30.2687C118.815 29.8272 118.619 29.4038 118.377 29.0064C117.885 28.1333 117.323 27.271 116.825 26.3501C116.549 25.8765 116.337 25.3687 116.194 24.8396C116.15 24.2856 116.197 23.7282 116.333 23.1894C116.769 21.1709 117.271 19.1903 117.859 17.2241Z" fill="black"/>
<path d="M92.3361 20.8486C92.4768 21.7712 92.8723 22.6361 93.4779 23.3461C93.7856 23.6654 94.1603 23.9124 94.5751 24.0692C95.0257 24.2399 95.4891 24.375 95.9609 24.4731C95.7133 24.5323 95.4622 24.5757 95.2091 24.603C94.9491 24.6131 94.6887 24.5918 94.4338 24.5396C93.8977 24.4397 93.4061 24.1757 93.0268 23.7841C92.668 23.3961 92.4158 22.9218 92.2947 22.4073C92.1737 21.8929 92.1879 21.3559 92.3361 20.8486Z" fill="black"/>
<path d="M100.793 17.5261C102.161 17.8307 103.508 18.2009 104.852 18.5812C106.196 18.9598 107.522 19.3925 108.858 19.7955C110.179 20.2471 111.508 20.6727 112.82 21.1485C114.133 21.6248 115.442 22.1105 116.73 22.6631C115.362 22.3595 114.016 21.989 112.672 21.6092C111.328 21.2289 110.001 20.7983 108.666 20.3938C107.345 19.9406 106.016 19.5171 104.704 19.0396C103.391 18.5637 102.082 18.0778 100.793 17.5261Z" fill="black"/>
<path d="M111.063 25.115C111.308 25.1065 111.539 25.0033 111.71 24.8272C111.88 24.6512 111.975 24.4159 111.975 24.1711C111.975 23.9263 111.88 23.6911 111.71 23.515C111.539 23.3389 111.308 23.2357 111.063 23.2272C110.818 23.2357 110.587 23.3389 110.417 23.515C110.246 23.6911 110.151 23.9263 110.151 24.1711C110.151 24.4159 110.246 24.6512 110.417 24.8272C110.587 25.0033 110.818 25.1065 111.063 25.115Z" fill="black"/>
<path d="M115.295 20.5807L112.875 28.7347L114.684 29.2718L117.104 21.1178L115.295 20.5807Z" fill="black"/>
<path d="M97.962 36.5549C96.5106 35.4045 95.5147 33.7763 95.1517 31.9602C94.9581 31.0544 94.9353 30.1204 95.0843 29.2062C95.2234 28.3043 95.5201 27.4339 95.961 26.6349C95.7568 27.496 95.6268 28.373 95.5726 29.2563C95.5197 30.1198 95.5853 30.9864 95.7674 31.8322C95.9383 32.6823 96.2149 33.5076 96.5909 34.289C96.9705 35.0885 97.4299 35.8477 97.962 36.5549Z" fill="black"/>
<path d="M95.0107 19.4921C95.2445 19.6017 95.4455 19.7708 95.5937 19.9823C95.6711 20.1307 95.7297 20.2766 95.593 20.3975C95.4538 20.5181 95.1354 20.6155 95.0615 20.7444C94.977 20.8719 95.0615 21.0212 95.2195 21.1801C95.3653 21.3006 95.4758 21.4583 95.5393 21.6365C95.6068 21.7666 95.6287 21.9156 95.6015 22.0597C95.4778 22.3207 95.2282 22.5654 94.5903 22.7601L94.403 22.7361C93.8352 22.3862 93.6557 22.0862 93.6021 21.8025C93.6123 21.6562 93.6712 21.5175 93.7695 21.4087C93.876 21.2524 94.0228 21.1278 94.1943 21.0481C94.3874 20.9346 94.5068 20.8114 94.4575 20.6666C94.4187 20.5232 94.1352 20.3484 94.0312 20.1965C93.9294 20.045 94.0229 19.9186 94.1355 19.7947C94.3324 19.6275 94.5695 19.5149 94.8235 19.4679L95.0107 19.4921Z" fill="black"/>
<path d="M94.549 21.1488C93.456 23.8173 92.9042 26.6763 92.9254 29.5599C92.9467 32.4434 93.5407 35.294 94.6729 37.946C95.9478 40.5934 97.556 43.074 99.0255 45.6034C99.7733 46.8601 100.513 48.1201 101.326 49.3084C101.717 49.8953 102.138 50.4613 102.588 51.0042C102.796 51.2515 103.023 51.4828 103.266 51.6961C103.42 51.8381 103.606 51.9409 103.809 51.9961L103.421 52.16C103.921 51.633 104.328 51.0245 104.623 50.3606C104.936 49.6518 105.161 48.9075 105.294 48.1443C105.443 47.3633 105.516 46.5697 105.511 45.7746C105.514 45.3733 105.493 44.9698 105.485 44.563L105.38 43.3434L105.503 43.3157C105.768 44.1033 105.967 44.9119 106.097 45.7328C106.214 46.5697 106.248 47.4161 106.2 48.2598C106.134 49.1211 105.954 49.9699 105.665 50.7838C105.376 51.6512 104.904 52.4468 104.283 53.1173L104.127 53.2776L103.894 53.2813C103.364 53.2759 102.852 53.0855 102.447 52.743C102.123 52.49 101.828 52.2012 101.568 51.8823C101.075 51.2979 100.628 50.6757 100.232 50.0213C99.4503 48.7413 98.7347 47.4455 98.0733 46.1238C96.7337 43.49 95.6888 40.7247 94.3257 38.12C93.0135 35.4999 91.7803 32.6332 91.7994 29.5639C91.7897 28.0477 92.008 26.5386 92.4471 25.0873C92.8573 23.6386 93.5346 22.2793 94.4442 21.0793L94.549 21.1488Z" fill="black"/>
<path d="M103.915 52.6389C104.37 57.8795 104.736 63.0986 104.926 68.3345C104.991 70.9537 105.002 73.5822 105.227 76.1945C105.311 77.5031 105.516 78.7998 105.655 80.1026C105.838 81.4006 106.054 82.6941 106.267 83.9865C106.756 86.5414 107.154 89.1948 107.7 91.6564C108.003 92.8444 108.547 93.9575 109.298 94.9267C110.049 95.896 110.991 96.7008 112.066 97.2913C114.322 98.4341 116.83 98.9867 119.358 98.8976C121.953 98.78 124.528 98.3697 127.031 97.6743L127.068 97.7946C124.632 98.8707 122.046 99.5702 119.4 99.869C116.665 100.142 113.908 99.6536 111.433 98.4581C110.184 97.7991 109.095 96.8741 108.242 95.7483C107.422 94.6122 106.838 93.3242 106.522 91.9595C106.217 90.5906 106.103 89.3296 105.918 88.0108C105.746 86.7058 105.632 85.3941 105.511 84.0844C105.307 81.4604 105.091 78.8438 104.833 76.2311C104.566 73.6196 104.18 71.0156 103.909 68.3989C103.648 65.7819 103.559 63.1529 103.531 60.5248C103.524 57.8958 103.56 55.2655 103.789 52.6387L103.915 52.6389Z" fill="black"/>
<path d="M115.451 36.8773C114.146 36.9261 112.851 36.6374 111.69 36.0392C111.087 35.7428 110.559 35.3127 110.147 34.7817C109.731 34.2504 109.534 33.5796 109.598 32.9077C109.789 33.4823 110.101 34.0094 110.512 34.4536C110.924 34.8978 111.425 35.2487 111.984 35.4829C113.105 36.0289 114.264 36.4949 115.451 36.8773Z" fill="black"/>
<path d="M86.2322 67.911C86.4675 68.1457 86.6454 68.4315 86.7522 68.7462C86.8844 69.0369 86.9934 69.3376 87.0782 69.6454C87.2746 70.2501 87.436 70.8657 87.5616 71.489C87.8721 72.7237 88.0113 73.9848 88.2442 75.2337L88.7103 79.0084L89.0447 82.7948C89.2683 85.3204 89.3457 87.8517 89.5035 90.381L89.7647 97.974C89.8345 103.037 89.9127 108.102 89.8526 113.163L89.7991 120.757L89.6021 128.348C89.525 130.877 89.4852 133.409 89.3773 135.937L89.0364 143.521C88.8267 148.578 88.5482 153.631 88.2603 158.683L86.6766 189.002L86.6695 189.139L86.5511 189.194C84.04 190.342 81.355 191.064 78.6065 191.329C75.8477 191.61 73.0604 191.344 70.4044 190.547C69.7327 190.375 69.0783 190.142 68.4495 189.85C67.7981 189.613 67.168 189.32 66.566 188.976L64.765 187.933C64.1981 187.537 63.6624 187.095 63.1097 186.677L62.2865 186.041C62.024 185.816 61.7926 185.558 61.544 185.317L60.0775 183.847C59.1563 182.818 58.3582 181.685 57.4928 180.607L57.4134 180.508L57.4071 180.343C57.027 170.601 56.8461 160.858 56.6883 151.112C56.5284 141.366 56.5616 131.618 56.6568 121.87C56.7813 112.122 57.1291 102.378 57.7 92.6386C58.0096 87.7719 58.3805 82.9066 58.9654 78.0602C59.2677 75.6385 59.6432 73.2232 60.1446 70.8313C60.3872 69.6323 60.6932 68.447 61.0611 67.2804C61.3848 66.0905 61.9382 64.9754 62.69 63.998L62.782 64.0837C62.0785 65.0661 61.5727 66.1759 61.293 67.3514C60.9652 68.5195 60.6995 69.7041 60.4971 70.9002C60.0701 73.291 59.7889 75.7071 59.5435 78.1255C59.0433 82.9624 58.7564 87.8224 58.5303 92.683C58.0884 102.407 58.0062 112.146 57.9276 121.882C57.8311 131.619 57.9222 141.358 57.9771 151.097C58.0421 160.836 58.22 170.577 58.3997 180.312L58.314 180.048C59.1363 181.103 59.8931 182.219 60.7684 183.229L62.1624 184.673C62.3985 184.909 62.6182 185.165 62.868 185.386L63.6512 186.01C64.177 186.42 64.6863 186.857 65.2264 187.248L66.9431 188.279C67.5169 188.62 68.119 188.912 68.7427 189.15C69.3437 189.442 69.9708 189.677 70.6157 189.852C73.1784 190.668 75.8766 190.971 78.5564 190.745C81.2442 190.539 83.8771 189.876 86.3415 188.783L86.2163 188.975C86.7942 178.874 87.3767 168.772 87.6982 158.659C87.8767 153.603 88.0444 148.547 88.1499 143.49L88.5129 128.321C88.7477 118.21 88.9179 108.099 88.8342 97.9889L88.7263 90.4085C88.6198 87.8856 88.5934 85.3554 88.4213 82.8366L88.1989 79.0546L87.863 75.2825C87.674 74.0381 87.5778 72.772 87.312 71.5415C87.2089 70.9207 87.07 70.3065 86.8962 69.7017C86.8235 69.397 86.7268 69.0985 86.6071 68.809L86.4275 68.3773C86.3555 68.2516 86.2715 68.1332 86.1765 68.0239L86.2322 67.911Z" fill="black"/>
</svg>
