<svg width="87" height="173" viewBox="0 0 87 173" fill="none" xmlns="http://www.w3.org/2000/svg">
<path d="M13.5642 171L20.2581 167.479C22.2821 152.034 23.2941 143.035 23.2941 140.484C23.2941 136.656 45.3144 122.644 46.8507 117.479C47.8749 114.036 46.68 100.421 43.266 76.6345C26.196 83.281 16.2954 87.5441 13.5642 89.4238" stroke="black" stroke-width="4" stroke-linecap="round" stroke-linejoin="round"/>
<path d="M81.8974 167.569H73.0685C76.0115 156.116 77.4829 148.664 77.4829 145.213C77.4829 140.035 68.3597 111.796 68.3597 111.796C68.3597 111.796 71.2368 98.9318 76.991 73.2029C71.2368 83.119 65.0243 89.2375 58.3535 91.5583C51.6827 93.8791 35.202 92.9757 8.91126 88.848C1.56455 91.4218 0.0750351 90.5778 4.44272 86.3162" stroke="black" stroke-width="4" stroke-linecap="round" stroke-linejoin="round"/>
<path opacity="0.395345" d="M4.10254 92.934C32.487 38.0907 48.6066 7.77935 52.4615 2" stroke="black" stroke-width="4" stroke-linecap="round" stroke-linejoin="round"/>
<path d="M51.6551 35.015C54.4902 33.0465 59.1458 32.2786 62.8563 32.0664C71.0926 31.5956 80.894 35.2027 83.2565 41.7984C87.3798 53.306 73.7399 68.6908 57.4629 62.2422C49.7533 59.1876 47.0242 53.9029 47.2143 47.3663" stroke="black" stroke-width="4" stroke-linecap="round" stroke-linejoin="round"/>
<path d="M76.641 74.0608C68.1437 75.3641 62.0023 76.1533 58.2169 76.4283C54.4315 76.7033 49.7096 76.7033 44.0513 76.4283" stroke="black" stroke-width="4" stroke-linecap="round" stroke-linejoin="round"/>
<path d="M69.282 112.665C63.5258 113.968 59.3655 114.757 56.8012 115.032C54.2368 115.307 51.0381 115.307 47.2051 115.032" stroke="black" stroke-width="4" stroke-linecap="round" stroke-linejoin="round"/>
</svg>
