<svg width="50" height="50" viewBox="0 0 50 50" fill="none" xmlns="http://www.w3.org/2000/svg">
<path d="M1.42003 49.7204L17.98 33.1604C21.6657 36.4759 26.5001 38.2214 31.4537 38.0251C36.4072 37.8288 41.0884 35.7061 44.5001 32.1094C47.9117 28.5126 49.7843 23.7259 49.7188 18.7689C49.6533 13.8119 47.6551 9.07628 44.1496 5.57083C40.6442 2.06539 35.9086 0.0671162 30.9516 0.00166003C25.9946 -0.0637961 21.2079 1.80873 17.6111 5.2204C14.0143 8.63206 11.8917 13.3132 11.6954 18.2668C11.4991 23.2203 13.2445 28.0548 16.56 31.7404L3.05176e-05 48.3004L1.42003 49.7204ZM30.68 2.04042C34.0449 2.02854 37.3375 3.01547 40.141 4.87622C42.9445 6.73697 45.1328 9.38784 46.4287 12.4931C47.7246 15.5984 48.0698 19.0184 47.4207 22.32C46.7715 25.6216 45.1572 28.6564 42.7821 31.0399C40.407 33.4234 37.378 35.0484 34.0787 35.7092C30.7794 36.3701 27.3582 36.0369 24.2484 34.752C21.1385 33.4671 18.4799 31.2882 16.6093 28.4913C14.7386 25.6944 13.7401 22.4053 13.74 19.0404C13.7453 14.5437 15.5298 10.2318 18.7038 7.04657C21.8778 3.86131 26.1834 2.06155 30.68 2.04042Z" fill="#0E1D25"/>
</svg>
